<svg width="114" height="97" viewBox="0 0 114 97" fill="none" xmlns="http://www.w3.org/2000/svg">
<path d="M49.0469 28.7889H49.051C49.1134 28.7948 49.1758 28.7925 49.2382 28.7954V28.7432C49.1755 28.7627 49.1116 28.778 49.0469 28.7889Z" fill="#1E40AF"/>
<path d="M64.3187 23.7034C64.2284 22.394 63.9837 21.0999 63.5898 19.8479C63.3126 18.8569 62.9076 17.9061 62.385 17.0196C62.2975 16.8793 62.2011 16.7447 62.0963 16.6168C61.861 16.2929 61.5359 16.045 61.1612 15.9039C60.7473 15.8107 60.3228 15.7726 59.8989 15.7905C58.9662 15.7596 58.0337 15.7146 57.1014 15.6556C55.2254 15.5368 53.3541 15.3614 51.4875 15.1293C50.4261 14.997 49.3673 14.8461 48.3111 14.6766C48.2787 14.6724 48.2459 14.6755 48.2148 14.6855C48.619 14.6962 49.003 14.8649 49.2842 15.1554L49.2919 15.1649C49.642 15.6494 49.8727 16.2098 49.965 16.8004C50.2875 18.2016 50.5163 19.6228 50.6499 21.0545C50.7236 21.7673 50.783 22.485 50.8388 23.2014C50.8881 23.8341 50.9463 24.468 50.9499 25.1024C50.9564 26.2264 50.7717 27.4787 49.94 28.3103C49.7441 28.5101 49.5031 28.6599 49.2372 28.747V28.7993C49.3347 28.8034 49.4315 28.8111 49.5283 28.8094C50.0504 28.7974 50.5673 28.7038 51.0604 28.5319C52.3648 28.0756 53.4423 27.1327 54.0675 25.9002C54.6695 24.6416 54.9744 23.2616 54.9586 21.8666C54.8909 21.3025 55.0247 20.7327 55.3365 20.2578C55.4156 20.1617 55.5171 20.0864 55.632 20.0386C55.747 19.9907 55.8719 19.9718 55.9959 19.9834C56.1578 20.0127 56.3116 20.0765 56.4467 20.1705C56.5818 20.2645 56.6951 20.3865 56.7788 20.5281C57.3969 21.4909 57.7468 22.6012 57.7923 23.7444C57.8802 23.1451 57.8987 22.5378 57.8476 21.9343C57.7911 21.3034 57.4466 20.3998 57.9569 19.8675C58.4672 19.3353 59.2121 19.7487 59.6238 20.1794C59.8728 20.4617 60.0813 20.7772 60.2434 21.1168C60.4322 21.4772 60.5963 21.8499 60.7347 22.2325C60.7484 22.2711 60.7585 22.3103 60.7721 22.3513L60.7074 21.1566C60.6384 20.7784 60.718 20.3882 60.9296 20.0671C61.2266 19.7339 61.6365 19.9162 61.9121 20.1705C62.155 20.4028 62.3794 20.6537 62.5834 20.9208C63.4417 22.0544 63.9231 23.4285 63.9599 24.8499C63.9634 25.0145 63.9599 25.179 63.9527 25.3436C63.9313 25.8058 63.8708 26.2686 63.809 26.7248C63.7652 27.0426 63.7149 27.3595 63.6581 27.6753C63.7175 27.5666 63.771 27.4561 63.8197 27.3432C64.2681 26.1856 64.439 24.939 64.3187 23.7034Z" fill="#1E40AF"/>
<path d="M46.9874 21.7039L46.9969 21.7247C47.0048 21.7407 47.0094 21.7582 47.0105 21.7761C47.0116 21.7939 47.0091 21.8118 47.0033 21.8287C46.9974 21.8456 46.9883 21.8612 46.9764 21.8745C46.9645 21.8879 46.95 21.8987 46.9339 21.9065C46.9267 21.9101 46.9191 21.913 46.9113 21.9154C46.8872 21.9313 46.8594 21.9409 46.8306 21.9433C46.5383 21.9665 46.2454 21.9813 45.9531 21.9926C45.9654 22.3051 45.9886 22.6174 46.0226 22.9294C46.0737 23.4047 46.1456 23.8835 46.2371 24.3552C46.3244 24.1948 46.4111 24.0344 46.4955 23.8746C46.7553 23.3799 47.0171 22.8859 47.2809 22.3924C47.2809 22.3888 47.2856 22.3877 47.2874 22.3847L47.2933 22.3776C47.3108 22.3497 47.337 22.3284 47.3679 22.3171C47.3988 22.3058 47.4325 22.3052 47.4638 22.3152C47.4875 22.3189 47.5101 22.3277 47.53 22.341C47.5499 22.3544 47.5667 22.3719 47.5791 22.3924C48.2516 23.419 48.9169 24.4502 49.6042 25.4667C49.619 25.493 49.6268 25.5228 49.6266 25.553C49.6265 25.5832 49.6185 25.6129 49.6035 25.6391C49.5885 25.6653 49.5669 25.6872 49.5409 25.7026C49.5149 25.718 49.4853 25.7263 49.4551 25.7269L48.9941 25.7471L46.6072 25.854C46.7673 26.498 47.0496 27.1053 47.4389 27.6427C47.7478 28.0695 48.2065 28.3638 48.7232 28.4667C48.9972 28.4628 49.2648 28.383 49.4961 28.2362C49.7275 28.0894 49.9136 27.8813 50.0337 27.635C50.5375 26.6561 50.7277 25.5458 50.5785 24.455C50.5191 23.3964 50.4276 22.3372 50.3183 21.2809C50.3019 21.3029 50.2809 21.321 50.2568 21.334C50.2327 21.347 50.206 21.3547 50.1787 21.3564C49.4801 21.3623 48.7826 21.4401 48.0846 21.3837C48.0386 21.3819 47.9951 21.3623 47.9632 21.329C47.9313 21.2958 47.9135 21.2515 47.9135 21.2055C47.9141 21.1768 47.9217 21.1487 47.9355 21.1235C48.5195 20.1136 49.1034 19.1108 49.6125 18.0623C49.626 18.0299 49.651 18.0036 49.6827 17.9885C49.7144 17.9734 49.7505 17.9704 49.7842 17.9803C49.8117 17.981 49.8384 17.9892 49.8615 18.0041C49.7779 17.5603 49.682 17.1189 49.5739 16.6805C49.5083 16.1471 49.2681 15.6505 48.8908 15.2678C48.7242 15.1357 48.5238 15.0532 48.3125 15.0297C48.1013 15.0061 47.8876 15.0425 47.6961 15.1347C47.5479 15.2629 47.4143 15.4069 47.2975 15.5643C46.8073 16.3151 46.4849 17.1629 46.3523 18.0498C46.2234 18.6896 46.1414 19.336 46.0678 19.9835C46.4208 20.5185 46.7235 21.0851 46.9719 21.676C46.9782 21.6846 46.9834 21.694 46.9874 21.7039Z" fill="#2563EB"/>
<path d="M46.9985 21.7198L46.989 21.699C46.9859 21.6888 46.9815 21.679 46.976 21.6699C46.7274 21.0796 46.4247 20.5137 46.0718 19.9792C45.9767 19.8343 45.8777 19.6913 45.7748 19.5503C45.6744 19.4125 45.5746 19.2735 45.4664 19.1398C45.4337 19.1072 45.3894 19.0889 45.3432 19.0889C45.297 19.0889 45.2526 19.1072 45.2199 19.1398C45.2103 19.1493 45.2021 19.1601 45.1956 19.1719C44.6822 20.005 44.2223 20.8699 43.8185 21.7614C43.8073 21.7814 43.8001 21.8035 43.7974 21.8263C43.7947 21.8491 43.7966 21.8722 43.8029 21.8943C43.8092 21.9164 43.8198 21.937 43.8341 21.955C43.8484 21.973 43.8661 21.9879 43.8862 21.999C43.9112 22.0127 43.9391 22.0203 43.9676 22.021C44.5148 22.021 45.0619 22.018 45.6084 22.0026C45.7237 21.999 45.8395 21.9955 45.9548 21.9907C46.247 21.9794 46.5399 21.9646 46.8322 21.9414C46.861 21.939 46.8888 21.9294 46.913 21.9135C46.9478 21.9036 46.9772 21.8804 46.9949 21.8489C47.0126 21.8174 47.0171 21.7802 47.0074 21.7454C47.0053 21.7366 47.0023 21.728 46.9985 21.7198ZM45.9583 18.5748C45.9488 18.5493 45.9358 18.5255 45.9257 18.5C45.5822 17.74 45.1913 17.0023 44.7553 16.2913C44.7317 16.2519 44.6934 16.2236 44.6488 16.2125C44.6043 16.2013 44.5571 16.2083 44.5177 16.2319C44.4935 16.2466 44.4731 16.267 44.4583 16.2913C44.1045 17.0876 43.7349 17.8769 43.3498 18.6586C43.3353 18.685 43.3279 18.7146 43.3281 18.7447C43.3284 18.7747 43.3364 18.8042 43.3514 18.8303C43.3664 18.8564 43.3878 18.8782 43.4137 18.8936C43.4395 18.909 43.4688 18.9174 43.4989 18.9182C44.2795 18.8588 45.0631 18.9045 45.8389 18.7875C45.8533 18.7845 45.8671 18.7793 45.8799 18.7721C45.911 18.7604 45.9363 18.7372 45.9506 18.7073C45.9625 18.6875 45.9694 18.6651 45.9707 18.642C45.9721 18.619 45.9678 18.5959 45.9583 18.5748ZM49.6059 25.4624C48.9185 24.446 48.2532 23.4147 47.5807 22.3881C47.5683 22.3676 47.5516 22.3501 47.5317 22.3367C47.5117 22.3234 47.4891 22.3146 47.4655 22.3109C47.4342 22.3009 47.4004 22.3016 47.3695 22.3129C47.3386 22.3241 47.3124 22.3454 47.295 22.3733L47.289 22.3804C47.289 22.3804 47.2843 22.3846 47.2825 22.3881C47.0187 22.8812 46.7569 23.3753 46.4971 23.8703C46.4128 24.0301 46.326 24.1905 46.2387 24.3509C46.1514 24.5113 46.0682 24.6687 45.9845 24.8262C45.8394 25.0989 45.709 25.3791 45.5936 25.6656C45.5876 25.6876 45.586 25.7105 45.5889 25.7332C45.5918 25.7558 45.5991 25.7776 45.6105 25.7974C45.6219 25.8172 45.637 25.8345 45.6551 25.8484C45.6732 25.8622 45.6939 25.8724 45.7159 25.8782C45.7302 25.8823 45.745 25.8843 45.7599 25.8842L46.25 25.8628L46.6064 25.8468L48.9934 25.7398L49.4544 25.7196C49.4773 25.7192 49.5 25.7143 49.521 25.7051C49.5421 25.696 49.5611 25.6827 49.577 25.6661C49.5929 25.6496 49.6054 25.63 49.6137 25.6086C49.622 25.5872 49.626 25.5644 49.6255 25.5414C49.6254 25.5139 49.6187 25.4868 49.6059 25.4624ZM49.932 18.0978C49.9289 18.0777 49.9217 18.0584 49.9107 18.0412C49.8998 18.024 49.8854 18.0093 49.8684 17.998C49.8452 17.9831 49.8183 17.9748 49.7906 17.9742C49.757 17.9644 49.721 17.9673 49.6894 17.9825C49.6578 17.9976 49.6329 18.0239 49.6195 18.0562C49.1104 19.1047 48.5265 20.1099 47.9425 21.1174C47.9209 21.1581 47.9159 21.2056 47.9285 21.2499C47.9411 21.2942 47.9704 21.3319 48.0102 21.3551C48.0352 21.3688 48.0631 21.3763 48.0916 21.377C48.7896 21.4335 49.4871 21.3556 50.1857 21.3497C50.213 21.348 50.2397 21.3404 50.2638 21.3274C50.2879 21.3143 50.3089 21.2962 50.3253 21.2743C50.3371 21.2611 50.346 21.2457 50.3516 21.2289C50.3573 21.2122 50.3594 21.1944 50.3579 21.1768C50.2249 20.1485 50.137 19.1154 49.932 18.0978Z" fill="#1E40AF"/>
<path d="M40.8682 6.89762C40.7171 6.40631 40.3815 5.99268 39.9319 5.74365C39.4822 5.49461 38.9535 5.42957 38.4569 5.56217C38.7825 4.711 38.8826 3.79013 38.7474 2.88889C38.6606 2.51646 38.4999 2.16529 38.2746 1.85626C38.0494 1.54724 37.7643 1.28667 37.4363 1.09007C36.7834 0.697531 36.0345 0.49336 35.2727 0.500165C34.4134 0.524435 33.5724 0.754648 32.8204 1.17145C31.9291 1.6697 31.0928 2.26049 30.3254 2.93404C30.1698 2.61481 29.9507 2.33073 29.6814 2.09925C29.4121 1.86776 29.0984 1.69375 28.7594 1.58789C27.9028 1.31876 26.9765 1.38 26.1628 1.75958C25.2629 2.19068 24.442 2.77005 23.7343 3.47345C23.0946 4.06276 22.4845 4.68256 21.9039 5.33286C19.4012 8.13149 17.3113 11.5705 16.7986 15.3476C16.6364 16.5447 16.6584 17.7595 16.8639 18.95C16.9738 18.9283 17.0849 18.9139 17.1966 18.9066C17.3498 18.8945 17.5038 18.8973 17.6564 18.9149C18.1144 18.9927 18.5531 19.1581 18.9485 19.402C18.9586 19.2012 18.9728 19.0016 18.996 18.802C19.3118 16.4253 20.3463 14.2019 21.961 12.4295C23.5066 10.6268 25.4419 9.19908 27.6206 8.25446C28.5088 7.89612 29.4344 7.63847 30.38 7.48634C31.3655 7.31058 32.3663 7.23495 33.367 7.26059C34.2568 7.24833 35.1371 7.44445 35.9375 7.83327C36.9002 8.43142 37.7096 9.24638 38.3013 10.2131C38.5389 10.5666 38.7516 10.9343 38.9547 11.3073C39.0266 11.438 39.0985 11.5687 39.1668 11.7012C39.3058 11.3501 39.4638 11.0068 39.6326 10.6681C40.0864 9.85463 40.4685 9.00308 40.7743 8.12317C40.9094 7.7293 40.9417 7.30747 40.8682 6.89762Z" fill="#2563EB"/>
<path d="M18.8143 29.9638C18.8855 30.5092 19.0949 31.0274 19.4226 31.4692C19.8237 31.9516 20.2842 32.3813 20.7931 32.7482C21.7577 33.5353 22.8703 34.1211 24.0652 34.471C26.7052 35.1839 29.5175 34.6058 32.0749 33.8431C32.6366 33.6749 33.1453 33.3645 33.5518 32.9419C33.8823 32.6008 34.1363 32.1931 34.2967 31.746C34.4238 31.3227 34.523 30.8914 34.5937 30.4551L35.3066 27.0096C35.1943 27.0612 35.0827 27.1153 34.9698 27.164L34.9181 27.1842C34.7423 28.0345 34.566 28.8844 34.3894 29.7339L34.0924 31.1745C34.0184 31.5723 33.8656 31.9513 33.643 32.2892C33.4204 32.6271 33.1324 32.9171 32.7961 33.1421C32.2839 33.4282 31.7304 33.633 31.1553 33.7492C30.5298 33.9232 29.8974 34.0712 29.2597 34.193C27.949 34.4503 26.6065 34.5042 25.2794 34.3528C24.0499 34.1955 22.8727 33.7588 21.838 33.0761C21.3214 32.7389 20.8322 32.3615 20.3749 31.9474C19.9059 31.5775 19.5381 31.095 19.3056 30.5448C19.1279 29.9752 19.0822 29.3727 19.1719 28.7828C19.2236 28.1888 19.2753 27.6007 19.3347 27.0102C19.4363 26.0062 19.5723 25.0076 19.7505 24.0149C19.622 24.2392 19.4699 24.4491 19.2966 24.641C19.2113 25.1609 19.1377 25.6826 19.0757 26.2058C19.0061 26.7999 18.9491 27.3939 18.8974 27.985C18.825 28.527 18.7875 29.0731 18.7852 29.6199C18.7887 29.6989 18.7852 29.7785 18.7959 29.8575C18.7988 29.8943 18.8089 29.9294 18.8143 29.9638Z" fill="#2563EB"/>
<path d="M19.8674 23.8057C20.6516 25.4213 21.9808 26.7083 23.6207 27.4402C25.4786 28.1819 27.4771 28.505 29.474 28.3865C31.3472 28.3197 33.1926 27.9123 34.9198 27.1841L34.9715 27.1639C35.0843 27.1152 35.196 27.0611 35.3083 27.0095C36.9604 26.2855 38.4268 25.1964 39.5974 23.8241C40.1493 23.1433 40.5575 22.3578 40.7974 21.515C40.6786 21.5114 40.5598 21.5019 40.441 21.4948C40.2729 22.0818 40.0139 22.6388 39.6735 23.1457C39.1226 23.9193 38.4541 24.602 37.6923 25.1691C36.9645 25.7314 36.1793 26.2153 35.3499 26.6126C33.706 27.3951 31.9316 27.8666 30.1162 28.0033C28.2313 28.1742 26.3312 27.9744 24.5231 27.4152C23.4783 27.0883 22.5206 26.5304 21.7209 25.7827C20.9896 25.0716 20.4032 24.2255 19.994 23.2912C19.931 23.1504 19.7147 23.1997 19.6779 23.3322C19.5271 23.8047 19.257 24.2302 18.8938 24.5679C18.5858 24.9113 18.1968 25.1721 17.7621 25.3265C16.8621 25.5908 15.9947 24.9605 15.5046 24.2518C14.4947 22.7946 14.4989 20.5443 16.1706 19.5748C16.5681 19.3376 17.027 19.2233 17.4894 19.2462C18.0386 19.3222 18.5621 19.5268 19.0173 19.8433C19.0579 19.865 19.1052 19.8702 19.1495 19.8578C19.1938 19.8454 19.2316 19.8164 19.2549 19.7767C19.2692 19.7515 19.2768 19.7231 19.2769 19.6942C19.3767 17.3563 20.2225 15.1118 21.6906 13.2896C23.1016 11.47 24.8968 9.98414 26.948 8.93808C28.7102 8.0945 30.6335 7.64063 32.5869 7.60738C33.4906 7.54843 34.3976 7.65266 35.2643 7.9151C36.2043 8.31513 37.011 8.97449 37.5901 9.8161C38.3028 10.771 38.8924 11.8119 39.3449 12.9141C39.8403 14.069 40.2123 15.2729 40.4546 16.5058C40.4606 16.5344 40.4642 16.5652 40.4695 16.5908C40.6303 16.8874 40.7949 17.1817 40.9632 17.4736L40.9453 17.3363C40.6648 15.3742 40.0639 13.4714 39.1667 11.704C39.0984 11.5716 39.0265 11.4409 38.9546 11.3102C38.7513 10.937 38.5333 10.5719 38.3012 10.2159C37.7096 9.2492 36.9001 8.43424 35.9374 7.83609C35.137 7.44727 34.2567 7.25115 33.3669 7.26342C32.3662 7.23777 31.3654 7.31341 30.3799 7.48916C29.4343 7.6413 28.5087 7.89895 27.6205 8.25729C25.4418 9.20174 23.5064 10.6295 21.9609 12.4324C20.3458 14.2045 19.3108 16.428 18.9947 18.8049C18.9716 19.0045 18.9573 19.2041 18.9472 19.4049C18.5519 19.1609 18.1132 18.9955 17.6551 18.9177C17.5021 18.8998 17.3477 18.8968 17.1941 18.9088C17.0828 18.9161 16.9721 18.9306 16.8627 18.9522C16.6738 18.9889 16.4893 19.0451 16.312 19.1197C15.8682 19.3134 15.4765 19.6093 15.1689 19.9832C14.8614 20.3572 14.6466 20.7986 14.5422 21.2714C14.338 22.3096 14.5416 23.3866 15.1108 24.2786C15.6122 25.0835 16.5098 25.832 17.5167 25.7245C18.0858 25.6336 18.6094 25.3585 19.0072 24.9415C19.1082 24.8465 19.205 24.7461 19.2989 24.6445C19.4721 24.4526 19.6243 24.2427 19.7528 24.0184C19.7914 23.9471 19.8324 23.8782 19.8674 23.8057Z" fill="#2563EB"/>
<path d="M40.7342 19.7455C40.853 19.5328 40.9718 19.3213 41.0906 19.111C41.0879 18.8116 41.0734 18.5128 41.0473 18.2146H40.7057C40.7508 18.7236 40.7604 19.2351 40.7342 19.7455ZM24.7337 18.0387V19.2382C24.7337 19.284 24.7519 19.328 24.7844 19.3604C24.8168 19.3928 24.8608 19.411 24.9066 19.411C24.9524 19.411 24.9964 19.3928 25.0288 19.3604C25.0613 19.328 25.0795 19.284 25.0795 19.2382V18.0387C25.0795 17.9929 25.0613 17.9489 25.0288 17.9165C24.9964 17.8841 24.9524 17.8659 24.9066 17.8659C24.8608 17.8659 24.8168 17.8841 24.7844 17.9165C24.7519 17.9489 24.7337 17.9929 24.7337 18.0387ZM35.6288 15.451L35.8878 16.7669C35.9306 16.9849 36.2639 16.8922 36.2211 16.6748C36.1344 16.2364 36.048 15.7977 35.9621 15.3589C35.9193 15.1409 35.5861 15.2306 35.6288 15.451ZM24.2626 14.7583C23.3639 15.0618 22.6183 15.7028 22.1834 16.5459C22.083 16.7431 22.3806 16.9183 22.4805 16.7199C22.8685 15.9547 23.5392 15.3707 24.3506 15.0916C24.565 15.0203 24.4741 14.6865 24.2626 14.7583ZM35.8819 11.7221C35.5826 11.6201 35.2653 11.5814 34.9503 11.6084C34.6352 11.6354 34.3292 11.7275 34.0516 11.8789C33.8556 11.9841 34.0296 12.2823 34.2257 12.1759C34.4637 12.048 34.7257 11.971 34.9951 11.9499C35.2646 11.9288 35.5354 11.9641 35.7904 12.0536C36.0007 12.1272 36.0898 11.794 35.8819 11.7221ZM34.8714 18.6536C34.8531 18.6288 34.8279 18.6099 34.799 18.5994C34.77 18.5888 34.7386 18.587 34.7086 18.5942C34.6873 18.5977 34.6671 18.6058 34.6492 18.618C32.255 19.9459 29.5603 20.638 26.8225 20.6283C26.7882 20.6287 26.7549 20.6392 26.7266 20.6584C26.6983 20.6776 26.6762 20.7047 26.6632 20.7364C26.6502 20.768 26.6467 20.8028 26.6533 20.8364C26.6598 20.87 26.6761 20.9009 26.7001 20.9253C27.6238 22.0802 28.8981 23.1703 30.4361 23.2843C31.1755 23.3023 31.905 23.1122 32.5415 22.7356C33.178 22.3591 33.6959 21.8113 34.0362 21.1546C34.4361 20.4176 34.7312 19.6284 34.913 18.8098V18.8057C34.9179 18.7523 34.9028 18.699 34.8708 18.656L34.8714 18.6536ZM17.8284 22.0706C17.4155 22.1074 17.0161 22.2359 16.6592 22.4467C16.6238 22.4717 16.599 22.5091 16.5898 22.5515C16.5807 22.5939 16.5878 22.6382 16.6098 22.6756C16.6318 22.713 16.667 22.7408 16.7086 22.7534C16.7501 22.766 16.7948 22.7626 16.8339 22.7437C17.1373 22.5632 17.4769 22.4522 17.8284 22.4188C18.0476 22.395 18.0499 22.0493 17.8284 22.0706ZM35.7072 18.5871C35.9435 19.0055 36.0453 19.4866 35.9986 19.9648C35.9519 20.4431 35.7592 20.8955 35.4465 21.2603C35.2997 21.4267 35.5433 21.672 35.6906 21.5045C36.0562 21.0847 36.2827 20.562 36.3391 20.0082C36.3955 19.4544 36.2789 18.8967 36.0055 18.4118C35.9805 18.3763 35.9431 18.3516 35.9006 18.3424C35.8582 18.3333 35.8139 18.3404 35.7765 18.3624C35.7391 18.3844 35.7114 18.4196 35.6987 18.4611C35.6861 18.5026 35.6896 18.5474 35.7084 18.5865L35.7072 18.5871ZM36.7391 18.0144C37.0537 18.6175 37.2227 19.2859 37.2325 19.966C37.2423 20.6462 37.0926 21.3191 36.7956 21.931C36.6976 22.1295 36.9958 22.3047 37.0926 22.1051C37.4187 21.4397 37.5835 20.7069 37.5737 19.966C37.5639 19.2251 37.3797 18.4969 37.0362 17.8403C36.934 17.6437 36.6352 17.8178 36.7391 18.0144Z" fill="#2563EB"/>
<path d="M41.2452 17.9503C41.1483 17.7923 41.0551 17.6319 40.9624 17.4715C40.7941 17.1792 40.6297 16.8849 40.4693 16.5887C40.2703 16.2234 40.0737 15.8562 39.8717 15.4921C39.854 15.4636 39.8284 15.4408 39.798 15.4264C39.7677 15.4121 39.7338 15.4068 39.7006 15.4112C39.6673 15.4156 39.636 15.4294 39.6104 15.4512C39.5848 15.4729 39.566 15.5015 39.5562 15.5337C39.2366 16.3618 38.8523 17.1632 38.5333 17.9913C38.5273 18.0134 38.5258 18.0365 38.5289 18.0592C38.5319 18.0819 38.5393 18.1038 38.5508 18.1236C38.5623 18.1434 38.5776 18.1607 38.5957 18.1746C38.6139 18.1885 38.6347 18.1987 38.6568 18.2046C38.6708 18.208 38.6852 18.21 38.6996 18.2105H41.0955C41.1422 18.2085 41.1863 18.1882 41.2182 18.1539C41.2501 18.1197 41.2672 18.0743 41.266 18.0275C41.2648 18.0006 41.2577 17.9742 41.2452 17.9503ZM43.0357 21.2058C42.5948 20.3925 42.0829 19.6198 41.506 18.8966C41.4814 18.8573 41.4424 18.8291 41.3974 18.818C41.3524 18.8069 41.3048 18.8138 41.2648 18.8372C41.2403 18.8518 41.2199 18.8722 41.2054 18.8966C41.1644 18.9656 41.1263 19.0368 41.0865 19.1069C40.965 19.3172 40.8461 19.5287 40.7301 19.7414C40.4646 20.2167 40.199 20.6972 39.9162 21.1671C39.9005 21.186 39.8895 21.2085 39.8842 21.2325C39.8669 21.2709 39.8654 21.3145 39.8803 21.354C39.8951 21.3934 39.9249 21.4253 39.9632 21.4428C39.9758 21.4494 39.9891 21.4544 40.003 21.4576C40.0079 21.4598 40.0131 21.4614 40.0184 21.4624C40.0259 21.4655 40.0337 21.4679 40.0416 21.4695C40.1747 21.482 40.3083 21.4873 40.442 21.4957C40.5608 21.5028 40.6796 21.5123 40.7984 21.5159C41.4953 21.539 42.1951 21.5105 42.8889 21.4683C42.9349 21.4665 42.9785 21.4469 43.0104 21.4137C43.0423 21.3805 43.0601 21.3362 43.06 21.2901C43.0591 21.2604 43.0507 21.2314 43.0357 21.2058ZM42.6032 25.982C42.1829 24.9433 41.6506 23.9535 41.0159 23.0301C41.003 23.008 40.9849 22.9893 40.9632 22.9757C40.9414 22.9621 40.9167 22.9541 40.8911 22.9523C40.8572 22.9406 40.8201 22.9425 40.7875 22.9576C40.755 22.9727 40.7295 22.9997 40.7164 23.0331C40.2507 24.0347 39.6038 24.94 39.138 25.944C39.1269 25.9641 39.1198 25.9861 39.1171 26.0089C39.1145 26.0317 39.1164 26.0548 39.1226 26.0768C39.1289 26.0989 39.1395 26.1195 39.1538 26.1375C39.168 26.1555 39.1857 26.1705 39.2057 26.1816C39.2306 26.1957 39.2586 26.2032 39.2871 26.2036H42.4357C42.4587 26.2034 42.4815 26.1986 42.5027 26.1895C42.5239 26.1803 42.543 26.1671 42.5591 26.1505C42.5751 26.134 42.5877 26.1144 42.5961 26.0929C42.6045 26.0714 42.6085 26.0484 42.6079 26.0254C42.6078 26.0108 42.6063 25.9963 42.6032 25.982Z" fill="#1E40AF"/>
<path d="M53.8372 43.7876C52.7628 44.3605 51.7196 44.9899 50.7118 45.6732C50.5271 45.7955 50.7 46.0949 50.8859 45.9702C52.4015 44.9093 54.0267 44.0143 55.7334 43.3005C55.8142 43.269 55.8938 43.2345 55.9758 43.2042C56.0982 43.1591 56.2218 43.1181 56.3453 43.0765C57.781 42.6226 59.2594 42.3173 60.7574 42.1652C61.9729 42.0179 63.1931 41.902 64.4097 41.7737C64.6283 41.7506 64.6307 41.4048 64.4097 41.428C62.4256 41.6371 60.4218 41.7844 58.4602 42.1646C57.8634 42.2798 57.2734 42.4278 56.6929 42.6078C56.498 42.6676 56.3043 42.7314 56.1119 42.7991C55.331 43.0738 54.5708 43.4042 53.8372 43.7876ZM73.1217 40.645C74.8279 40.641 76.4651 39.97 77.6835 38.7755C78.2065 38.189 78.6021 37.5005 78.8455 36.7533C79.0889 36.0062 79.1746 35.2167 79.0973 34.4347C79.0024 33.3786 78.7208 32.3478 78.2656 31.3901C78.173 31.1881 77.8753 31.3634 77.9686 31.5642C78.7291 33.0711 78.946 34.7942 78.5829 36.4426C78.3941 37.1398 78.0561 37.7878 77.5924 38.3416C77.1287 38.8955 76.5503 39.3421 75.8971 39.6505C75.0254 40.0522 74.0811 40.2721 73.1217 40.2969C72.9001 40.3088 72.8989 40.6545 73.1217 40.645Z" fill="#2563EB"/>
<path d="M56.6914 51.5994C55.8146 51.6826 54.9389 51.7769 54.0645 51.8822C54.0553 51.8841 54.0463 51.8871 54.0378 51.8911C54.0129 51.8938 53.9889 51.9021 53.9677 51.9154C53.9465 51.9286 53.9286 51.9466 53.9154 51.9678C53.0617 53.261 52.8003 54.9309 52.675 56.4452C52.6291 56.9971 52.6059 57.5506 52.6055 58.1044V58.3551C52.6114 59.3282 52.7189 60.298 52.9263 61.2488C52.9881 61.535 53.0711 61.8161 53.1746 62.09C53.207 62.2141 53.2622 62.3312 53.3374 62.4351C53.4298 62.4936 53.5345 62.53 53.6433 62.5415C53.7568 62.5724 53.8708 62.6009 53.9843 62.6353C54.778 62.8563 55.5675 63.0916 56.3605 63.3268C56.3974 63.2549 56.4318 63.1825 56.4692 63.1112C56.4829 63.0894 56.5016 63.0713 56.5237 63.0583C56.5458 63.0452 56.5707 63.0377 56.5964 63.0363C56.6185 63.0305 56.6415 63.0291 56.6641 63.0322L57.4025 63.2235L62.1449 64.4514C61.6065 63.5369 61.4351 62.4522 61.6655 61.4163C61.773 60.912 62.0053 60.2846 62.597 60.2223C62.7872 60.2103 62.9773 60.2486 63.148 60.3334C63.3187 60.4182 63.4641 60.5464 63.5695 60.7052C63.5087 58.5418 63.7383 56.3799 64.2521 54.2775C64.4564 53.4993 64.8461 52.1983 65.5881 51.5757C65.7764 51.4124 66.0038 51.3007 66.2481 51.2513C63.0583 51.1462 59.8651 51.2625 56.6914 51.5994Z" fill="#1E40AF"/>
<path d="M73.8937 26.149C72.9531 25.2115 71.8667 24.4326 70.6768 23.8428C69.5593 23.3324 68.3964 22.9279 67.2034 22.6345C66.4388 22.429 65.6707 22.2335 64.9067 22.0232C64.863 22.0126 64.8169 22.0194 64.7781 22.0422C64.7394 22.065 64.711 22.102 64.6991 22.1454C64.6872 22.1888 64.6927 22.2351 64.7144 22.2745C64.736 22.3139 64.7722 22.3433 64.8152 22.3565C67.2289 23.0201 69.7501 23.5024 71.8632 24.9211C72.5022 25.3563 73.1001 25.8491 73.6495 26.3931C73.8081 26.5488 74.0529 26.3046 73.8937 26.149ZM80.0696 28.2769L82.6015 25.0464C82.7369 24.8735 82.4939 24.6306 82.3567 24.8022L79.8254 28.0322C79.6894 28.2056 79.9323 28.4516 80.0696 28.2769ZM85.5052 28.5395L81.1923 29.1264C80.9731 29.1567 81.0664 29.4894 81.2844 29.4597L85.5973 28.8728C85.8165 28.8425 85.7233 28.5098 85.5052 28.5395ZM113.418 72.5761C113.25 71.2036 112.823 69.8756 112.159 68.6625C111.403 67.1423 110.41 65.7563 109.631 64.2498C109.323 63.6178 109.059 62.9656 108.839 62.2977C108.17 60.4103 107.597 58.4874 107.044 56.5626C106.977 56.7177 106.903 56.8694 106.821 57.0171C105.903 58.6804 104.045 59.821 102.124 59.284C102.05 59.4866 101.971 59.6874 101.884 59.884C101.874 60.2 101.864 60.5161 101.859 60.8345C101.838 62.2347 101.88 63.6349 101.87 65.0345C101.867 66.3844 101.766 67.7322 101.569 69.0676C101.55 69.1924 101.531 69.3159 101.509 69.4377C103.017 70.1296 104.321 71.1997 105.293 72.5441C106.524 74.1827 107.55 75.9659 108.347 77.8538C108.734 78.7354 109.094 79.6289 109.426 80.533C109.473 80.6607 109.524 80.7867 109.57 80.9144C109.989 80.3477 110.461 79.8201 110.88 79.251C111.526 78.3891 112.071 77.4566 112.506 76.4714C112.77 75.865 112.99 75.2402 113.164 74.6019C113.364 73.9463 113.45 73.261 113.418 72.5761ZM105.32 50.2186C105.115 49.2274 104.804 48.2611 104.392 47.3362C103.715 45.9943 102.784 44.7959 101.652 43.8069C101.128 43.3256 100.555 42.9014 99.9415 42.5415C99.3248 42.1987 98.6722 41.925 97.9954 41.7253C96.6042 41.3056 95.1473 41.1475 93.6985 41.259C93.3932 41.2833 93.089 41.3237 92.7872 41.3778C90.695 39.8885 87.8037 39.7542 85.4036 40.4992C84.1649 40.9501 83.0324 41.6517 82.0769 42.56C80.7087 43.7884 79.475 45.1589 78.3967 46.6483C77.0638 48.4549 75.8813 50.3676 74.8608 52.3673C74.2325 53.5929 73.6587 54.8456 73.141 56.1218C73.1808 56.1378 73.2224 56.1509 73.2598 56.1705C73.5659 56.3333 73.801 56.6036 73.9196 56.9294C74.0383 57.2552 74.0323 57.6133 73.9026 57.9349C73.7835 58.2758 73.5822 58.5821 73.3165 58.8268C73.0508 59.0714 72.729 59.2468 72.3794 59.3375C72.3604 59.341 72.3414 59.3375 72.32 59.3428C72.1985 59.359 72.0754 59.3604 71.9535 59.347C71.8139 59.7805 71.681 60.2162 71.5549 60.6539C71.6611 60.7111 71.7607 60.7799 71.8519 60.8589C71.9641 60.955 72.0623 61.0664 72.1436 61.1897C72.3447 61.5454 72.3966 61.9663 72.2881 62.3603C72.1795 62.7542 71.9193 63.0891 71.5644 63.2915C71.4481 63.3572 71.3239 63.4077 71.1949 63.4418C71.0753 63.4722 70.9528 63.4893 70.8295 63.4929C70.5603 64.7115 70.3454 65.9414 70.1856 67.1791C70.0085 68.5474 69.9058 69.9243 69.8778 71.3037C69.8644 71.9951 69.8705 72.6866 69.8962 73.3781C69.9045 74.0038 69.9617 74.6279 70.0673 75.2447C70.2588 76.1495 70.6477 77.001 71.2061 77.7383C71.7645 78.4755 72.4787 79.0805 73.2978 79.51C73.4256 79.5819 73.5563 79.6473 73.6864 79.7126C73.7594 79.6188 73.8331 79.5267 73.905 79.4328C74.5032 78.648 75.0711 77.8389 75.6557 77.0453C77.423 74.6459 79.346 72.2643 81.8607 70.6092C82.6295 70.1013 83.4528 69.6812 84.3153 69.3569C84.2001 68.8133 84.1329 68.2508 84.0694 67.7078C83.982 66.9411 83.934 66.1703 83.9256 65.3987C83.9191 64.9157 83.9256 64.4333 83.9363 63.9504C83.7741 63.844 83.6114 63.7389 83.4569 63.6206C81.9264 62.4096 80.817 60.7465 80.287 58.8681C79.7292 56.9646 79.6745 54.9488 80.1284 53.0178C80.3553 52.0282 80.7632 51.0891 81.3314 50.2477C81.9124 49.4126 82.6129 48.6675 83.4106 48.036C84.22 47.3682 85.117 46.8143 86.0767 46.3899C87.004 45.9925 87.9805 45.7216 88.9799 45.5843C90.8467 45.3349 92.7448 45.472 94.5564 45.9871C95.3398 46.2034 96.1 46.4967 96.8257 46.8627C97.5366 47.2317 98.1957 47.6927 98.7861 48.2338C100.463 49.6994 101.684 51.6158 102.304 53.7551C102.953 52.943 103.768 52.1345 104.858 52.0917C105.063 52.0844 105.268 52.1073 105.466 52.1594C105.603 52.1954 105.736 52.2446 105.863 52.3061C105.679 51.6069 105.494 50.9137 105.32 50.2186ZM75.5184 61.5652C75.3866 61.7434 75.0866 61.5688 75.2214 61.3905C75.7403 60.6155 75.9561 59.6768 75.828 58.7529C75.705 57.7525 75.3342 56.7987 74.7491 55.978C74.6238 55.7933 74.9232 55.6216 75.0462 55.8034C75.6625 56.677 76.0505 57.691 76.1749 58.7529C76.3061 59.7386 76.0738 60.7383 75.5214 61.5652H75.5184ZM77.2472 62.1682C77.1284 62.3559 76.8313 62.1824 76.9501 61.9935C77.2424 61.5353 77.461 61.0342 77.5983 60.5084C77.824 59.5787 77.8029 58.6061 77.5371 57.6871C77.2713 56.768 76.77 55.9344 76.0828 55.2687C75.9242 55.1125 76.1689 54.8683 76.3276 55.0246C76.7489 55.4368 77.1075 55.9086 77.3921 56.4248C77.8797 57.3084 78.1234 58.3058 78.0982 59.3147C78.0731 60.3236 77.78 61.3076 77.2489 62.1658L77.2472 62.1682ZM79.0638 62.7729C78.9563 62.9678 78.6581 62.7931 78.7668 62.5983C79.0872 62.0215 79.3218 61.4011 79.463 60.7567C79.6946 59.6111 79.6436 58.4264 79.3145 57.305C78.9853 56.1836 78.3879 55.1593 77.5739 54.3206C77.42 54.1596 77.6642 53.9155 77.8181 54.0764C78.3118 54.5898 78.7333 55.168 79.0709 55.7951C79.6498 56.867 79.9523 58.0662 79.9513 59.2845C79.9503 60.5027 79.6456 61.7014 79.065 62.7723L79.0638 62.7729ZM82.5242 31.3096C82.308 31.2579 82.2159 31.5912 82.4321 31.6423L85.3205 32.3266C85.5367 32.3783 85.6288 32.045 85.412 31.994L82.5242 31.3096ZM67.7838 54.8612C67.5676 54.6346 67.4336 54.3422 67.4031 54.0306C67.3727 53.719 67.4475 53.4061 67.6156 53.142C67.6382 53.101 67.6655 53.0642 67.6905 53.0232C67.6045 52.7627 67.4972 52.5098 67.3697 52.2669C67.282 52.0939 67.1707 51.9339 67.0388 51.7917C66.9932 51.7407 66.9406 51.6965 66.8826 51.6604C66.8384 51.6264 66.7866 51.6038 66.7317 51.5945C66.096 51.4525 65.6119 51.9651 65.3006 52.4956C64.8883 53.2662 64.5984 54.0961 64.441 54.9557C64.2248 55.9723 64.0791 57.0027 64.0049 58.0394C64.0392 58.0299 64.0757 58.0317 64.1089 58.0448H64.1154C64.1221 58.0462 64.1287 58.0482 64.135 58.0507C64.4562 58.2422 64.7267 58.5082 64.9237 58.8261C65.1206 59.144 65.2383 59.5046 65.2667 59.8775C65.3097 60.2666 65.2117 60.6582 64.9906 60.9812C64.7694 61.3041 64.4397 61.5371 64.0614 61.6377C64.0402 61.6421 64.0184 61.6421 63.9972 61.6377C64.1019 62.0387 64.2544 62.4256 64.4517 62.7901C64.5697 63.0276 64.743 63.2333 64.9569 63.3899C65.1709 63.5465 65.4194 63.6494 65.6814 63.6902C65.9797 63.6843 66.2717 63.604 66.5311 63.4566C66.7905 63.3092 67.0089 63.0993 67.1665 62.846C67.4868 62.3787 67.7186 61.8566 67.8503 61.3056C68.0701 60.1373 68.186 58.9519 68.1966 57.7632C68.1994 57.7249 68.2142 57.6885 68.239 57.6591C68.2638 57.6298 68.2972 57.609 68.3344 57.5998C68.3314 56.7741 68.2733 55.9495 68.1604 55.1315C68.0228 55.0595 67.896 54.9685 67.7838 54.8612ZM67.2331 58.5289C67.0562 58.6871 66.8424 58.7983 66.6113 58.8522C66.3802 58.9062 66.1393 58.9013 65.9107 58.8379C65.6948 58.7708 65.4946 58.6613 65.3219 58.5155C65.1492 58.3698 65.0074 58.191 64.9049 57.9895C64.7006 57.4938 64.6525 56.9474 64.7671 56.4236C64.8096 56.1379 64.9255 55.8681 65.1035 55.6406C65.2814 55.4131 65.5153 55.2356 65.7824 55.1256C66.1451 54.9895 66.54 54.9645 66.917 55.0537C67.127 55.1169 67.3221 55.2221 67.4903 55.3628C67.6586 55.5035 67.7966 55.6768 67.896 55.8723C68.1004 56.3251 68.1462 56.8337 68.0259 57.3157C67.9056 57.7978 67.6263 58.2252 67.2331 58.5289ZM78.5547 29.7995C78.4374 29.22 78.1072 28.7056 77.6291 28.3577C77.162 28.0046 76.6505 27.7144 76.1078 27.4945C75.5388 27.2767 75.0165 26.9527 74.5685 26.5399C74.535 26.5082 74.4902 26.4912 74.4441 26.4925C74.398 26.4939 74.3543 26.5135 74.3226 26.547C74.3029 26.5683 74.2887 26.5941 74.2812 26.6222C74.2738 26.6502 74.2733 26.6797 74.2798 26.708C74.4512 27.72 74.7506 28.7062 75.1709 29.6427C75.4887 30.3312 75.9919 31.2573 76.8076 31.4326C77.0119 31.4562 77.2189 31.4394 77.4168 31.3831C77.6147 31.3268 77.7995 31.232 77.9607 31.1043C78.122 30.9765 78.2565 30.8182 78.3566 30.6385C78.4566 30.4588 78.5203 30.2611 78.544 30.0567C78.5536 29.9713 78.5564 29.8853 78.5523 29.7995H78.5547ZM77.129 29.0706L77.5899 29.4157C77.7682 29.5476 77.5935 29.847 77.4159 29.7128L76.9567 29.367C76.7785 29.2369 76.9501 28.9369 77.1278 29.07L77.129 29.0706ZM72.2511 40.3209C71.9093 40.342 71.5668 40.2948 71.2435 40.1821C70.9202 40.0694 70.6225 39.8935 70.3679 39.6645C69.8796 39.274 69.3239 38.9763 68.7283 38.7859C68.4686 38.7041 68.1923 38.6897 67.9255 38.7442C67.6588 38.7986 67.4102 38.9201 67.2034 39.0972C66.8676 39.4541 66.569 39.8442 66.3123 40.2615C66.1442 40.5101 65.9588 40.7466 65.7574 40.9691C65.6147 41.1421 65.4282 41.2738 65.2174 41.3504C65.1916 41.3543 65.1673 41.3652 65.1473 41.3819C65.1232 41.3978 65.1041 41.4202 65.0921 41.4465C65.0802 41.4727 65.0758 41.5018 65.0796 41.5304V41.5524C65.0796 41.5601 65.0796 41.5655 65.0843 41.572C65.0938 41.6094 65.1163 41.642 65.1479 41.6641L65.1705 41.676C65.1787 41.6815 65.1875 41.6863 65.1966 41.6902C65.8522 41.8012 66.4812 42.0344 67.0507 42.3776C67.3065 42.5817 67.5509 42.7998 67.7826 43.031C67.9564 43.2352 68.1769 43.3946 68.4253 43.4956C69.6354 43.8918 70.4796 42.614 71.1218 41.8197C71.3119 41.5821 71.5067 41.3516 71.7159 41.1348C71.8848 40.9326 72.0964 40.7703 72.3355 40.6595C72.3797 40.6473 72.4172 40.6181 72.4398 40.5782C72.4624 40.5383 72.4683 40.4911 72.4561 40.4469C72.4438 40.4027 72.4146 40.3651 72.3747 40.3425C72.3348 40.3199 72.2876 40.3141 72.2434 40.3263L72.2511 40.3209ZM68.9368 39.6514C68.4948 39.6904 68.0839 39.8952 67.7867 40.2247C67.6364 40.3892 67.3923 40.1439 67.5426 39.9805C67.9051 39.5872 68.4034 39.3462 68.9368 39.3063C69.159 39.2873 69.1572 39.633 68.9368 39.6514ZM50.0647 46.201C48.9697 46.5392 47.9005 46.9561 46.8656 47.4485C46.3635 47.6851 45.8934 47.9846 45.4666 48.3396C45.1352 48.5975 44.8986 48.9578 44.7935 49.3643C44.7667 49.6172 44.8045 49.8727 44.9034 50.1069C45.0024 50.3411 45.1591 50.5463 45.3591 50.7034C45.6576 50.9997 46.0477 51.186 46.4658 51.2321C46.8605 51.2445 47.2481 51.1245 47.5666 50.8911C48.4 50.2257 49.0524 49.361 49.4635 48.377C49.7751 47.7411 50.0467 47.0864 50.2767 46.4166C50.2884 46.372 50.2819 46.3247 50.2587 46.2848C50.2356 46.245 50.1977 46.2159 50.1532 46.2039C50.1244 46.1952 50.0939 46.1942 50.0647 46.201ZM46.8971 48.2932C46.3647 48.572 45.9329 49.0103 45.6621 49.5467C45.5617 49.7451 45.2634 49.5699 45.365 49.3727C45.6645 48.7838 46.1395 48.3024 46.7242 47.995C46.9215 47.8911 47.0955 48.1893 46.8971 48.2932Z" fill="#2563EB"/>
<path d="M65.2661 59.8787C65.2376 59.5058 65.1199 59.1452 64.923 58.8273C64.726 58.5094 64.4556 58.2435 64.1344 58.0519C64.128 58.0494 64.1214 58.0474 64.1148 58.046H64.1082C64.0751 58.033 64.0386 58.0311 64.0043 58.0407L63.9894 58.046C63.9606 58.055 63.9349 58.0721 63.9156 58.0953C63.8962 58.1185 63.8839 58.1467 63.8801 58.1767V58.1904C63.8798 58.1947 63.8798 58.1991 63.8801 58.2034L63.8498 61.2058C63.9062 61.3514 63.9561 61.4975 64.0019 61.6442C64.023 61.6487 64.0449 61.6487 64.066 61.6442C64.4444 61.5425 64.7736 61.3083 64.9938 60.9843C65.2141 60.6602 65.3107 60.2679 65.2661 59.8787ZM67.8954 55.8717C67.7959 55.6762 67.6579 55.5029 67.4897 55.3622C67.3214 55.2215 67.1264 55.1164 66.9164 55.0531C66.5394 54.964 66.1444 54.989 65.7817 55.125C65.5147 55.2351 65.2808 55.4125 65.1028 55.6401C64.9249 55.8676 64.809 56.1373 64.7664 56.423C64.6518 56.9469 64.6999 57.4932 64.9043 57.989C65.0067 58.1904 65.1485 58.3693 65.3212 58.515C65.494 58.6607 65.6942 58.7703 65.91 58.8373C66.1387 58.9007 66.3796 58.9056 66.6106 58.8517C66.8417 58.7977 67.0555 58.6865 67.2324 58.5284C67.6256 58.2247 67.9049 57.7972 68.0252 57.3152C68.1455 56.8331 68.0998 56.3246 67.8954 55.8717ZM110.699 84.3457C110.353 83.1913 109.977 82.0465 109.57 80.9115C109.524 80.7837 109.473 80.6578 109.426 80.5301C109.094 79.626 108.734 78.7325 108.347 77.8509C107.55 75.9629 106.524 74.1798 105.293 72.5411C104.321 71.1968 103.017 70.1267 101.509 69.4348C101.489 69.5508 101.465 69.6653 101.438 69.7781C101.379 70.0507 101.275 70.3116 101.131 70.5504C100.874 70.9439 100.548 71.2883 100.17 71.5675C99.2039 72.2601 98.1218 72.774 96.9747 73.0847C95.6643 73.4769 94.3156 73.7274 92.9517 73.832C91.5679 73.9824 90.1682 73.8771 88.8224 73.5213C87.7169 73.2081 86.6951 72.6524 85.8313 71.8948C85.2078 71.3786 84.7356 70.7032 84.465 69.9403C84.44 69.8583 84.4222 69.7734 84.4008 69.6902C84.3723 69.5785 84.3414 69.468 84.3176 69.3546C83.4551 69.6789 82.6318 70.0989 81.863 70.6069C79.3483 72.2619 77.4253 74.6435 75.658 77.0429C75.0734 77.8366 74.5055 78.6469 73.9073 79.4305C73.8354 79.5243 73.7617 79.6164 73.6887 79.7103C73.5895 79.8368 73.4926 79.9657 73.3916 80.0911C72.6228 81.1564 71.5573 81.9717 70.3281 82.4352C68.13 83.1481 66.2736 81.5388 65.5756 79.5499C65.2486 78.5153 65.0529 77.4437 64.9928 76.3604C64.8892 75.2546 64.8614 74.1431 64.9096 73.0336C64.9402 72.3984 65.0068 71.7655 65.1092 71.138V71.1148C65.0964 71.1467 65.0745 71.1741 65.0462 71.1935C65.0178 71.213 64.9844 71.2236 64.95 71.2241C64.1109 71.1932 63.2711 71.189 62.4318 71.2116C59.4698 71.2871 56.5232 71.6275 53.5731 71.8835C53.5549 71.8862 53.5363 71.8852 53.5185 71.8807C53.5006 71.8762 53.4838 71.8682 53.4691 71.8571C53.4543 71.8461 53.4419 71.8322 53.4326 71.8164C53.4232 71.8005 53.4171 71.7829 53.4145 71.7647C53.4062 71.7417 53.4032 71.7171 53.4056 71.6928C53.4056 71.6982 53.3973 71.7005 53.3961 71.7065C52.2591 76.317 51.4292 81.281 52.783 85.9343C53.3582 87.9764 54.3492 89.8775 55.6939 91.5185C57.1392 93.2293 59.0082 94.5309 61.1142 95.2931C63.6957 96.1627 66.411 96.5682 69.134 96.4908H113.261C113.307 96.4892 113.351 96.4698 113.383 96.4365C113.415 96.4032 113.433 96.3588 113.433 96.3125C113.433 96.2991 113.431 96.2858 113.428 96.2727C112.762 92.2451 111.851 88.262 110.699 84.3457ZM101.028 93.1509L101.147 84.4776C101.149 84.4336 101.169 84.3922 101.201 84.362C101.233 84.3317 101.275 84.3149 101.319 84.3149C101.363 84.3149 101.406 84.3317 101.438 84.362C101.47 84.3922 101.489 84.4336 101.492 84.4776L101.458 86.9614L101.339 95.6347C101.339 95.6806 101.32 95.7245 101.288 95.7569C101.256 95.7894 101.212 95.8076 101.166 95.8076C101.12 95.8076 101.076 95.7894 101.044 95.7569C101.011 95.7245 100.993 95.6806 100.993 95.6347L101.028 93.1509ZM73.4403 56.2816C73.384 56.2389 73.3244 56.2005 73.2621 56.167C73.2235 56.1474 73.1819 56.1343 73.1433 56.1183C72.8421 56.007 72.5175 55.9744 72.2001 56.0234C71.8828 56.0725 71.5832 56.2016 71.3296 56.3987C71.0402 56.6423 70.8288 56.9656 70.7217 57.3284C70.6146 57.6912 70.6165 58.0775 70.7273 58.4393C70.8604 58.7421 71.0882 58.9936 71.3765 59.1559C71.6647 59.3182 71.9979 59.3825 72.3259 59.3393C72.3449 59.3363 72.3639 59.3393 72.3853 59.3339C72.7349 59.2433 73.0567 59.0679 73.3224 58.8232C73.588 58.5786 73.7893 58.2723 73.9085 57.9314C74.0259 57.6436 74.0436 57.3248 73.9588 57.0258C73.8739 56.7268 73.6914 56.4648 73.4403 56.2816ZM69.3597 52.2432C69.1034 52.1985 68.8401 52.2172 68.5926 52.2975C68.3452 52.3779 68.1211 52.5175 67.9399 52.7042C67.8456 52.8019 67.7618 52.9092 67.6898 53.0244C67.6649 53.0636 67.6375 53.1004 67.615 53.1432C67.4468 53.4073 67.372 53.7202 67.4025 54.0318C67.433 54.3434 67.567 54.6359 67.7831 54.8624C67.8945 54.9713 68.0207 55.0639 68.1579 55.1375C68.2738 55.1986 68.3959 55.247 68.5221 55.2818C68.7736 55.3622 69.0412 55.379 69.3008 55.3308C69.5604 55.2826 69.8041 55.1708 70.01 55.0055C70.2159 54.8402 70.3777 54.6265 70.4808 54.3834C70.584 54.1403 70.6254 53.8755 70.6013 53.6125C70.5862 53.2754 70.4539 52.9541 70.2272 52.7042C70.0006 52.4542 69.6938 52.2912 69.3597 52.2432Z" fill="#1E40AF"/>
<path d="M53.5705 71.8816C56.5206 71.6268 59.4671 71.2876 62.4291 71.2098C63.2687 71.1872 64.1087 71.1913 64.948 71.2222C64.9822 71.2217 65.0156 71.2111 65.0438 71.1916C65.0721 71.1722 65.0939 71.1448 65.1066 71.1129C65.1097 71.1075 65.1123 71.1017 65.1143 71.0957C65.3951 68.9584 66.4203 66.9885 68.0098 65.5323C68.4316 65.2435 68.8272 64.9181 69.1919 64.5598C69.4777 64.2033 69.6927 63.7954 69.8252 63.358C69.8418 63.3075 69.8543 63.2565 69.8692 63.2054C69.7608 63.1269 69.6631 63.0347 69.5787 62.9309C69.5543 63.026 69.5365 63.1234 69.508 63.2167C69.3864 63.648 69.1734 64.0481 68.8836 64.3899C68.5161 64.7271 68.1271 65.0402 67.7193 65.3274C66.9338 66.0112 66.2882 66.8407 65.8183 67.7701C65.3325 68.75 64.9923 69.7955 64.8084 70.8735C61.8878 70.8327 58.9676 70.9779 56.0655 71.3084C55.3107 71.3789 54.5552 71.4478 53.7992 71.5151C54.3504 69.2481 55.0855 67.0299 55.9972 64.8824C56.2162 64.3806 56.4521 63.8856 56.7047 63.3972L61.7917 64.7149L62.4755 64.8931C62.4517 64.8646 62.4268 64.8373 62.4036 64.8076C62.2693 64.6293 62.5693 64.4582 62.7006 64.6335L62.7256 64.6632C62.718 64.6469 62.708 64.6319 62.6959 64.6186C62.355 64.1944 62.1139 63.699 61.9905 63.169C61.8671 62.639 61.8645 62.088 61.983 61.5568C62.0209 61.2822 62.1171 61.0189 62.2652 60.7846C62.3531 60.6663 62.4844 60.5878 62.6302 60.5662C62.7759 60.5446 62.9243 60.5817 63.0428 60.6693C63.5733 60.9883 63.622 61.7386 63.8198 62.2673C64.1685 63.2006 64.9052 64.201 66.0303 64.018C67.1703 63.8327 67.8125 62.625 68.1149 61.6258C68.388 60.4617 68.5234 59.2695 68.5183 58.0739C68.9045 58.3288 69.2267 58.6693 69.46 59.0689C69.6932 59.4686 69.8312 59.9166 69.8632 60.3782C69.8632 60.5125 69.8549 60.6485 69.8502 60.784C69.9585 60.7019 70.0759 60.6325 70.2001 60.5772L70.206 60.4584C70.1866 59.9187 70.0368 59.3916 69.7692 58.9224C69.5017 58.4533 69.1244 58.0559 68.6698 57.7643C68.5979 57.715 68.526 57.6628 68.4517 57.62C68.4155 57.5999 68.3729 57.5948 68.3329 57.6057C68.2956 57.6149 68.2622 57.6357 68.2375 57.665C68.2127 57.6944 68.1979 57.7308 68.1951 57.7691C68.1844 58.9578 68.0685 60.1432 67.8488 61.3115C67.7174 61.8626 67.4856 62.3848 67.165 62.8519C67.0074 63.1052 66.789 63.3151 66.5296 63.4625C66.2702 63.6099 65.9781 63.6902 65.6798 63.6961C65.4178 63.6553 65.1694 63.5524 64.9554 63.3958C64.7414 63.2392 64.5682 63.0335 64.4501 62.7961C64.2529 62.4315 64.1003 62.0446 63.9957 61.6436C63.9499 61.4958 63.8992 61.3495 63.8436 61.2052C63.8382 61.1915 63.8347 61.1772 63.8293 61.1636C63.763 60.9989 63.6742 60.8442 63.5656 60.7038C63.4602 60.545 63.3148 60.4167 63.1441 60.3319C62.9734 60.2471 62.7833 60.2088 62.5931 60.2208C61.999 60.2832 61.7691 60.9105 61.6616 61.4149C61.4312 62.4507 61.6026 63.5355 62.141 64.4499L57.3986 63.2214L56.6602 63.0307C56.6376 63.0276 56.6145 63.029 56.5925 63.0349C56.5668 63.0363 56.5419 63.0438 56.5198 63.0568C56.4977 63.0698 56.479 63.088 56.4653 63.1097C56.4279 63.181 56.3935 63.2535 56.3566 63.3254C55.3647 65.3239 54.5658 67.4126 53.9709 69.563C53.7677 70.2593 53.5786 70.9593 53.4035 71.663C53.4006 71.6971 53.4032 71.7314 53.4113 71.7646C53.414 71.7828 53.4203 71.8002 53.4298 71.8159C53.4393 71.8316 53.4518 71.8453 53.4666 71.8561C53.4814 71.867 53.4982 71.8749 53.516 71.8792C53.5338 71.8836 53.5523 71.8844 53.5705 71.8816Z" fill="#2563EB"/>
<path d="M101.87 65.0326C101.879 63.633 101.837 62.2328 101.858 60.8326C101.863 60.5165 101.873 60.2005 101.883 59.8821C101.774 60.1238 101.654 60.3599 101.522 60.5896C101.495 62.9748 101.63 65.3694 101.39 67.7445C101.354 68.1009 101.31 68.4574 101.258 68.8138C101.221 69.141 101.165 69.4659 101.091 69.7869C100.978 70.1757 100.77 70.5302 100.485 70.8188C99.7102 71.5638 98.7757 72.1229 97.7527 72.4536C96.524 72.9029 95.2486 73.2124 93.9507 73.3762C92.6017 73.5927 91.2277 73.6035 89.8754 73.4083C88.6977 73.2146 87.5787 72.7582 86.6015 72.0728C85.8933 71.5928 85.3167 70.9429 84.9245 70.1825C84.7309 69.6917 84.6048 69.1769 84.5496 68.6522C84.4194 67.8743 84.3353 67.0894 84.2978 66.3015C84.2621 65.5886 84.2627 64.8758 84.2758 64.1629C84.1604 64.0936 84.0467 64.0215 83.9348 63.9467C83.9226 64.4293 83.919 64.9122 83.9241 65.395C83.9325 66.1666 83.9805 66.9374 84.0679 67.7041C84.1314 68.2471 84.1985 68.8096 84.3138 69.3532C84.3381 69.4667 84.3685 69.5772 84.397 69.6889C84.4184 69.772 84.4362 69.857 84.4611 69.939C84.7318 70.7018 85.2039 71.3772 85.8275 71.8934C86.6913 72.6511 87.7131 73.2067 88.8186 73.52C90.1643 73.8758 91.564 73.9811 92.9479 73.8307C94.3117 73.726 95.6605 73.4755 96.9709 73.0833C98.118 72.7726 99.2 72.2587 100.166 71.5661C100.544 71.287 100.87 70.9425 101.128 70.5491C101.271 70.3102 101.375 70.0493 101.434 69.7768C101.461 69.6639 101.485 69.5495 101.505 69.4334C101.526 69.3146 101.545 69.1881 101.565 69.0633C101.763 67.7288 101.865 66.3817 101.87 65.0326Z" fill="#2563EB"/>
<path d="M72.1468 61.1857C72.0655 61.0623 71.9674 60.951 71.8551 60.8548C71.7639 60.7759 71.6643 60.7071 71.5581 60.6499C71.2226 60.4618 70.829 60.4057 70.4543 60.4925C70.3684 60.5145 70.2843 60.5435 70.203 60.5792C70.0789 60.6345 69.9615 60.7038 69.8531 60.7859C69.6209 60.9409 69.4382 61.1596 69.327 61.4157C69.2159 61.6718 69.1809 61.9546 69.2264 62.2301C69.2935 62.4854 69.414 62.7235 69.5799 62.9287C69.6643 63.0325 69.762 63.1248 69.8704 63.2032C70.0268 63.318 70.2045 63.4005 70.3931 63.4461C70.5374 63.4793 70.6854 63.4937 70.8333 63.4889C70.9566 63.4853 71.0792 63.4682 71.1987 63.4378C71.4269 63.3775 71.6382 63.2657 71.8165 63.1109C71.9947 62.9562 72.1351 62.7626 72.2269 62.5452C72.3187 62.3277 72.3594 62.0921 72.3459 61.8564C72.3325 61.6208 72.2652 61.3913 72.1492 61.1857H72.1468Z" fill="#1E40AF"/>
<path d="M104.858 52.0844C103.769 52.1266 102.954 52.9351 102.304 53.7478C101.684 51.6086 100.463 49.6922 98.7862 48.2266C98.1958 47.6854 97.5367 47.2244 96.8258 46.8555C96.1001 46.4895 95.34 46.1962 94.5565 45.9799C92.745 45.4647 90.8468 45.3276 88.98 45.5771C87.9806 45.7143 87.0041 45.9853 86.0769 46.3826C85.1172 46.8071 84.2201 47.361 83.4107 48.0288C82.6131 48.6602 81.9125 49.4054 81.3315 50.2405C80.7636 51.082 80.3558 52.0211 80.1285 53.0106C79.6746 54.9416 79.7293 56.9573 80.2871 58.8609C80.8172 60.7392 81.9265 62.4024 83.4571 63.6134C83.6115 63.7322 83.7749 63.8362 83.9365 63.9431C84.0493 64.0174 84.1616 64.091 84.2774 64.1594C85.9246 65.0708 87.7577 65.5949 89.6377 65.692C92.0611 65.9303 94.5063 65.5815 96.7664 64.675C98.713 63.873 100.357 62.478 101.466 60.6882C101.486 60.6556 101.503 60.6217 101.521 60.5884C101.653 60.3588 101.774 60.1226 101.882 59.8809C101.97 59.6843 102.049 59.4835 102.122 59.2809C104.044 59.8156 105.901 58.6762 106.82 57.014C106.902 56.8662 106.976 56.7143 107.042 56.5589C107.125 56.3699 107.195 56.1756 107.252 55.9773C107.447 55.3191 107.453 54.6193 107.271 53.9575C107.159 53.6003 106.976 53.2691 106.734 52.9834C106.492 52.6977 106.195 52.4634 105.862 52.2942C105.734 52.2326 105.601 52.1834 105.465 52.1474C105.267 52.0967 105.062 52.0755 104.858 52.0844ZM106.937 54.0532C107.085 54.7259 107.059 55.4251 106.863 56.0853C106.666 56.7454 106.306 57.3448 105.814 57.8272C105.359 58.3491 104.762 58.7288 104.097 58.9207C103.431 59.1127 102.725 59.1088 102.061 58.9096C102.017 58.8987 101.971 58.905 101.931 58.927C101.892 58.9491 101.862 58.9853 101.849 59.0284C101.123 61.0173 99.7138 62.6831 97.8726 63.7281C95.8761 64.846 93.6223 65.423 91.3343 65.4021C89.13 65.4998 86.9347 65.0645 84.9345 64.1332C83.1977 63.2285 81.827 61.7512 81.0547 59.9516C80.3048 58.2081 80.0235 56.2989 80.2384 54.4132C80.3289 53.4417 80.5733 52.4908 80.9626 51.5961C81.3771 50.7065 81.9423 49.8951 82.6331 49.1979C84.0333 47.7409 85.8044 46.6934 87.7557 46.1682C89.5651 45.7187 91.4512 45.6725 93.2805 46.0327C94.7953 46.2863 96.2436 46.8425 97.5387 47.6682C98.3584 48.2407 99.0963 48.9222 99.732 49.6939C100.478 50.5518 101.09 51.5175 101.547 52.5585C101.765 53.0774 101.937 53.614 102.063 54.1625C102.073 54.1944 102.092 54.2229 102.118 54.2444C102.143 54.266 102.174 54.2798 102.208 54.2841C102.241 54.2885 102.274 54.2833 102.305 54.2691C102.335 54.2549 102.361 54.2323 102.379 54.2041C102.973 53.4318 103.75 52.4985 104.801 52.429C105.286 52.4282 105.758 52.5867 106.144 52.8801C106.53 53.1735 106.81 53.5856 106.939 54.0532H106.937Z" fill="#2563EB"/>
<path d="M104.557 55.5304L102.405 56.9413C102.22 57.0601 102.393 57.3619 102.579 57.2383L104.732 55.8274C104.917 55.7074 104.744 55.408 104.557 55.5304ZM98.5155 54.6316C98.5469 54.9858 98.4959 55.3424 98.3664 55.6736C98.2635 55.8314 98.106 55.9458 97.924 55.9948C97.7421 56.0437 97.5485 56.0239 97.3802 55.9391C96.8533 55.7437 96.7345 55.1294 96.7345 54.6322C96.7345 54.5863 96.7163 54.5424 96.6839 54.5099C96.6514 54.4775 96.6075 54.4593 96.5616 54.4593C96.5158 54.4593 96.4718 54.4775 96.4394 54.5099C96.407 54.5424 96.3887 54.5863 96.3887 54.6322C96.3704 54.8827 96.4027 55.1343 96.4837 55.372C96.5647 55.6097 96.6929 55.8287 96.8604 56.0158C96.9875 56.1444 97.1429 56.2416 97.3142 56.2997C97.4855 56.3577 97.668 56.375 97.8472 56.3501C98.0263 56.3253 98.1972 56.259 98.3462 56.1565C98.4952 56.054 98.6183 55.9181 98.7056 55.7597C98.8329 55.3978 98.8857 55.0138 98.8606 54.631C98.858 54.587 98.8387 54.5456 98.8067 54.5154C98.7746 54.4851 98.7322 54.4683 98.6881 54.4683C98.644 54.4683 98.6015 54.4851 98.5695 54.5154C98.5374 54.5456 98.5181 54.587 98.5155 54.631V54.6316ZM85.4378 50.3823C85.4815 50.3929 85.5276 50.3861 85.5664 50.3633C85.6051 50.3405 85.6335 50.3034 85.6454 50.2601C85.6573 50.2167 85.6518 50.1704 85.6302 50.131C85.6085 50.0916 85.5723 50.0622 85.5293 50.049C85.0406 49.9063 84.5219 49.9013 84.0305 50.0345C83.5391 50.1677 83.094 50.434 82.7443 50.804C82.5934 50.9662 82.837 51.211 82.9891 51.0482C83.2954 50.7212 83.6866 50.4858 84.119 50.3682C84.5514 50.2506 85.008 50.2554 85.4378 50.3823ZM95.0378 58.2073C95.0099 58.1852 94.9754 58.1729 94.9398 58.1722C92.14 58.1253 89.3408 58.2191 86.5416 58.1722C86.5185 58.1724 86.4958 58.1772 86.4746 58.1864C86.4535 58.1955 86.4343 58.2087 86.4184 58.2253C86.4024 58.2419 86.3898 58.2615 86.3815 58.283C86.3732 58.3045 86.3692 58.3274 86.3699 58.3504C86.3699 58.3797 86.3777 58.4083 86.3924 58.4336C87.3043 59.9187 88.7687 61.4431 90.6245 61.5162C91.3405 61.5563 92.0553 61.4209 92.707 61.1219C93.3588 60.8229 93.9276 60.3693 94.3642 59.8005C94.682 59.3719 94.9322 58.8971 95.1062 58.3926C95.1206 58.3588 95.1216 58.3208 95.1089 58.2863C95.0962 58.2519 95.0708 58.2236 95.0378 58.2073ZM98.2719 51.1979C98.4056 51.372 98.7056 51.1979 98.5689 51.0238C98.2611 50.6229 97.8373 50.3264 97.3551 50.1746C96.8729 50.0228 96.3557 50.0232 95.8737 50.1755C95.6634 50.2444 95.7549 50.5783 95.9652 50.5082C96.3742 50.3748 96.8141 50.3694 97.2263 50.4926C97.6385 50.6159 98.0033 50.8619 98.2719 51.1979ZM85.3107 54.6957C85.3427 55.0499 85.2917 55.4067 85.1616 55.7377C85.0588 55.8956 84.9015 56.01 84.7196 56.059C84.5377 56.1081 84.3441 56.0882 84.176 56.0033C83.6491 55.8084 83.5297 55.1936 83.5297 54.6963C83.5271 54.6523 83.5078 54.611 83.4757 54.5807C83.4436 54.5504 83.4012 54.5336 83.3571 54.5336C83.313 54.5336 83.2706 54.5504 83.2385 54.5807C83.2064 54.611 83.1871 54.6523 83.1845 54.6963C83.166 54.9468 83.1982 55.1984 83.2791 55.4361C83.36 55.6738 83.4881 55.8928 83.6556 56.0799C83.7827 56.2087 83.9381 56.306 84.1094 56.3641C84.2807 56.4222 84.4632 56.4396 84.6424 56.4147C84.8216 56.3898 84.9925 56.3235 85.1415 56.2209C85.2906 56.1183 85.4136 55.9824 85.5008 55.8239C85.6281 55.4619 85.681 55.078 85.6564 54.6952C85.6564 54.6493 85.6382 54.6053 85.6058 54.5729C85.5734 54.5405 85.5294 54.5223 85.4835 54.5223C85.4377 54.5223 85.3937 54.5405 85.3613 54.5729C85.3289 54.6053 85.3107 54.6493 85.3107 54.6952V54.6957ZM23.1183 47.147C21.9064 47.2892 20.6907 47.3882 19.4713 47.444C19.2497 47.4541 19.2485 47.8005 19.4713 47.7892C21.6726 47.6861 23.8654 47.4462 26.0369 47.071C28.4014 46.6557 30.7434 46.1214 33.054 45.47C34.4756 45.073 35.8891 44.6478 37.2938 44.1945L37.4215 44.1547C37.6324 44.0864 37.5403 43.7531 37.3294 43.8214H37.3235C34.8605 44.6145 32.3744 45.341 29.8549 45.9345C27.6343 46.4666 25.3851 46.8714 23.1183 47.147Z" fill="#2563EB"/>
<path d="M44.6174 54.0693L44.4689 54.1715C44.4499 54.2824 44.4368 54.3943 44.4297 54.5066V54.6087C46.6018 53.0972 48.6519 51.4173 50.561 49.5848C52.66 47.5743 54.5938 45.3981 56.3436 43.0774C56.22 43.119 56.0965 43.1594 55.9741 43.2051C55.8921 43.2354 55.8125 43.2699 55.7317 43.3014C54.2917 45.1757 52.7299 46.9532 51.0565 48.6224C49.065 50.6136 46.9112 52.4355 44.6174 54.0693Z" fill="#2563EB"/>
<path d="M44.4672 54.1703C44.6955 53.1625 45.1643 52.2249 45.8336 51.4377C45.9666 51.2594 45.6666 51.0872 45.5365 51.2636C44.8279 52.0966 44.3393 53.0939 44.1155 54.1644C44.1031 54.2529 44.0995 54.3426 44.0936 54.4294C44.0848 54.5678 44.0836 54.7066 44.09 54.8452C44.1625 55.717 44.4362 56.5601 44.8896 57.3082C45.3348 58.1344 46.0663 58.7697 46.9469 59.0945C47.8112 59.3818 48.7319 59.4572 49.6314 59.3143C50.6614 59.1735 51.6589 58.854 52.5792 58.3704C52.5881 58.3643 52.5965 58.3573 52.6041 58.3496V58.0989C52.5786 58.0735 52.5454 58.0571 52.5097 58.0522C52.474 58.0474 52.4377 58.0544 52.4063 58.0722C50.8984 58.9294 49.133 59.2169 47.431 58.8825C46.6143 58.685 45.8979 58.1959 45.4165 57.5072C44.8023 56.6618 44.4583 55.6504 44.4298 54.6058V54.5036C44.4364 54.3919 44.4489 54.2807 44.4672 54.1703Z" fill="#2563EB"/>
<path d="M43.0553 55.4943C41.9356 56.1573 40.7871 56.7684 39.6097 57.3276C38.4707 57.8677 37.3057 58.351 36.119 58.7759C32.4371 60.0995 28.5524 60.7702 24.6399 60.7577C23.21 60.7577 21.7825 60.6633 20.3627 60.5201C19.307 60.4149 18.2543 60.2724 17.1963 60.1928C16.9759 60.1761 16.9747 59.8304 17.1963 59.847C17.305 59.8553 17.4143 59.8643 17.5231 59.8744C18.6221 59.9724 19.7169 60.1167 20.8153 60.2183C22.2651 60.3579 23.7212 60.4209 25.1775 60.4072C26.9776 60.3851 28.7728 60.2166 30.5455 59.9035C32.6668 59.5227 34.7475 58.9429 36.76 58.1718C39.1446 57.2503 41.4371 56.1062 43.6071 54.7547L43.6404 54.7345C43.1814 54.0011 42.7323 53.2611 42.2931 52.5145C42.1743 52.3143 42.059 52.1129 41.9414 51.9121C41.2208 50.6783 40.5079 49.4391 39.7588 48.2218C38.936 46.884 38.0497 45.5759 37.3006 44.1941C35.8957 44.6474 34.482 45.0727 33.0602 45.4695C30.7483 46.1218 28.4049 46.6567 26.0389 47.0723C23.8674 47.4479 21.6747 47.6882 19.4734 47.7917C19.2506 47.8024 19.2518 47.4567 19.4734 47.4466C20.692 47.3907 21.9076 47.2917 23.1203 47.1495C25.3877 46.8742 27.6375 46.4696 29.8588 45.9377C32.3782 45.3436 34.8643 44.6176 37.3273 43.8246C38.5357 43.3202 39.7057 42.7286 40.8281 42.0543C40.9547 41.9776 41.077 41.8962 41.2012 41.8166C41.301 41.7531 41.402 41.6913 41.4982 41.6265C41.1836 40.6342 40.764 39.6783 40.2465 38.775C39.4806 37.4583 38.544 36.2486 37.461 35.1774C36.3928 34.1332 35.1467 33.2882 33.7814 32.6823C33.7089 32.7751 33.6316 32.864 33.5497 32.9485C33.1432 33.3711 32.6345 33.6815 32.0728 33.8497C29.5184 34.6124 26.7031 35.1923 24.0631 34.4776C22.8682 34.1277 21.7556 33.5419 20.791 32.7548C20.2821 32.3879 19.8216 31.9582 19.4205 31.4758C19.0923 31.0318 18.8835 30.511 18.8139 29.9633C18.8086 29.9271 18.7991 29.892 18.7955 29.8558C18.7866 29.778 18.7878 29.6984 18.7848 29.6182C18.7617 29.6182 18.7379 29.6182 18.7141 29.6229C16.0554 29.9057 13.5002 30.8086 11.2539 32.2588C8.98694 33.7361 7.00392 35.6089 5.39943 37.7877C4.57115 38.8933 3.82745 40.0598 3.17466 41.2772C2.68575 42.1861 2.26753 43.1224 1.85941 44.0693C1.74951 44.3254 1.64258 44.5814 1.54634 44.8416C1.06097 46.1783 0.749694 47.572 0.620195 48.9882C0.531242 49.9441 0.545183 50.9069 0.661779 51.8599C0.791196 52.9182 1.06939 53.953 1.48812 54.9335C1.96506 56.0299 2.6216 57.039 3.4307 57.9193C4.4052 58.9639 5.53907 59.8476 6.79013 60.5373C8.40884 61.4247 10.1335 62.1034 11.9228 62.5571C14.2902 63.162 16.7084 63.5468 19.1466 63.7066C22.2214 63.9871 25.3172 63.9395 28.3819 63.5647C30.8602 63.2644 33.263 62.5152 35.4726 61.3536C37.1966 60.4192 38.6975 59.1221 39.8717 57.5516C39.9294 57.4619 39.9916 57.3753 40.0582 57.292C40.2037 57.1755 40.3662 57.0819 40.54 57.0145C40.9143 56.8133 41.2851 56.6058 41.6527 56.392C42.4285 55.9405 43.1885 55.4636 43.9327 54.9615L43.9392 54.9555C43.6458 55.1389 43.3511 55.3185 43.0553 55.4943Z" fill="#1E40AF"/>
<path d="M62.5847 20.915C62.3808 20.6478 62.1564 20.3969 61.9134 20.1647C61.6377 19.9105 61.2272 19.7281 60.9308 20.0614C60.7193 20.3824 60.6397 20.7727 60.7086 21.1509L60.7734 22.3455C60.7597 22.3075 60.7496 22.2677 60.7359 22.2267C60.5976 21.8442 60.4334 21.4714 60.2447 21.1111C60.0826 20.7714 59.874 20.4559 59.6251 20.1737C59.2134 19.7406 58.466 19.3319 57.9581 19.8618C57.4502 20.3917 57.7924 21.2976 57.8488 21.9285C57.9 22.532 57.8814 23.1394 57.7936 23.7386C57.748 22.5954 57.3982 21.4851 56.7801 20.5224C56.6956 20.3818 56.582 20.261 56.447 20.168C56.3119 20.0749 56.1585 20.0119 55.9971 19.983C55.8732 19.9724 55.7486 19.9923 55.6341 20.0408C55.5196 20.0894 55.4186 20.1652 55.3401 20.2616C55.0283 20.7364 54.8944 21.3063 54.9623 21.8703C54.978 23.2653 54.6731 24.6454 54.0712 25.904C53.446 27.1364 52.3685 28.0794 51.064 28.5357C50.5709 28.7075 50.054 28.8011 49.5319 28.8131C49.4351 28.8131 49.3383 28.8072 49.2408 28.803C49.1814 28.803 49.1161 28.803 49.0537 28.7965H49.0484L48.9795 28.7887H48.9604C48.9444 28.7887 48.9284 28.784 48.9129 28.781C48.8617 28.7724 48.8092 28.7843 48.7668 28.8143C48.7314 28.8355 48.706 28.8699 48.6959 28.9099C48.6859 28.9499 48.6922 28.9922 48.7133 29.0276L48.7175 29.0347C49.3227 29.916 49.859 30.8427 50.3214 31.8066C48.9599 33.9487 47.4415 35.987 45.7786 37.9046C44.5158 39.3228 43.0787 40.5755 41.5014 41.633C41.4034 41.6977 41.3024 41.7595 41.2044 41.8231C41.0802 41.9021 40.9578 41.9835 40.8313 42.0607C39.7089 42.735 38.5389 43.3267 37.3305 43.831H37.337C37.5491 43.7627 37.6394 44.096 37.4285 44.1643L37.3008 44.2041C38.0499 45.5859 38.9362 46.894 39.759 48.2318C40.5081 49.4491 41.221 50.6877 41.9422 51.9221C42.061 52.1229 42.1757 52.3237 42.2933 52.5245C42.7325 53.2707 43.1816 54.0107 43.6406 54.7445L43.7909 54.653C43.9804 54.5342 44.1533 54.8342 43.965 54.9501C44.0095 54.9204 44.0517 54.8877 44.0957 54.8574C44.0892 54.7188 44.0904 54.58 44.0992 54.4415C44.0398 54.4802 43.987 54.52 43.9305 54.5604C43.0988 53.2273 42.3069 51.8681 41.5157 50.5095C40.678 49.0724 39.8101 47.6579 38.9267 46.2471C38.4794 45.5342 38.0297 44.8213 37.6251 44.0823C40.0342 43.0833 42.2622 41.694 44.2192 39.9702C46.269 38.0241 48.0823 35.8434 49.6216 33.4729C49.8878 33.0852 50.1511 32.6951 50.4117 32.3026C50.5169 32.144 50.7355 31.9373 50.669 31.7395C50.584 31.5219 50.4848 31.3101 50.3719 31.1056C50.027 30.4319 49.6405 29.7804 49.2147 29.1547C49.6535 29.1752 50.093 29.137 50.5216 29.0412C51.7804 28.764 52.91 28.0727 53.7296 27.0778C54.5291 26.0095 55.0319 24.7486 55.1868 23.4232C55.2724 22.8043 55.3133 22.1802 55.3092 21.5554C55.3133 21.1711 55.4185 20.2527 55.9858 20.3251C56.3809 20.3756 56.6328 20.8931 56.7949 21.2055C56.9867 21.5829 57.1329 21.9818 57.2304 22.3937C57.4139 23.2423 57.5179 24.1063 57.5411 24.9743C57.5423 25.0154 57.5581 25.0547 57.5856 25.0852C57.6131 25.1157 57.6506 25.1355 57.6913 25.141C57.732 25.1465 57.7734 25.1373 57.808 25.1152C57.8426 25.093 57.8682 25.0593 57.8803 25.02C58.1049 24.2726 58.2231 23.4972 58.2314 22.7168C58.2344 22.3272 58.2094 21.9379 58.1565 21.5519C58.0889 21.2265 58.0513 20.8956 58.0443 20.5634C58.0329 20.4173 58.0785 20.2726 58.1714 20.1593C58.2642 20.0461 58.3973 19.9731 58.5427 19.9556C58.8458 19.9835 59.1264 20.1276 59.3256 20.3578C59.5515 20.5992 59.7396 20.8734 59.8835 21.1711C60.0693 21.5117 60.2312 21.8649 60.3682 22.2279C60.6623 23.0112 60.841 23.8331 60.8987 24.6677C60.9142 24.8881 61.2552 24.8911 61.2445 24.6677L61.0912 21.8323C61.0391 21.4357 61.0275 21.0348 61.0567 20.6358C61.0665 20.5048 61.1172 20.3801 61.2017 20.2794C61.3573 20.1374 61.5492 20.3014 61.6692 20.4119C62.6838 21.3944 63.3452 22.6847 63.5506 24.082C63.6692 25.3319 63.5792 26.5929 63.2845 27.8133C62.7861 30.3135 61.9723 32.7402 60.8625 35.0353C59.6764 37.5171 58.2631 39.8836 56.6405 42.1047C56.4694 42.3423 56.2876 42.5692 56.113 42.8021C56.3046 42.7352 56.4981 42.6714 56.6934 42.6108C58.2707 40.4868 59.6597 38.2294 60.8447 35.864C62.0263 33.5356 62.9158 31.0702 63.493 28.5238C63.5548 28.2406 63.6108 27.9561 63.6611 27.6701C63.7176 27.3541 63.7686 27.0369 63.812 26.7196C63.8714 26.2634 63.9344 25.8006 63.9558 25.3384C63.9635 25.1739 63.9671 25.0093 63.9629 24.8448C63.9258 23.4229 63.4438 22.0486 62.5847 20.915Z" fill="#2563EB"/>
<path d="M43.7877 54.644L43.6374 54.7355L43.6042 54.7557C41.4342 56.1072 39.1416 57.2513 36.757 58.1728C34.7445 58.9435 32.6638 59.5229 30.5425 59.9033C28.7698 60.2165 26.9746 60.3849 25.1746 60.407C23.7182 60.4207 22.2621 60.3577 20.8124 60.2181C19.714 60.1165 18.6191 59.9722 17.5201 59.8742C17.4113 59.8642 17.3023 59.8551 17.1934 59.8468C16.9718 59.8302 16.973 60.1759 17.1934 60.1926C18.2514 60.2722 19.3041 60.4148 20.3597 60.5199C21.7825 60.6613 23.2112 60.7534 24.637 60.7575C28.5506 60.7699 32.4363 60.0989 36.119 58.7746C37.3071 58.351 38.4703 57.865 39.6097 57.3262C40.7859 56.7698 41.9345 56.1587 43.0553 55.493C43.3511 55.3175 43.6452 55.1393 43.9374 54.9583L43.9618 54.9429C44.1501 54.8252 43.9767 54.5264 43.7877 54.644ZM57.4749 28.9526C57.6444 28.621 57.7161 28.2481 57.6817 27.8774C57.6603 27.6582 57.3145 27.6558 57.3359 27.8774C57.3704 28.1866 57.3152 28.4993 57.1767 28.778C57.0781 28.9764 57.3757 29.1516 57.4749 28.9526ZM61.2662 28.7798C61.4601 28.4801 61.582 28.1398 61.6227 27.7853C61.65 27.5649 61.3043 27.5673 61.2769 27.7853C61.2388 28.0784 61.1339 28.3589 60.9704 28.6051C60.8462 28.7922 61.1451 28.9657 61.2662 28.7798ZM64.1682 65.8059C64.3886 65.8296 64.3875 65.4839 64.1682 65.4601C63.888 65.4288 63.6166 65.3423 63.3699 65.2057C63.1232 65.0691 62.9059 64.885 62.7306 64.6641L62.7057 64.6344C62.5726 64.4562 62.2726 64.6308 62.4086 64.8085C62.4318 64.8387 62.4568 64.8679 62.4805 64.894C62.9004 65.4092 63.5072 65.7371 64.1682 65.8059ZM100.995 95.6367C100.997 95.6807 101.017 95.7221 101.049 95.7524C101.081 95.7826 101.123 95.7995 101.167 95.7995C101.211 95.7995 101.254 95.7826 101.286 95.7524C101.318 95.7221 101.337 95.6807 101.34 95.6367L101.459 86.9634L101.493 84.4797C101.491 84.4356 101.471 84.3943 101.439 84.364C101.407 84.3337 101.365 84.3169 101.321 84.3169C101.277 84.3169 101.234 84.3337 101.202 84.364C101.17 84.3943 101.151 84.4356 101.148 84.4797L101.029 93.153L100.995 95.6367ZM12.3601 13.6086C12.9435 11.1603 13.9657 8.83801 15.3773 6.75429C15.7802 6.16022 16.2141 5.58774 16.6771 5.03924C16.8197 4.86993 16.5767 4.62339 16.433 4.79508C14.2994 7.31574 12.7897 10.3036 12.0262 13.5165C11.9757 13.7327 12.3084 13.8248 12.3601 13.6086ZM8.30797 15.8191C8.79004 11.7201 10.3762 7.82893 12.8971 4.56102C13.5991 3.65141 14.3703 2.79738 15.2038 2.00655C15.3654 1.85268 15.1207 1.60912 14.9597 1.76179C13.4496 3.199 12.1428 4.83571 11.0757 6.62657C10.0079 8.41683 9.18529 10.3424 8.62995 12.3515C8.31801 13.4884 8.09477 14.6477 7.96222 15.8191C7.93727 16.0395 8.28361 16.0377 8.30797 15.8191Z" fill="#2563EB"/>
</svg>
