<svg width="96" height="97" viewBox="0 0 96 97" fill="none" xmlns="http://www.w3.org/2000/svg">
<path d="M32.7566 73.0733C33.6269 72.765 34.5184 72.5208 35.4242 72.3424L35.5338 72.7444C35.5461 72.7917 35.575 72.8331 35.6153 72.8609C35.6555 72.8887 35.7045 72.9011 35.7531 72.8958L39.3394 72.4781C40.3261 70.2282 42.1375 66.8194 42.1636 66.7672C42.1375 65.9163 42.1636 65.2011 42.1636 64.3867C40.112 65.1489 36.3169 66.5949 34.3332 67.5189C34.2883 67.5478 34.2536 67.59 34.234 67.6396C34.2143 67.6892 34.2107 67.7438 34.2235 67.7956C34.2235 67.7956 34.2601 67.9261 34.3071 68.114C33.3361 68.114 30.4284 67.973 29.7289 68.636C29.6201 68.7876 29.5667 68.9718 29.5775 69.1581C29.5357 69.8784 29.8959 75.4746 30.4702 77.119C30.7677 77.9803 31.3942 77.8864 31.8222 77.0616C32.3177 75.8194 32.6357 74.5137 32.7671 73.1829C32.7671 73.115 32.7514 73.1202 32.7566 73.0733ZM32.1563 68.4011C32.7932 68.3489 32.9916 68.3593 34.3593 68.3176C34.6046 69.2468 35.111 71.1574 35.372 72.1336C34.451 72.2763 33.5419 72.4874 32.6522 72.7653C32.375 71.3254 32.2092 69.8664 32.1563 68.4011Z" fill="#1E40AF"/>
<path d="M80.8024 22.7135C80.933 22.5307 80.7659 22.2958 80.625 22.1131C81.0242 21.7025 81.467 21.3366 81.9457 21.0221C82.7534 20.6196 83.4917 20.0909 84.133 19.456C84.3992 19.1793 84.9004 18.6103 84.7124 18.2762C84.5245 17.9421 84.1904 17.9212 83.7362 18.1144C83.933 17.9078 84.0936 17.6696 84.2113 17.4097C84.3575 17.0025 84.0129 16.6736 83.2664 16.9764C83.5379 16.5431 83.6005 16.0889 83.1411 15.8697C82.7705 15.6922 82.2276 16.115 81.9144 16.3917C81.2993 16.9291 80.722 17.5082 80.1865 18.1248C79.8576 17.4358 79.3355 16.6423 78.683 16.8928C78.0305 17.1434 78.5368 18.2658 78.8709 18.8766L77.6859 19.6961C77.5068 19.5995 77.3045 19.5543 77.1013 19.5656C75.7544 19.7953 69.5684 24.504 68.942 24.504C68.4617 24.504 61.6023 21.2152 55.672 20.2651C55.6606 20.2296 55.6393 20.198 55.6107 20.174C55.5821 20.1499 55.5472 20.1345 55.5102 20.1294C54.4758 19.9529 53.4271 19.8743 52.378 19.8945C52.3462 19.8966 52.3153 19.9057 52.2873 19.921C52.2594 19.9363 52.2351 19.9576 52.2162 19.9833H51.7777C51.6733 19.5604 51.287 18.5842 51.1513 18.2084C51.5062 17.9004 51.997 17.7438 52.2527 17.2478C52.7226 16.3291 52.7017 14.7317 52.5712 13.7085C53.1611 13.2595 53.1767 12.5391 53.041 11.8031C52.9888 11.5055 52.827 10.8321 52.5764 10.6651C52.4355 10.5711 52.1379 10.6651 51.8821 10.759C51.6263 10.1639 51.6263 10.4354 51.7307 10.1952C51.7792 10.0846 51.8075 9.96611 51.8142 9.84547C52.0909 9.929 52.6651 9.37565 52.4668 8.64481C52.3628 8.38318 52.2353 8.13157 52.0857 7.89309C52.1588 7.7156 52.3154 7.50157 51.8247 6.84903C51.6133 6.62106 51.3389 6.46115 51.0364 6.38965H50.7963C50.6231 6.13817 50.3688 5.95386 50.0759 5.86762C49.6337 5.75488 49.165 5.82051 48.7708 6.05033C48.6664 6.12863 48.5829 6.23304 48.4785 6.30612C48.2424 6.16279 47.9716 6.087 47.6954 6.087C47.4193 6.087 47.1484 6.16279 46.9124 6.30612C46.7742 6.36034 46.6484 6.44194 46.5426 6.546C46.4367 6.65006 46.353 6.77444 46.2964 6.91168C46.0406 6.82342 45.7693 6.78945 45.4996 6.81192C45.23 6.83439 44.968 6.91281 44.7303 7.04218C43.8285 7.53119 43.154 8.35378 42.851 9.33388C42.8426 9.48167 42.8426 9.62982 42.851 9.77761H42.7936C42.0106 9.66276 41.0135 11.5212 41.8122 12.9672C41.9062 13.1395 42.0262 13.3013 42.1411 13.4892C42.4752 14.0113 42.3447 14.1679 43.0912 14.8047C43.3104 14.9927 43.347 14.977 43.4827 15.0919C43.6184 15.2067 43.5662 15.1493 43.6445 15.4416C43.6872 15.6138 43.7636 15.7759 43.8694 15.9183C43.9751 16.0608 44.108 16.1809 44.2605 16.2716C44.316 16.7822 44.5337 17.2616 44.8817 17.6393C44.9919 17.7627 45.1205 17.8683 45.2628 17.9526C45.3012 17.9742 45.3441 17.9867 45.3881 17.9891C45.5447 18.9601 45.7378 20.2234 45.8214 20.7611L45.3568 21.0116C44.7489 21.2562 44.1577 21.5405 43.5871 21.8626C43.5423 21.8935 43.5107 21.9401 43.4983 21.9931C42.945 22.2854 42.423 22.5621 42.1254 22.7396C37.9805 25.1983 26.2088 41.4073 26.0887 42.1486C26.0755 42.191 26.0755 42.2366 26.0887 42.2791C26.2574 42.5483 26.463 42.7925 26.6995 43.0047C26.6266 43.1376 26.5391 43.2619 26.4385 43.3753C25.3944 44.0592 23.8283 45.0771 22.9879 45.9855C22.9289 46.038 22.8847 46.105 22.8596 46.1799C22.8344 46.2548 22.8292 46.3349 22.8445 46.4124C22.8598 46.4898 22.895 46.562 22.9467 46.6217C22.9984 46.6814 23.0648 46.7266 23.1393 46.7528C23.2959 46.805 23.322 46.7894 24.3399 46.2308C24.0602 46.4762 23.8313 46.7742 23.6665 47.1078C23.5986 47.3949 23.8597 47.562 24.1885 47.5098C24.3736 47.4613 24.5498 47.3837 24.7106 47.2801C24.6164 47.4255 24.5663 47.595 24.5663 47.7682C24.5663 47.9414 24.6164 48.1109 24.7106 48.2563C25.2326 48.914 26.6003 46.8416 27.3207 46.33C27.613 46.7006 28.0098 47.5672 28.6414 47.3375C29.1896 47.1339 28.5892 45.928 28.6414 45.5783C28.8538 45.3743 29.0806 45.1859 29.3201 45.0145C29.7228 45.3131 30.1832 45.5247 30.6721 45.6357C31.5335 45.6357 40.5228 36.5629 41.2066 35.8372C40.9613 38.1446 39.7241 48.0475 39.9851 49.9738C40.1052 50.8455 42.1985 50.9708 43.0807 51.0178C42.8145 57.2821 42.637 66.7726 42.59 66.8718C41.2066 69.8526 40.8308 70.6669 40.3662 71.57C39.5205 73.1883 35.9603 79.1603 35.5583 80.5176C35.5009 80.7316 35.4957 80.8152 35.7201 81.2119C35.0474 81.9191 34.4231 82.6708 33.8513 83.4618C33.5642 83.9839 34.7961 88.8492 35.6679 90.5719C35.8663 90.9582 36.19 91.5533 36.6232 91.5376C37.9283 91.4906 37.9231 86.8028 37.8865 85.4925C37.8863 85.4521 37.8715 85.4132 37.8448 85.3829C38.0813 85.0298 38.3394 84.6916 38.6174 84.3702C38.7833 84.4844 38.9579 84.5856 39.1394 84.673C39.3169 84.7513 39.5153 84.6155 39.6614 84.4955C41.3998 83.1277 50.7754 71.4448 52.7852 65.9321C53.6988 63.416 54.9151 59.9393 55.2596 57.4753C55.4703 55.9174 55.4895 54.3396 55.317 52.777C55.317 52.7549 55.3259 52.7336 55.3415 52.718C55.3572 52.7023 55.3784 52.6935 55.4006 52.6935C55.4227 52.6935 55.444 52.7023 55.4596 52.718C55.4753 52.7336 55.4841 52.7549 55.4841 52.777C55.7455 54.3485 55.7964 55.9478 55.6355 57.5327C55.2492 60.952 52.5503 68.0777 51.1095 70.6983C52.3519 70.4686 54.8785 69.9674 56.1001 69.602C60.1719 68.3648 63.9305 64.6741 64.2594 60.5292C64.3658 58.5765 64.3658 56.6195 64.2594 54.6668C64.2242 51.9711 63.8738 49.2888 63.2153 46.6745C64.322 46.0742 65.3348 45.3695 65.6636 44.7222C66.3684 43.3388 64.5047 35.3779 64.0976 33.1436C66.3266 33.3889 70.1218 33.8326 71.8914 32.4493C73.9169 30.8205 78.2915 26.2371 80.8024 22.7135ZM37.6046 85.2054C36.665 84.6364 35.3495 83.2844 35.1511 82.2246C35.3651 81.9532 35.5896 81.7026 35.7984 81.4207C36.5059 82.5003 37.388 83.4547 38.4086 84.2449C38.1219 84.5489 37.8534 84.8696 37.6046 85.2054ZM79.1059 19.0227C79.1328 19.0055 79.1522 18.9786 79.16 18.9475C79.1677 18.9164 79.1633 18.8836 79.1476 18.8557C78.9649 18.5164 78.4168 17.3209 78.7979 17.1852C79.0171 17.1017 79.2103 17.2374 79.3721 17.4201C79.6192 17.7336 79.8116 18.0866 79.9411 18.4642C79.9508 18.4949 79.9686 18.5223 79.9927 18.5437C80.0168 18.565 80.0462 18.5794 80.0779 18.5853C80.1095 18.5912 80.1421 18.5884 80.1723 18.5772C80.2025 18.5659 80.229 18.5467 80.2491 18.5216C80.7711 17.9421 81.9927 16.6214 82.6817 16.2664C83.2038 15.995 83.3291 16.4961 82.0501 17.6654C81.7563 17.8894 81.4741 18.1281 81.2044 18.3806C81.1895 18.4011 81.1815 18.4258 81.1815 18.4511C81.1815 18.4764 81.1895 18.5011 81.2044 18.5216C81.2044 18.6573 81.314 18.8087 81.502 18.6677C81.9557 18.2694 82.4353 17.9015 82.9375 17.5663C83.1939 17.3842 83.4918 17.2693 83.8041 17.2322C83.6475 17.7124 82.191 19.0175 82.0658 19.1637C82.026 19.1993 82.0019 19.2491 81.9985 19.3023C81.9951 19.3556 82.0127 19.408 82.0476 19.4484C82.0825 19.4888 82.1319 19.5138 82.1851 19.5182C82.2382 19.5225 82.291 19.5058 82.332 19.4717C82.9114 19.0958 83.9242 18.2188 84.2739 18.3493C84.6237 18.4798 83.5849 19.4508 83.3238 19.6805C81.8256 20.9803 82.2119 20.1451 80.4788 21.9095C79.7244 21.0831 78.8581 20.3662 77.9052 19.7797L79.1059 19.0227ZM56.4237 43.9913C56.335 43.2709 56.2254 42.4931 56.0897 41.684L56.3141 41.3864C57.3582 40.0448 57.6714 37.9097 57.5722 36.234C58.1308 38.6823 58.5745 41.0888 58.9138 43.4797L56.4237 43.9913ZM48.6612 26.1171C47.2883 25.073 45.0801 23.272 43.7959 22.04L45.884 20.996C47.8014 22.787 49.4428 24.8523 50.7545 27.1246C52.7602 30.8092 54.2481 34.7529 55.1761 38.8441L47.732 28.3148L48.703 26.2998C48.7158 26.2688 48.7187 26.2345 48.7112 26.2018C48.7037 26.169 48.6863 26.1394 48.6612 26.1171ZM52.1901 20.1973C52.2214 20.2547 52.5816 21.0221 53.1298 22.3637C53.1298 22.4211 53.0306 23.7262 52.9836 24.1856C52.3173 23.9215 51.6889 23.5704 51.1147 23.1415C51.2296 22.6874 51.7464 20.6253 51.7829 20.1607L52.1901 20.1973ZM50.3369 25.8039C50.3734 25.7099 50.41 25.5846 50.4517 25.4384L50.8015 25.6212C50.9999 25.7517 50.9216 25.3549 51.0991 26.5034C51.0991 26.6965 51.1513 26.9106 51.1617 27.1455C50.9216 26.7122 50.624 26.2476 50.3421 25.8039H50.3369ZM50.0446 25.3654C49.0583 23.9665 47.9357 22.669 46.6932 21.4919L50.624 23.1989C50.4726 23.5591 50.2534 24.6606 50.0498 25.3654H50.0446ZM54.059 28.4244C53.5369 26.9993 53.135 25.4071 52.9366 24.9895C52.9484 24.8593 52.9484 24.7282 52.9366 24.598C53.0121 24.6261 53.0912 24.6437 53.1715 24.6502C53.2219 24.6507 53.2707 24.6331 53.3091 24.6005C53.3475 24.5679 53.3728 24.5225 53.3803 24.4727C53.4221 24.3004 53.49 23.4286 53.5004 23.2355C55.019 27.0695 56.2867 30.9982 57.2955 34.9968C54.3461 28.722 54.8002 30.5387 54.0642 28.4244H54.059ZM58.3761 38.39C57.1859 32.6842 55.0926 25.569 52.7121 20.2965C53.5863 20.297 54.4591 20.3668 55.3223 20.5053C55.766 24.4727 55.3954 24.337 55.6929 24.4936C55.9905 24.6502 57.781 25.3706 58.0473 25.4802C58.0212 25.8822 58.397 37.3772 58.3814 38.39H58.3761ZM52.3676 10.9992C52.6397 11.593 52.7357 12.2525 52.6443 12.8993C52.6018 13.064 52.5144 13.2136 52.3919 13.3315C52.2695 13.4494 52.1167 13.5311 51.9506 13.5673C51.7845 13.6036 51.6115 13.593 51.4511 13.5368C51.2906 13.4806 51.1489 13.381 51.0416 13.2491C50.7926 12.7244 50.6051 12.1726 50.4831 11.6047C50.624 11.422 52.1275 11.0566 52.3676 10.9992ZM45.1845 16.2194C44.9938 16.1326 44.7986 16.0559 44.5998 15.9897C44.4664 15.9349 44.3473 15.8502 44.2516 15.7422C44.156 15.6342 44.0864 15.5057 44.0481 15.3667C44.0098 15.2276 44.0038 15.0816 44.0307 14.9398C44.0576 14.7981 44.1165 14.6644 44.2031 14.5489C44.532 14.2723 44.8295 14.2879 45.101 14.7003C45.2732 15.0188 45.268 15.0449 45.3463 15.0762C45.3688 15.0861 45.3931 15.0911 45.4176 15.0908C45.4422 15.0905 45.4664 15.085 45.4886 15.0747C45.5109 15.0643 45.5306 15.0493 45.5466 15.0306C45.5626 15.012 45.5744 14.9901 45.5812 14.9666C45.6586 14.6398 45.671 14.301 45.6178 13.9695C45.5551 13.6093 45.5447 12.0119 45.5551 11.9597C45.7076 12.0401 45.8789 12.0779 46.0511 12.0693C46.9959 12.0328 47.1839 11.5473 47.5597 11.1505C47.993 11.1923 48.0817 11.4011 48.5725 11.1505C48.8022 11.0198 49.013 10.8582 49.1989 10.6703C49.3489 10.7317 49.4938 10.805 49.6322 10.8895C49.945 11.04 50.2979 11.0862 50.6389 11.0214C50.98 10.9565 51.2913 10.7841 51.5271 10.5293C51.5846 10.639 51.6368 10.7486 51.6837 10.8634C51.204 11.0123 50.7524 11.2399 50.3473 11.5368C50.2586 11.6465 50.3891 12.2416 50.4204 12.3825C49.9831 12.4375 49.56 12.5739 49.1728 12.7845C49.0945 12.513 48.9222 12.0067 48.6508 11.8657C48.5691 11.8407 48.4818 11.8407 48.4002 11.8657C47.9304 11.9388 46.2442 12.4452 46.0406 12.7218C45.8631 12.915 46.3695 14.408 46.5261 14.6533C47.1264 15.5826 48.8857 15.3111 49.2145 14.2253C49.296 13.8609 49.296 13.483 49.2145 13.1186C49.3659 13.1186 49.8201 12.9568 49.8723 12.9411C50.2325 13.7502 50.3369 13.7972 50.7545 14.669C50.6971 14.716 50.6031 14.7943 50.5248 14.8465C50.1542 15.0919 50.0759 15.0501 50.0968 15.1545C50.1029 15.1752 50.1163 15.193 50.1345 15.2045C50.1528 15.2161 50.1746 15.2206 50.196 15.2171C50.415 15.1858 50.6291 15.1262 50.8328 15.0396C50.9547 14.9942 51.0553 14.9048 51.1147 14.7891C51.2609 14.4602 50.4517 13.223 50.1333 12.8524C50.196 12.8524 50.3421 12.7479 50.4517 12.6905C50.5979 13.2752 50.6971 13.7346 51.2609 13.9643C51.4238 14.0258 51.5975 14.0538 51.7715 14.0466C51.9455 14.0394 52.1163 13.9972 52.2736 13.9225C52.3572 14.8413 52.3415 16.3343 51.903 17.1486C51.6785 17.5715 51.1252 17.7333 50.7702 18.0831C50.6658 18.1823 50.7336 18.3232 50.7702 18.4746C51.3496 20.0877 51.3601 20.0824 51.3288 20.2913C51.1751 21.1579 50.9606 22.0127 50.6867 22.8492C50.5562 22.7918 49.0893 22.0139 46.2181 20.8968C46.1294 20.3069 45.6543 17.1591 45.5029 16.5796C45.5134 16.376 45.4873 16.3291 45.1845 16.1933V16.2194ZM48.8387 14.0896C48.6716 14.6586 47.8834 14.9039 47.3196 14.7473C46.7558 14.5907 46.7193 14.3036 46.453 13.625C46.3282 13.3657 46.2421 13.0896 46.1972 12.8054C46.3695 12.6174 48.254 12.2311 48.4889 12.1946C48.8184 12.7582 48.942 13.4188 48.8387 14.0635V14.0896ZM28.4117 45.4321C28.2134 45.6253 28.4796 46.2569 28.5214 46.805C28.5214 46.852 28.5214 47.0556 28.49 47.0713C28.2029 47.1652 27.9367 46.732 27.7749 46.4709C27.613 46.2099 27.4512 45.855 27.1954 45.9489C26.6734 46.1943 25.4623 47.8021 24.9872 47.9692C24.7471 47.5098 26.12 46.1995 26.167 46.1264C26.1872 46.0928 26.1977 46.0544 26.1975 46.0153C26.1973 45.9761 26.1864 45.9378 26.166 45.9044C26.1455 45.8711 26.1163 45.8439 26.0815 45.826C26.0467 45.8081 26.0077 45.8 25.9686 45.8027C25.8747 45.8027 25.812 45.8863 25.6659 46.0168C25.2213 46.4507 24.7124 46.8134 24.1572 47.0922C24.6606 46.5147 25.1993 45.969 25.7703 45.4582C25.7985 45.4292 25.8183 45.3931 25.8277 45.3538C25.8277 45.3538 25.7181 45.0771 25.504 45.1868C25.2013 45.3538 23.7291 46.2047 23.2645 46.424C23.2019 46.3822 23.2384 46.3196 23.2645 46.2569C24.0006 45.3538 25.6189 44.2575 26.6107 43.5633C26.7272 43.4434 26.824 43.306 26.8979 43.1561C27.5848 43.7952 28.3176 44.3832 29.0904 44.9153C28.8523 45.0714 28.6255 45.2441 28.4117 45.4321ZM40.5593 50.1773C40.4445 50.1043 40.361 50.0364 40.3453 49.9424C40.0582 47.8126 41.6556 35.7433 41.6295 35.2682C41.6295 35.2404 41.6239 35.2128 41.6131 35.1871C41.6023 35.1614 41.5864 35.1382 41.5665 35.1187C41.5465 35.0992 41.5229 35.084 41.497 35.0738C41.471 35.0636 41.4433 35.0587 41.4155 35.0594C41.1492 35.0594 41.619 35.0594 34.9684 41.4282C34.5299 41.8406 31.1785 45.0458 30.6199 45.2598C29.8525 45.2024 26.9657 42.9003 26.4959 42.1747C27.4042 40.3371 38.419 25.2192 42.2298 22.9066C42.5221 22.7291 43.0233 22.4524 43.5714 22.1601C43.761 22.3389 43.9653 22.5013 44.1822 22.6456C45.3933 23.7941 47.0795 25.2244 48.3584 26.2998L47.3613 28.2783C47.3462 28.3045 47.3383 28.3342 47.3383 28.3644C47.3383 28.3946 47.3462 28.4244 47.3613 28.4505C55.458 40.0657 55.3379 39.9352 55.3901 39.9352C55.9092 42.6192 56.2319 45.3374 56.3559 48.0683C56.3559 48.8044 56.3559 48.7418 56.3872 48.6896C56.4185 48.6374 56.3872 48.7261 56.3872 48.7261C55.1239 50.1043 42.6213 51.3884 40.5593 50.1773ZM69.417 32.8826C67.0522 33.2114 64.3795 32.7207 63.8626 32.6999C63.5755 31.3082 63.0031 29.9911 62.1817 28.8316C62.1692 28.8147 62.1507 28.8032 62.13 28.7993C62.1093 28.7954 62.088 28.7995 62.0701 28.8107C62.0523 28.8219 62.0394 28.8395 62.034 28.8598C62.0285 28.8801 62.031 28.9018 62.0408 28.9204C62.3435 29.5364 63.3563 32.1935 63.6068 32.8408C63.5285 33.0914 65.9664 43.1717 65.2773 44.529C64.6614 45.7558 61.075 47.301 59.7804 47.7447C59.5244 44.8385 59.1061 41.9489 58.5275 39.0895C58.705 37.586 58.4753 28.6489 58.4075 25.3445C58.4055 25.3061 58.3926 25.269 58.3705 25.2376C58.3483 25.2062 58.3177 25.1817 58.2822 25.167L55.9383 24.1804C55.9276 22.9398 55.8492 21.7007 55.7034 20.4687C61.5553 21.4815 68.373 24.8277 68.942 24.8329C69.7668 24.8329 75.8954 20.1346 77.1639 19.9467C77.7277 19.858 80.1499 21.9722 80.4318 22.5569C77.9574 26.0127 73.6089 30.5543 71.5939 32.1256C70.9448 32.5596 70.1954 32.8202 69.417 32.8826Z" fill="#2563EB"/>
<path d="M48.3033 13.0453C48.2968 13.011 48.2836 12.9783 48.2645 12.9491C48.2453 12.92 48.2207 12.8948 48.1918 12.8752C48.163 12.8556 48.1305 12.8418 48.0964 12.8347C48.0622 12.8276 48.027 12.8273 47.9927 12.8338C47.9584 12.8403 47.9258 12.8535 47.8966 12.8727C47.8674 12.8918 47.8423 12.9165 47.8227 12.9453C47.803 12.9742 47.7893 13.0066 47.7822 13.0408C47.7751 13.0749 47.7748 13.1102 47.7813 13.1444C47.8857 13.6665 47.9066 13.7865 48.1363 13.7865C48.1797 13.7867 48.2225 13.776 48.2607 13.7555C48.299 13.7349 48.3315 13.7051 48.3553 13.6689C48.3792 13.6326 48.3936 13.5909 48.3973 13.5477C48.4009 13.5044 48.3938 13.4609 48.3764 13.4211C48.3607 13.3376 48.3138 13.0922 48.3033 13.0453ZM49.9007 16.5011C50.24 16.6003 50.5637 16.4384 50.5533 16.3549C50.5428 16.2714 50.5533 16.3131 50.0939 16.1409C49.7859 16.026 49.4466 15.6189 49.3265 15.6815C49.2064 15.7441 49.3891 16.0782 49.4309 16.1409C49.5426 16.3103 49.7081 16.4372 49.9007 16.5011ZM86.2078 11.2599C86.8369 10.8899 87.5799 10.7636 88.2959 10.9049C89.0824 10.919 89.8337 11.2335 90.3957 11.7839C90.9577 12.3342 91.2879 13.0788 91.3184 13.8648C90.8455 13.5904 90.2924 13.4872 89.7523 13.5725C88.442 13.6873 86.7298 14.3973 86.9595 15.6606C87.1474 16.7047 88.5256 16.5637 89.5696 16.2818C90.6137 15.9999 91.4437 15.4883 91.6577 14.4808C92.9263 15.4048 93.2238 17.0231 93.276 18.6049C93.276 18.627 93.2848 18.6483 93.3005 18.6639C93.3161 18.6796 93.3374 18.6884 93.3595 18.6884C93.3817 18.6884 93.4029 18.6796 93.4186 18.6639C93.4343 18.6483 93.4431 18.627 93.4431 18.6049C93.4796 16.8352 93.1612 15.102 91.7152 14.0945C91.73 13.6413 91.6528 13.1898 91.4881 12.7672C91.3234 12.3447 91.0746 11.96 90.7569 11.6365C90.4392 11.3129 90.0591 11.0572 89.6397 10.8848C89.2202 10.7124 88.7702 10.6269 88.3168 10.6335C87.5921 10.5277 86.8532 10.6791 86.2286 11.0615C86.0355 11.1555 86.1242 11.2965 86.2078 11.2599ZM90.9687 15.0029C90.3788 15.7755 88.7083 16.1774 87.9357 16.0469C87.6486 15.9999 87.4137 15.8799 87.351 15.5823C87.1631 14.5383 88.9641 13.9692 90.0394 13.9327C90.4774 13.8991 90.9141 14.0111 91.2819 14.2511C91.2424 14.5241 91.1346 14.7826 90.9687 15.0029ZM83.8169 5.15741C84.3754 4.46834 83.9996 3.26767 82.4387 3.26245C81.8332 3.26245 81.5408 3.87844 81.5826 4.46834C81.6766 5.87259 83.2583 5.83083 83.8169 5.15741ZM81.948 4.44223C81.948 4.0977 82.1098 3.64875 82.47 3.65397C83.3105 3.65397 83.6968 4.04549 83.6968 4.47878C83.6759 5.46541 81.8801 5.977 81.948 4.44223ZM81.734 63.6245C77.1454 61.7922 75.0155 70.6615 71.2673 78.2831C71.2436 78.6035 71.2542 78.9254 71.2987 79.2436C71.2987 80.0423 71.3874 85.3305 71.852 85.9308C71.9773 86.1709 72.5045 85.9308 72.7499 85.7794C74.8337 84.4894 76.7975 83.0148 78.6175 81.3735C78.633 81.3557 78.6447 81.335 78.6519 81.3126C78.6591 81.2901 78.6616 81.2664 78.6592 81.243C79.6302 79.8596 83.2687 72.6556 84.151 69.0432C84.767 66.4853 84.1562 64.5798 81.734 63.6245ZM83.3731 70.2543C80.9166 69.9395 78.5415 69.1638 76.3728 67.9678C77.5943 65.6552 79.103 63.019 81.593 64.0108C84.365 65.1123 84.3076 67.3936 83.3731 70.2386V70.2543ZM74.6866 83.827C74.5263 83.6926 74.3512 83.577 74.1646 83.4825C73.4592 83.1238 72.6441 83.0455 71.8833 83.2632C71.8311 82.642 71.5336 78.6015 71.5336 78.565C75.4436 79.9953 74.2377 79.3741 78.1111 81.3004C77.7039 81.6867 76.1744 82.7569 74.6866 83.8166V83.827ZM77.3803 68.7195C77.8894 68.9977 78.4121 69.2503 78.9464 69.4765C77.7498 71.356 76.6925 73.3206 75.7829 75.3545C74.9059 77.1868 74.9372 77.1764 74.0445 79.1757C73.5225 79.0087 73.0005 78.8521 72.4784 78.6955C73.0422 77.5731 77.0514 69.3668 77.3803 68.7091V68.7195ZM74.2481 79.2279C75.9447 76.1845 77.6726 72.3998 79.1552 69.5443C79.6772 69.7636 80.1992 69.9411 80.7212 70.0977C80.4446 70.6197 79.6354 72.0083 79.4214 72.4103C79.2074 72.8122 77.0618 77.0406 76.9104 77.3643C76.6703 77.8863 76.0126 79.3428 75.809 79.8074C75.2765 79.5725 74.7649 79.395 74.2272 79.2175L74.2481 79.2279ZM75.9969 79.8753C76.3153 79.2958 77.6256 76.8632 77.7875 76.5499C78.0328 76.0645 80.7682 70.4735 80.9196 70.1499C81.3999 70.2856 81.9062 70.4005 82.2299 70.4631C81.2746 73.0732 78.5235 78.1004 77.5317 80.58C76.6285 80.1572 76.425 80.0527 75.976 79.8648L75.9969 79.8753ZM76.3153 68.1192L77.2498 68.6412C75.3667 71.8481 73.7264 75.1914 72.3427 78.6433L71.5597 78.4031C74.5927 71.9404 74.7336 71.0947 76.2945 68.1087L76.3153 68.1192ZM78.4661 81.0342L77.6778 80.6583C78.5287 78.9878 81.1911 74.702 82.4074 70.4996C82.6997 70.5518 82.9869 70.5988 83.2635 70.6354C81.922 74.2148 80.3113 77.6876 78.4452 81.0237L78.4661 81.0342ZM62.111 84.4221C62.319 84.2499 62.4678 84.0166 62.5361 83.7553C62.6045 83.494 62.5891 83.2178 62.492 82.9657C62.4478 82.6019 62.281 82.2641 62.0191 82.0078C61.7572 81.7515 61.4159 81.592 61.0513 81.5556C60.6867 81.5191 60.3206 81.6079 60.0131 81.8072C59.7057 82.0066 59.4753 82.3047 59.3599 82.6524C58.6917 82.2192 57.9661 81.7598 57.2718 81.3213C57.7938 80.627 59.3286 80.935 59.4852 81.504C59.4886 81.5261 59.5007 81.546 59.5189 81.5592C59.537 81.5724 59.5596 81.5779 59.5817 81.5745C59.6039 81.571 59.6238 81.5589 59.637 81.5408C59.6502 81.5227 59.6557 81.5 59.6522 81.4779C59.5739 80.5696 57.6842 80.0371 56.922 81.1072C56.2486 80.6948 55.4133 80.1937 54.7138 79.8126C55.3142 79.2906 56.6558 79.5829 56.8019 80.1258C56.8088 80.1444 56.8221 80.1599 56.8393 80.1696C56.8566 80.1794 56.8767 80.1826 56.8961 80.1789C56.9156 80.1751 56.9331 80.1646 56.9454 80.1491C56.9578 80.1337 56.9643 80.1143 56.9638 80.0945C56.8959 79.2488 55.1471 78.6798 54.3536 79.609C54.0212 79.4227 53.6715 79.2689 53.3096 79.1496C53.2435 79.1222 53.1708 79.1145 53.1004 79.1275C53.03 79.1404 52.9648 79.1735 52.9128 79.2227C51.5921 80.8671 47.1392 85.1373 45.0824 85.6332C45.0307 85.641 44.982 85.6623 44.9411 85.6949C44.9002 85.7275 44.8687 85.7703 44.8496 85.819C44.8306 85.8677 44.8247 85.9206 44.8326 85.9723C44.8404 86.024 44.8618 86.0727 44.8945 86.1135C45.3461 86.5719 45.8634 86.9607 46.4292 87.2672C45.9072 87.7892 45.5 88.259 45.1973 88.5983C45.0407 88.7654 44.9571 91.9602 45.0929 92.6649C45.1131 92.7339 45.1576 92.7933 45.2181 92.832C45.8759 93.2809 54.3484 96.9456 55.215 96.4549C55.7944 96.126 62.7113 88.9272 62.8209 88.708C62.988 88.3634 62.9305 86.0665 62.9201 85.1477C62.8783 84.8711 62.3615 84.5735 62.111 84.4221ZM45.4061 91.3181V90.154C47.5725 91.198 52.5317 93.3279 54.411 93.923C54.8913 94.0796 54.9331 94.0588 55.1837 93.923C56.6192 93.0043 61.6881 87.2933 62.6173 86.4215V87.523C59.7984 90.3471 55.0114 95.296 54.9226 95.0141C54.4058 94.9827 45.855 91.5269 45.4061 91.3181ZM61.9805 82.6629C62.1681 82.9791 62.269 83.3393 62.2728 83.7069C62.271 83.8239 62.2423 83.9389 62.1888 84.043C62.1354 84.1471 62.0588 84.2376 61.9648 84.3073C61.5263 84.0149 60.6963 83.472 59.7149 82.8352C60.2525 81.7754 61.448 81.7598 61.9596 82.6629H61.9805ZM45.2756 86.0039C47.4994 85.3461 51.7226 81.2743 53.1425 79.5098C53.4843 79.6049 53.8137 79.7399 54.1239 79.9118C53.6019 80.8828 54.1605 81.9477 54.3589 81.7963C54.4685 81.7128 54.2701 81.6815 54.2388 81.1699C54.2255 80.7962 54.31 80.4255 54.4841 80.0945C55.2045 80.4704 56.0502 80.9611 56.7654 81.3735C56.3269 82.3497 56.8541 83.3154 57.0368 83.1745C57.2196 83.0335 56.9533 83.0648 56.922 82.5533C56.9093 82.2178 56.9736 81.8838 57.1099 81.5771C57.846 82.0104 58.5977 82.4593 59.2868 82.8821C59.1806 83.1423 59.1385 83.4241 59.1639 83.7039C59.1893 83.9837 59.2816 84.2533 59.433 84.49C59.4398 84.4989 59.4484 84.5064 59.4581 84.512C59.4678 84.5176 59.4786 84.5212 59.4897 84.5227C59.5009 84.5241 59.5122 84.5234 59.5231 84.5205C59.5339 84.5175 59.5441 84.5125 59.553 84.5056C59.5619 84.4988 59.5694 84.4902 59.575 84.4805C59.5806 84.4708 59.5843 84.46 59.5857 84.4489C59.5872 84.4377 59.5864 84.4264 59.5835 84.4155C59.5806 84.4047 59.5755 84.3945 59.5687 84.3856C59.4749 84.1782 59.4285 83.9525 59.4331 83.7249C59.4376 83.4973 59.4928 83.2736 59.5948 83.0701C60.8111 83.8113 61.7925 84.4326 62.0953 84.6362C62.0379 84.6884 56.5931 89.5328 54.7399 90.9736C53.5236 90.6551 47.1392 87.4864 45.2756 86.0039ZM45.4739 88.9116C47.8387 89.9556 53.2104 92.3778 54.4476 92.6127C54.6616 92.6545 54.7451 92.6702 55.1523 92.3465C56.8907 90.9527 62.5442 85.0381 62.5964 85.1008C62.599 85.1163 62.599 85.1322 62.5964 85.1477V86.1918C61.4323 87.1262 54.9592 93.923 54.8548 93.5994C54.3327 93.5994 45.8498 90.1383 45.4165 89.9452C45.4061 89.7259 45.4531 89.1413 45.4739 88.9116ZM54.9801 96.1051C54.458 96.4027 46.5075 93.1713 45.4426 92.5135C45.4026 92.181 45.3834 91.8462 45.3852 91.5113C47.6717 92.6388 54.3223 95.4473 54.9331 95.4212C55.8257 95.3743 62.1371 88.2695 62.586 87.7735C62.5912 88.0402 62.5649 88.3065 62.5077 88.567C62.419 88.7393 55.3246 95.912 54.9801 96.1051ZM11.7301 66.6784C11.7666 67.237 11.7927 67.7225 11.7927 68.1766C11.7927 68.2458 11.8202 68.3122 11.8692 68.3612C11.9181 68.4101 11.9845 68.4376 12.0537 68.4376C12.1229 68.4376 12.1893 68.4101 12.2383 68.3612C12.2872 68.3122 12.3147 68.2458 12.3147 68.1766C12.3147 67.6911 12.2886 67.2109 12.2521 66.6419C12.2472 66.5726 12.2151 66.5082 12.1627 66.4626C12.1103 66.4171 12.042 66.3943 11.9728 66.3991C11.9036 66.404 11.8391 66.4361 11.7936 66.4885C11.7481 66.5409 11.7252 66.6092 11.7301 66.6784ZM91.2714 56.2117C91.2373 56.2137 91.204 56.2225 91.1734 56.2375C91.1427 56.2526 91.1154 56.2737 91.093 56.2994C91.0706 56.3252 91.0536 56.3552 91.0431 56.3877C91.0324 56.4201 91.0285 56.4544 91.0313 56.4884C91.0626 56.9687 91.0939 57.4855 91.0939 57.9866C91.0939 58.0559 91.1214 58.1222 91.1704 58.1712C91.2193 58.2201 91.2857 58.2477 91.355 58.2477C91.4242 58.2477 91.4906 58.2201 91.5395 58.1712C91.5885 58.1222 91.616 58.0559 91.616 57.9866C91.616 57.4646 91.5846 56.9426 91.5481 56.4519C91.5461 56.4178 91.5374 56.3844 91.5223 56.3538C91.5072 56.3232 91.4862 56.2958 91.4604 56.2735C91.4346 56.2511 91.4046 56.2341 91.3722 56.2235C91.3397 56.2129 91.3055 56.2089 91.2714 56.2117ZM10.378 65.3785C10.4472 65.3785 10.5136 65.351 10.5626 65.3021C10.6115 65.2531 10.639 65.1868 10.639 65.1175C10.639 65.0483 10.6115 64.9819 10.5626 64.933C10.5136 64.884 10.4472 64.8565 10.378 64.8565C9.74635 64.8565 9.2191 64.9035 8.69708 64.8931C8.62736 64.893 8.56042 64.9204 8.51064 64.9692C8.46086 65.018 8.43221 65.0844 8.43084 65.1541C8.43084 65.2233 8.45834 65.2897 8.50729 65.3386C8.55624 65.3876 8.62263 65.4151 8.69185 65.4151C9.22954 65.4255 9.81943 65.4047 10.378 65.3785ZM89.6531 54.6665C89.0267 54.6665 88.4995 54.7031 87.9722 54.7083C87.903 54.7083 87.8366 54.7358 87.7877 54.7847C87.7387 54.8337 87.7112 54.9001 87.7112 54.9693C87.7112 55.0385 87.7387 55.1049 87.7877 55.1539C87.8366 55.2028 87.903 55.2303 87.9722 55.2303C88.536 55.2303 89.1207 55.2303 89.6845 55.1886C89.7537 55.1844 89.8184 55.1529 89.8644 55.101C89.9105 55.0492 89.934 54.9811 89.9298 54.9119C89.9257 54.8427 89.8942 54.7779 89.8423 54.7319C89.7904 54.6859 89.7224 54.6624 89.6531 54.6665ZM11.5891 62.1524C11.6204 62.6327 11.6518 63.1495 11.6518 63.6506C11.6531 63.7194 11.681 63.7851 11.7297 63.8337C11.7783 63.8824 11.844 63.9103 11.9128 63.9117C11.982 63.9117 12.0484 63.8841 12.0973 63.8352C12.1463 63.7863 12.1738 63.7199 12.1738 63.6506C12.1738 63.1286 12.1425 62.6066 12.1111 62.1159C12.1063 62.0466 12.0741 61.9822 12.0218 61.9367C11.9694 61.8911 11.9011 61.8683 11.8319 61.8731C11.7626 61.878 11.6982 61.9101 11.6526 61.9625C11.6071 62.0149 11.5843 62.0832 11.5891 62.1524ZM91.475 53.4606C91.475 52.9386 91.4437 52.4166 91.4072 51.9259C91.4023 51.8567 91.3702 51.7922 91.3178 51.7467C91.2654 51.7011 91.1971 51.6783 91.1279 51.6831C91.0587 51.688 90.9942 51.7201 90.9487 51.7725C90.9031 51.8249 90.8803 51.8932 90.8851 51.9624C90.9165 52.4427 90.9478 52.9595 90.9478 53.4606C90.9478 53.5299 90.9753 53.5963 91.0242 53.6452C91.0732 53.6942 91.1396 53.7217 91.2088 53.7217C91.2785 53.7217 91.3454 53.6943 91.3952 53.6455C91.445 53.5967 91.4737 53.5303 91.475 53.4606ZM15.4417 65.3107C15.476 65.3093 15.5096 65.3013 15.5408 65.2869C15.572 65.2725 15.6 65.2521 15.6232 65.2269C15.6465 65.2017 15.6646 65.1721 15.6764 65.1399C15.6883 65.1077 15.6936 65.0735 15.6922 65.0392C15.687 64.9709 15.6561 64.9071 15.6057 64.8606C15.5554 64.8142 15.4893 64.7885 15.4208 64.7887C14.7891 64.8148 14.2619 64.8356 13.7346 64.8252C13.6654 64.8252 13.599 64.8527 13.5501 64.9016C13.5011 64.9506 13.4736 65.017 13.4736 65.0862C13.4736 65.1554 13.5011 65.2218 13.5501 65.2708C13.599 65.3197 13.6654 65.3472 13.7346 65.3472C14.2932 65.3577 14.8779 65.3368 15.4417 65.3107ZM94.7168 54.5987C94.1948 54.6248 93.6153 54.6404 93.0359 54.6404C93.0014 54.639 92.967 54.6446 92.9348 54.6568C92.9025 54.669 92.8731 54.6877 92.8482 54.7116C92.8234 54.7355 92.8036 54.7641 92.7901 54.7959C92.7766 54.8276 92.7696 54.8617 92.7696 54.8962C92.7696 54.9659 92.797 55.0329 92.8458 55.0827C92.8946 55.1324 92.961 55.1611 93.0307 55.1625C93.6258 55.1625 94.106 55.1625 94.7377 55.1207C94.772 55.1194 94.8057 55.1113 94.8368 55.0969C94.868 55.0825 94.896 55.0621 94.9193 55.0369C94.9425 55.0117 94.9606 54.9822 94.9725 54.95C94.9843 54.9177 94.9897 54.8835 94.9883 54.8492C94.9818 54.7814 94.9506 54.7183 94.9005 54.672C94.8504 54.6258 94.785 54.5997 94.7168 54.5987ZM3.44548 49.843C3.51334 49.8952 18.2345 47.7131 18.8662 47.3268C18.9012 47.3013 18.9291 47.2673 18.9473 47.2281C18.9656 47.1888 18.9736 47.1455 18.9706 47.1023C18.9706 46.4289 18.0884 40.1072 17.6655 38.5307C17.6133 38.3375 17.5611 38.1444 17.441 38.0765C16.6423 37.5962 2.56847 40.2481 1.728 40.791C1.70523 40.8045 1.68555 40.8226 1.67025 40.8442C1.65496 40.8658 1.6444 40.8904 1.63926 40.9163C1.46177 41.548 2.99131 49.5298 3.44548 49.843ZM1.9577 41.0416C2.95999 40.5874 15.734 38.2488 17.1957 38.4315C17.5507 39.345 18.5008 46.0374 18.5634 47.0188C17.8378 47.2329 3.64385 49.6707 3.59164 49.6812C3.53944 49.6916 3.53422 49.7543 3.42459 49.4254C2.96521 48.0472 1.93159 42.2214 1.9577 41.0416Z" fill="#1E40AF"/>
<g clip-path="url(#clip0_830_16896)">
<path d="M67.2993 5.19653C67.2993 5.19653 72.8243 11.919 67.2993 16.5002C61.7743 11.919 67.2993 5.19653 67.2993 5.19653Z" fill="#1E40AF"/>
<path opacity="0.85" d="M71.0875 5.83203C71.0875 5.83203 74.0583 13.9861 67.3162 16.5001C63.6304 10.3672 71.0875 5.83203 71.0875 5.83203Z" fill="#1E40AF"/>
<path opacity="0.85" d="M63.5113 5.83203C63.5113 5.83203 60.5405 13.9861 67.2826 16.5001C70.9684 10.3672 63.5113 5.83203 63.5113 5.83203Z" fill="#1E40AF"/>
<path opacity="0.8" d="M75.7286 8.89868C75.7286 8.89868 74.4485 17.4744 67.3092 16.527C66.9929 9.39615 75.7286 8.89868 75.7286 8.89868Z" fill="#1E40AF"/>
<path opacity="0.8" d="M58.8711 8.89868C58.8711 8.89868 60.1512 17.4744 67.2905 16.527C67.6068 9.39615 58.8711 8.89868 58.8711 8.89868Z" fill="#1E40AF"/>
</g>
<path d="M20.0132 47.7915C20.0416 47.7388 20.0543 47.679 20.0498 47.6192C20.0498 46.7892 18.8596 37.5754 18.4367 36.8394C18.4036 36.7851 18.3566 36.7406 18.3007 36.7103C18.2448 36.68 18.1818 36.6651 18.1183 36.6671C16.3695 36.4531 1.61698 39.3347 0.646004 40.0081C0.510276 40.102 0.531157 40.3369 0.546818 40.5875C0.630343 41.9605 2.1129 50.9915 2.63493 50.9393C2.69235 50.9393 2.67147 50.8976 2.53574 51.1742C1.72138 52.85 0.176179 58.2164 0.2075 59.297C0.2075 59.7512 0.311905 60.3411 0.760849 60.3097C3.98176 59.913 19.7731 57.4073 24.3147 56.4728C24.4922 56.4363 24.6071 56.2745 24.6019 56.0082C24.5483 55.5647 24.4138 55.1347 24.2051 54.7397C23.5682 53.5443 20.9268 48.8095 20.0132 47.7915ZM2.66625 50.7775C2.25907 50.2555 0.76085 41.2609 0.875696 40.2639C2.02416 39.6687 16.5783 36.855 18.1026 37.0847C18.5202 38.2332 19.6008 46.5282 19.6687 47.5253C17.8207 48.1621 5.02582 50.2294 2.66625 50.7775ZM2.89594 50.9341C3.33445 50.8245 18.2697 48.324 19.6374 47.9638C20.3839 48.6581 23.7562 54.6562 23.9754 55.1678C20.979 55.6898 3.20394 58.6601 0.58858 59.0569C0.625122 57.4751 2.24863 51.9468 2.89594 50.9341Z" fill="#1E40AF"/>
<path d="M4.8602 56.3474C5.31437 56.2795 14.951 55.1206 18.4329 54.1757C18.4544 54.1702 18.4728 54.1563 18.484 54.1373C18.4953 54.1182 18.4985 54.0954 18.493 54.0739C18.4874 54.0525 18.4736 54.0341 18.4545 54.0228C18.4354 54.0116 18.4126 54.0083 18.3912 54.0139C17.7073 54.1548 9.3653 55.2668 4.84976 56.1855C4.83729 56.1833 4.82446 56.1839 4.81227 56.1874C4.80007 56.1908 4.78882 56.197 4.77936 56.2054C4.7699 56.2139 4.76249 56.2243 4.75769 56.2361C4.75288 56.2478 4.75081 56.2605 4.75162 56.2731C4.75244 56.2858 4.75612 56.298 4.7624 56.3091C4.76867 56.3201 4.77737 56.3295 4.78783 56.3367C4.79829 56.3438 4.81024 56.3485 4.82278 56.3504C4.83532 56.3522 4.84812 56.3512 4.8602 56.3474ZM11.9024 20.0247C11.7073 20.4651 11.5434 20.9186 11.4117 21.3819C11.4039 21.4563 11.4244 21.5308 11.4691 21.5907C11.9963 22.3842 17.3993 28.4763 18.8088 29.3324C19.0019 29.4525 19.2316 29.536 19.3726 29.3637C20.3965 28.0897 21.7327 27.1024 23.2512 26.4978C24.4872 26.0605 25.783 25.8158 27.0934 25.7722C28.1374 25.6782 28.3201 25.5738 28.7221 24.89C29.1963 23.99 29.8254 23.1806 30.5805 22.4991C31.5434 21.6572 32.6122 20.9446 33.7597 20.3796C33.8113 20.3504 33.8517 20.3047 33.8744 20.2498C33.8971 20.1949 33.9008 20.1341 33.885 20.0769C33.7085 19.6278 33.4751 19.2032 33.1907 18.8136C33.3786 18.7509 33.5874 18.6935 33.5874 18.5056C33.5874 17.9835 29.0353 11.3955 27.772 10.1531C27.6415 10.0226 27.4536 9.85034 27.2813 9.86078C24.6712 10.0069 22.1289 12.4709 20.6568 14.6217C18.9706 14.559 17.8796 14.4076 15.9585 15.2168C14.6023 15.7925 13.3796 16.642 12.367 17.7121C12.2104 17.8739 11.1454 19.0015 11.1298 19.0902C11.1141 19.179 11.1454 19.179 11.9024 20.0247ZM32.7835 19.8785C30.6066 20.2491 29.218 22.0606 28.1948 24.0286C27.7407 24.9056 27.7824 24.9474 27.3022 24.9369C26.4624 24.8894 25.6199 24.9208 24.786 25.0309C24.1743 25.1223 23.573 25.2727 22.9902 25.4798C21.6643 25.9497 20.1452 27.4531 19.336 28.5703C19.3188 28.5932 19.297 28.6123 19.2719 28.6263C19.2468 28.6402 19.2191 28.6487 19.1905 28.6511C19.1619 28.6536 19.1331 28.65 19.106 28.6406C19.0789 28.6311 19.0541 28.6161 19.0333 28.5964C17.3367 26.8476 14.335 23.778 12.8263 22.0136C12.7533 21.9353 12.8786 21.8204 12.9516 21.904C13.9278 22.948 16.4492 25.4485 19.1533 28.1683C20.0669 27.0042 21.4763 25.5947 22.8702 25.104C23.6302 24.8329 24.4211 24.6575 25.2245 24.582C25.9769 24.5248 26.7325 24.5248 27.4849 24.582C27.7929 24.227 29.3172 20.1969 32.773 19.748C32.7831 19.7554 32.7915 19.765 32.7974 19.7761C32.8032 19.7872 32.8066 19.7994 32.8071 19.812C32.8076 19.8245 32.8052 19.837 32.8003 19.8485C32.7953 19.86 32.7877 19.8703 32.7782 19.8785H32.7835ZM27.2761 10.2836C28.3201 11.0145 32.5694 17.3049 33.1228 18.4064C32.1626 18.7106 31.2357 19.1111 30.356 19.6018C29.5231 20.0194 28.7938 20.6175 28.2212 21.3526C27.6487 22.0877 27.2473 22.9413 27.0464 23.8511C25.1723 20.8025 22.5569 17.4458 20.8186 14.9767C20.923 14.9088 23.8568 10.4872 27.2761 10.2836ZM16.0734 15.5039C17.9788 14.7365 19.0333 14.914 20.6098 14.9819C22.1759 17.6547 24.9896 21.4237 26.8428 23.8929C25.1323 23.4881 23.3324 23.7357 21.7948 24.5872C20.8708 25.1092 19.7432 26.3621 19.0489 27.1399C18.0466 26.336 12.2626 20.176 11.3333 19.132C12.7637 17.5137 14.0844 16.2974 16.0734 15.483V15.5039ZM6.52025 28.7791C6.39123 28.6885 6.2387 28.6374 6.08117 28.6318C5.92364 28.6262 5.76789 28.6665 5.6328 28.7477C5.53443 28.7916 5.44566 28.8544 5.37156 28.9326C5.29747 29.0108 5.2395 29.1028 5.20096 29.2034C5.16242 29.304 5.14407 29.4112 5.14696 29.5188C5.14985 29.6265 5.17392 29.7326 5.21779 29.8309C5.26166 29.9293 5.32449 30.0181 5.40267 30.0922C5.48085 30.1663 5.57286 30.2243 5.67344 30.2628C5.77403 30.3013 5.88122 30.3197 5.9889 30.3168C6.09657 30.3139 6.20262 30.2898 6.301 30.246C6.45815 30.2116 6.60115 30.1303 6.71103 30.0128C6.82091 29.8953 6.89249 29.7472 6.91627 29.5881C6.94005 29.429 6.91491 29.2664 6.84418 29.1219C6.77346 28.9775 6.66049 28.8579 6.52025 28.7791ZM6.17571 29.8231C5.81029 29.938 5.59104 29.8231 5.5023 29.6456C5.33525 29.275 5.54406 28.706 6.08697 28.873C6.46805 29.014 6.77604 29.6561 6.17571 29.8492V29.8231ZM33.0654 4.89107C33.2168 5.19907 33.9215 5.08422 34.2295 4.98504C34.3913 4.93284 34.4957 4.87541 34.5114 4.7188C34.5584 4.32728 34.6106 0.934102 34.4331 0.605225C34.4147 0.570739 34.3866 0.542436 34.3523 0.523863C34.3179 0.50529 34.2788 0.497273 34.2399 0.500819C33.683 0.499274 33.1288 0.580196 32.5955 0.740952C32.3815 0.871459 32.8774 4.54653 33.0654 4.89107ZM32.7052 0.866239C33.1874 0.797253 33.6751 0.774528 34.1616 0.798375C34.1929 1.18468 34.1094 4.53087 34.1042 4.58308C33.8836 4.66211 33.6482 4.69065 33.4151 4.6666C33.3786 4.54653 33.3159 4.22288 33.2376 3.8157C33.0076 2.84276 32.8299 1.85819 32.7052 0.866239ZM6.01388 24.3732C6.06397 24.3988 6.11944 24.4122 6.17571 24.4122C6.23199 24.4122 6.28745 24.3988 6.33754 24.3732C6.53922 24.2488 6.69918 24.067 6.79693 23.8511C6.8102 23.8166 6.8143 23.7792 6.80881 23.7426C6.80332 23.706 6.78843 23.6714 6.7656 23.6423C6.51503 23.3448 3.7796 20.176 3.44551 20.3744C3.0353 20.64 2.64612 20.9367 2.28138 21.2619C2.26668 21.275 2.25491 21.2911 2.24681 21.3091C2.23872 21.3271 2.23449 21.3465 2.2344 21.3663C2.22396 21.6377 5.26216 24.0704 6.01388 24.3732ZM3.50815 20.5101C3.88923 20.7868 5.17342 22.3738 6.36364 23.778C6.31244 23.8587 6.24904 23.9309 6.17571 23.9921C4.92434 23.1912 3.72956 22.3051 2.59982 21.3402C2.88303 21.0428 3.18653 20.7655 3.50815 20.5101ZM11.7092 8.99421C11.8241 6.96874 13.0038 6.02909 14.2358 5.78896C13.8861 7.07315 13.9435 8.74364 15.212 8.95767C15.8176 9.05686 16.1151 8.74364 16.5536 8.37822C18.4277 6.81214 16.9138 5.24605 14.7996 5.35568C15.5879 3.19448 17.4098 1.43525 19.8267 1.37783C19.8489 1.37783 19.8701 1.36903 19.8858 1.35336C19.9015 1.3377 19.9103 1.31645 19.9103 1.2943C19.9103 1.27215 19.9015 1.2509 19.8858 1.23524C19.8701 1.21958 19.8489 1.21078 19.8267 1.21078C17.2166 1.15857 15.165 3.03787 14.3559 5.387C12.9621 5.62713 11.5787 6.67119 11.5422 8.96289C11.5401 8.97386 11.5402 8.98513 11.5425 8.99605C11.5448 9.00697 11.5492 9.01733 11.5555 9.02654C11.5618 9.03575 11.5699 9.04363 11.5792 9.04972C11.5886 9.05582 11.5991 9.06002 11.61 9.06207C11.621 9.06413 11.6323 9.06401 11.6432 9.06171C11.6541 9.05941 11.6645 9.05499 11.6737 9.04869C11.6829 9.04238 11.6908 9.03433 11.6969 9.02498C11.703 9.01564 11.7072 9.00518 11.7092 8.99421ZM14.6795 5.72632C15.4574 5.67412 16.6163 5.91425 16.9347 6.61898C17.1174 7.02095 16.9347 7.51687 16.2874 8.05978C16.1117 8.23584 15.9112 8.38532 15.6923 8.50351C14.9092 8.8376 14.0427 7.87185 14.6795 5.72632ZM16.1725 79.5567C15.6682 79.4216 15.1419 79.3888 14.6247 79.4601C14.1075 79.5314 13.6097 79.7055 13.1607 79.972C12.7118 80.2386 12.3207 80.5923 12.0104 81.0122C11.7002 81.4322 11.4771 81.91 11.3542 82.4174C11.1223 83.4717 11.3187 84.575 11.9003 85.4844C12.4818 86.3939 13.4008 87.0351 14.4551 87.2671C15.5094 87.499 16.6126 87.3026 17.5221 86.721C18.4316 86.1395 19.0728 85.2205 19.3047 84.1662C19.4038 83.6577 19.4012 83.1346 19.2972 82.6271C19.1931 82.1196 18.9896 81.6377 18.6985 81.2092C18.4073 80.7807 18.0342 80.4141 17.6007 80.1305C17.1672 79.8469 16.6818 79.6519 16.1725 79.5567ZM17.7856 83.8112C17.5762 84.6466 17.0747 85.3795 16.372 85.8774C15.6692 86.3752 14.8115 86.6052 13.9539 86.5258C13.1667 86.2182 12.5132 85.6428 12.1083 84.9009C11.7035 84.159 11.5732 83.2981 11.7405 82.4696C11.9359 81.614 12.4326 80.8572 13.14 80.3377C13.8474 79.8181 14.7182 79.5706 15.5931 79.6402C16.3881 79.9687 17.0417 80.5671 17.439 81.33C17.8362 82.093 17.9516 82.9716 17.7647 83.8112H17.7856Z" fill="#1E40AF"/>
<path d="M23.1238 81.0447C22.6694 80.8879 22.1823 80.8502 21.7091 80.9351C21.513 80.4854 21.2716 80.0569 20.9887 79.6561C21.3281 79.3481 22.2573 78.492 22.0328 78.09C21.2339 77.1344 20.2854 76.3147 19.2243 75.6626C18.7812 75.4143 18.2932 75.2564 17.7887 75.198C17.4546 75.245 16.6611 76.5448 16.4836 76.8371C16.3688 76.8371 15.9616 76.7066 15.9303 76.691C15.9303 76.3151 15.8207 74.9578 15.4813 74.8012C15.1019 74.6615 14.7079 74.5652 14.3068 74.5141C13.9361 74.4567 10.6004 75.0675 10.355 75.5164C10.1932 75.8192 10.5691 76.9624 10.6787 77.2809C10.3971 77.4358 10.1268 77.6103 9.86954 77.8029C9.34751 78.1735 9.48846 78.1579 9.3945 78.1161C9.28093 78.0619 9.15925 78.0266 9.0343 78.0117C8.61729 77.7672 8.12836 77.6749 7.65092 77.7507C7.17066 77.9073 6.03786 80.4861 5.85515 81.1491C5.79535 81.3163 5.77918 81.4959 5.80816 81.6711C5.93345 82.0157 6.7687 82.2923 7.11845 82.402C7.02187 83.0737 7.02187 83.7557 7.11845 84.4274C6.65907 84.5527 5.70376 84.8346 5.75596 85.3044C5.80816 85.7743 7.02971 88.8751 7.53608 89.1205C7.81347 89.2756 8.12021 89.371 8.43665 89.4007C8.75308 89.4304 9.07222 89.3936 9.37361 89.2927C9.54336 89.208 9.70729 89.1121 9.86432 89.0056C10.0731 89.1622 10.2924 89.3032 10.5169 89.4389C10.355 89.8409 9.99483 90.7387 10.1097 91.1459C10.1671 91.36 10.3394 91.4278 10.5795 91.5166C11.2425 91.7567 14.8131 92.6128 15.3561 92.5189C15.5596 92.4875 15.6693 92.2735 15.7319 92.0699C15.8479 91.6065 15.9161 91.1325 15.9355 90.6552C16.2036 90.6288 16.4702 90.5887 16.7342 90.5352C16.8954 90.8189 17.1017 91.0745 17.345 91.2921C17.6112 91.48 17.8357 91.3861 18.1385 91.1929C18.2846 91.3808 18.5039 91.6419 18.7388 91.668C19.3287 91.7358 21.7666 89.4389 22.0171 88.9691C22.2259 88.5776 21.4638 87.878 21.1245 87.57C21.4915 87.0177 21.7797 86.4168 21.9806 85.7847C22.3571 85.8414 22.7381 85.8624 23.1186 85.8474C23.2909 85.8474 23.4892 85.7847 23.5623 85.6229C23.8808 84.8973 23.7868 82.1462 23.5623 81.4466C23.531 81.2431 23.2961 81.1073 23.1238 81.0447ZM23.2491 81.5249C23.4266 82.2036 23.484 84.7667 23.223 85.4297C22.7717 85.4742 22.3163 85.4531 21.871 85.3671C21.8234 85.3589 21.7745 85.3689 21.734 85.395C21.6934 85.4211 21.6641 85.4614 21.6517 85.508C21.4438 86.2138 21.1211 86.8805 20.6964 87.4813C20.6661 87.5211 20.6525 87.5711 20.6584 87.6207C20.6642 87.6704 20.6891 87.7158 20.7277 87.7475C21.094 88.0378 21.4052 88.3914 21.6465 88.7916C21.3855 89.2197 19.3443 91.0885 18.7806 91.2451C18.697 91.2451 18.4673 90.9319 18.4099 90.8484C18.2171 90.5586 18.0427 90.257 17.8879 89.9453C17.8653 89.8998 17.8265 89.8645 17.7792 89.8461C17.7319 89.8278 17.6794 89.8278 17.6321 89.8461C16.1182 90.4151 15.544 90.081 15.544 90.4568C15.5447 91.0196 15.453 91.5786 15.2725 92.1117C14.0457 91.9783 12.8376 91.7086 11.6705 91.3078C11.7269 90.7504 11.8825 90.2077 12.1299 89.7051C12.2865 89.3554 11.6601 89.4546 10.4908 88.2643C10.4531 88.2295 10.4037 88.2101 10.3524 88.2101C10.3011 88.2101 10.2517 88.2295 10.2141 88.2643C9.69205 88.6924 9.01342 89.11 8.87769 89.0422C8.61145 88.9117 7.38469 86.1292 7.31161 85.5654C7.6829 85.3067 8.1044 85.1289 8.54881 85.0434C8.59621 85.03 8.63713 84.9999 8.66401 84.9586C8.69089 84.9173 8.70189 84.8677 8.69498 84.819C8.56705 84.0797 8.56705 83.3239 8.69498 82.5847C8.70296 82.5392 8.69339 82.4923 8.6682 82.4536C8.64302 82.4148 8.60409 82.387 8.55925 82.3759C8.16571 82.2727 7.78683 82.1201 7.43167 81.9217C7.31683 81.8382 7.32727 81.8434 7.33771 81.7546C7.67559 80.536 8.21747 79.3834 8.94033 78.3458C9.22223 78.2675 9.98439 78.8261 10.2454 79.0244C10.2727 79.0509 10.3092 79.0657 10.3472 79.0657C10.3852 79.0657 10.4217 79.0509 10.449 79.0244C10.6889 78.7757 10.9471 78.5453 11.2216 78.3354C12.0151 77.735 12.2291 77.8133 12.1612 77.6045C11.9213 77.0807 11.7865 76.515 11.7645 75.9392C11.8454 75.872 11.9372 75.819 12.036 75.7826C12.5233 75.5899 13.024 75.4329 13.5342 75.3128C14.1525 75.1405 14.788 75.0372 15.4291 75.0048C15.5388 75.0518 15.6379 75.5269 15.664 75.673C15.8572 76.7171 15.7267 76.9311 15.8781 76.9468C17.3659 77.0929 17.6686 77.5053 17.773 77.3226C18.0625 76.8165 18.3999 76.3392 18.7806 75.8975C18.8902 75.7879 18.885 75.7357 19.2138 75.9236C20.1964 76.5656 21.0763 77.3523 21.824 78.2571C21.9023 78.3928 21.2236 79.1132 20.7277 79.536C20.5554 79.6874 20.8008 79.7553 21.2497 80.6114C21.6987 81.4675 21.5943 81.7077 21.8344 81.6555C22.2973 81.5446 22.7737 81.5007 23.2491 81.5249ZM95.7014 37.9043C94.607 37.4573 93.4595 37.1538 92.2873 37.0012C91.4312 36.8655 90.4236 36.7297 89.5727 36.6201C90.3923 35.4612 92.8198 32.5274 93.2269 31.8122C93.3418 31.6191 93.1225 31.3476 92.9607 31.1858C92.0524 30.2148 90.2984 29.8494 88.9515 29.6406C88.1789 29.5153 84.9528 29.1186 84.4047 29.3796C83.7469 29.6928 78.8816 37.0012 78.7355 38.1131C78.7355 38.301 78.7981 38.3741 78.9808 38.442C79.7482 38.7239 83.2092 39.1624 83.9818 39.3451C82.9378 41.1722 78.2969 47.3478 77.8428 48.2196C77.7332 48.4388 77.801 48.5693 77.9315 48.6111C78.4013 48.7976 78.8847 48.9477 79.3775 49.06C79.5655 49.1175 79.9779 48.8617 80.5782 48.4962C83.2719 46.878 94.8296 39.2459 95.717 38.2593C95.7415 38.2361 95.7607 38.208 95.7734 38.1767C95.786 38.1455 95.7918 38.1119 95.7903 38.0782C95.7888 38.0445 95.7801 38.0116 95.7648 37.9816C95.7494 37.9516 95.7278 37.9252 95.7014 37.9043ZM84.483 44.1686C80.0457 47.0972 78.5475 47.9533 78.4953 47.9899C79.2105 46.8988 83.6529 40.812 84.4151 39.3555C84.4284 39.3274 84.4352 39.2967 84.4351 39.2656C84.4349 39.2345 84.4279 39.2038 84.4143 39.1758C84.4008 39.1477 84.3812 39.1231 84.357 39.1036C84.3327 39.0842 84.3044 39.0703 84.2742 39.0632C83.7521 38.8753 79.9518 38.4681 79.0539 38.1497C79.1687 37.1787 83.9087 29.839 84.483 29.5466C85.0572 29.2543 90.6272 29.9173 91.6713 30.6638C91.1232 31.7339 88.0954 35.4821 87.6047 36.3539C87.5055 36.5314 87.4742 36.7036 87.6673 36.7506C87.8605 36.7976 92.7675 37.3718 93.8377 37.7216C92.5326 38.8126 85.9446 43.1872 84.483 44.1478V44.1686ZM50.9949 12.2519C50.9949 12.2988 51.0262 12.3563 51.1045 12.659C51.1251 12.7247 51.1702 12.7799 51.2306 12.813C51.2909 12.8461 51.3617 12.8545 51.4282 12.8365C51.4946 12.8171 51.5507 12.7722 51.584 12.7115C51.6172 12.6508 51.625 12.5793 51.6057 12.5129C51.5535 12.3093 51.5065 12.137 51.4752 12.0535C51.4447 11.9962 51.3941 11.9522 51.333 11.9302C51.272 11.9082 51.2049 11.9098 51.1449 11.9346C51.085 11.9593 51.0364 12.0056 51.0086 12.0642C50.9809 12.1229 50.976 12.1898 50.9949 12.2519Z" fill="#1E40AF"/>
<defs>
<clipPath id="clip0_830_16896">
<rect width="16.8568" height="11.4032" fill="white" transform="translate(58.8711 5.19653)"/>
</clipPath>
</defs>
</svg>
