<svg width="106" height="97" viewBox="0 0 106 97" fill="none" xmlns="http://www.w3.org/2000/svg">
<ellipse cx="75.2915" cy="34.72" rx="2.18217" ry="2.18217" fill="#2563EB"/>
<path d="M69.6368 14.5421C70.5572 15.0437 71.5658 14.2665 71.0643 14.3657C70.6523 14.4229 70.2325 14.3578 69.8572 14.1784C70.0388 13.4847 70.1423 12.773 70.1659 12.0564C69.9895 10.3202 69.3116 14.3327 69.6368 14.5421ZM72.2824 15.3248C71.7312 15.8759 71.0477 16.2783 71.6154 16.2177C72.376 16.1405 72.8886 15.3854 72.6131 14.9886C72.3926 15.1319 72.5359 15.0657 72.2824 15.3248ZM71.643 11.5438C71.4776 11.7422 71.643 12.1886 71.6816 12.3871C71.6935 12.4413 71.7254 12.4891 71.7709 12.5208C71.8165 12.5526 71.8724 12.5659 71.9274 12.5583C71.9824 12.5506 72.0324 12.5225 72.0676 12.4795C72.1028 12.4365 72.1204 12.3819 72.117 12.3264C72.0564 11.8304 71.9351 11.2021 71.643 11.5438ZM68.5675 12.5579C68.3856 11.2903 68.0163 11.8359 68.0494 12.0453C68.0935 12.8941 68.6281 12.9878 68.5675 12.5579ZM71.3123 10.6674C74.3327 10.9596 71.2131 9.6588 71.0477 10.6233L71.3123 10.6674ZM52.2641 33.3423C51.6357 33.5628 51.7625 34.2297 52.5396 33.9376C54.1287 33.2995 55.7977 32.8823 57.5001 32.6975C57.5001 37.1729 57.2741 38.9091 57.5332 39.0304C57.8143 38.9201 58.0458 32.9179 58.0292 32.4164C57.9796 31.4904 53.2506 32.9896 52.2641 33.3423ZM46.9288 39.5374C46.1186 41.2736 44.6855 43.6436 46.4438 44.2444C47.4303 44.5751 51.6082 44.2444 50.809 42.0011C50.1035 39.9949 47.8658 37.5808 46.9288 39.5374ZM74.6634 51.1725C73.9193 50.9576 67.3935 49.7285 67.0738 50.0426C66.3794 50.7426 70.232 50.3458 74.5421 51.5969C74.5984 51.613 74.6588 51.606 74.7099 51.5776C74.7611 51.5492 74.7989 51.5016 74.815 51.4453C74.831 51.3891 74.8241 51.3287 74.7957 51.2775C74.7672 51.2264 74.7197 51.1886 74.6634 51.1725ZM75.2752 47.9923C73.386 47.5408 71.4636 47.2422 69.5265 47.0994C69.4681 47.1067 69.4149 47.137 69.3787 47.1835C69.3425 47.23 69.3263 47.289 69.3336 47.3474C69.3409 47.4059 69.3712 47.4591 69.4177 47.4952C69.4642 47.5314 69.5232 47.5476 69.5816 47.5403C71.4587 47.69 73.3216 47.9829 75.1539 48.4167C75.2102 48.4328 75.2706 48.4258 75.3217 48.3974C75.3729 48.369 75.4107 48.3214 75.4267 48.2651C75.4428 48.2088 75.4359 48.1485 75.4075 48.0973C75.379 48.0462 75.3314 48.0084 75.2752 47.9923ZM32.3339 16.4106C31.634 16.4877 31.419 16.2893 31.3584 16.4436C31.2096 17.4633 33.8772 16.3665 32.3339 16.4106ZM30.0191 12.2603C30.0191 10.8879 29.5781 11.2958 29.5781 12.2603C29.5781 12.3188 29.6014 12.3748 29.6427 12.4162C29.684 12.4575 29.7401 12.4808 29.7986 12.4808C29.8571 12.4808 29.9131 12.4575 29.9545 12.4162C29.9958 12.3748 30.0191 12.3188 30.0191 12.2603ZM33.9268 11.7422C33.9315 11.7708 33.9418 11.7982 33.9571 11.8228C33.9724 11.8474 33.9924 11.8688 34.0159 11.8857C34.0395 11.9025 34.0661 11.9146 34.0943 11.9212C34.1225 11.9278 34.1518 11.9288 34.1804 11.9241C34.2089 11.9194 34.2363 11.9091 34.2609 11.8938C34.2855 11.8785 34.3069 11.8585 34.3238 11.835C34.3407 11.8115 34.3528 11.7848 34.3594 11.7566C34.366 11.7284 34.3669 11.6991 34.3622 11.6706C34.1583 10.3422 33.767 10.7391 33.9268 11.7422Z" fill="#2563EB"/>
<path d="M95.4321 64.2129C99.5493 61.0602 99.4115 55.262 99.2903 55.0746C100.872 53.4211 100.916 48.626 100.459 47.6394C99.8414 46.3001 102.597 34.4941 98.0998 31.2037C98.4966 31.0273 99.2517 30.5753 99.3068 29.9856C99.406 28.8226 98.3092 28.6352 97.4714 28.1392C93.9715 26.0834 93.7511 21.5252 86.8946 19.8387C86.6411 19.3702 86.5859 19.2875 86.382 18.9458C91.3425 19.2875 90.7031 16.5703 89.8488 15.8978C89.311 15.5869 88.7347 15.3478 88.1347 15.1868C90.2236 14.3105 90.163 11.6814 87.4733 11.9239C87.1536 11.9515 88.1898 11.1027 87.3465 10.0169C87.1569 9.72404 86.8893 9.48993 86.5738 9.34094C86.2583 9.19195 85.9074 9.13401 85.5608 9.17363C85.5608 7.32722 84.6734 6.57764 83.6207 6.57764C85.1695 4.30684 83.1026 1.777 80.2035 3.18247C80.8924 1.58409 79.057 -1.29299 74.8517 2.04156C74.5871 0.884112 70.9274 -0.322938 70.5305 1.36914C70.3266 2.23446 68.877 -0.185147 66.2314 1.79904C65.5094 2.35021 65.1291 3.25963 65.9779 3.54624C63.3488 3.73914 62.3402 6.18631 64.3795 6.71543C64.8204 6.83118 63.5418 7.1288 63.7457 8.77127C63.9 10.0279 65.0134 10.75 65.9228 10.061C66.2259 9.83502 66.1377 9.78542 66.1102 10.0224C66.1027 10.1154 66.114 10.209 66.1435 10.2975C66.1729 10.386 66.2199 10.4677 66.2817 10.5377C66.3434 10.6077 66.4186 10.6645 66.5028 10.7047C66.5869 10.745 66.6784 10.7679 66.7716 10.772C66.8549 11.2548 66.9822 11.7289 67.1519 12.1885C65.1567 12.1885 63.9717 13.9081 64.5008 14.7459C65.1126 15.7049 66.1873 15.0656 64.8425 15.76C62.2355 17.1104 62.8914 19.3481 64.4898 19.3316C66.0881 19.3151 65.0409 18.7253 65.2889 20.3237C65.4433 21.3764 67.1519 22.4071 68.5959 21.0843C69.0038 21.5748 69.0865 21.889 69.5825 22.1425C65.4433 24.8983 66.8873 26.2377 61.519 31.6501C60.8962 32.284 60.7143 32.047 60.4167 32.3391C60.119 32.6312 60.5269 34.3839 62.0701 34.2571C60.3781 39.2176 62.0701 37.6909 59.623 37.9499C59.5679 37.9499 60.2678 30.7131 60.1741 29.7155C60.119 29.225 60.0198 29.236 54.4861 30.4982C54.668 26.8054 54.6294 19.1717 54.3097 19.0946C54.2546 19.0946 50.2697 19.0946 50.2697 18.9899C50.1815 18.6371 50.4406 17.1214 50.3689 16.8348C50.3028 16.6474 50.0823 16.6529 49.9059 16.5372C47.7674 15.1152 50.4571 15.8923 50.661 15.6829C50.9587 15.3522 50.661 12.0176 51.2122 12.0176C51.7634 12.3098 51.3224 15.0986 51.5319 15.3632C52.2098 15.9585 51.7468 12.8113 52.4799 12.8995C52.8822 12.9767 52.4248 15.2475 52.5791 15.6223C53.0807 16.3388 52.9043 14.5199 53.4995 13.9302C54.194 13.594 53.4665 18.8907 53.3893 19.0009C53.6704 19.2214 54.905 12.5743 53.2846 13.6215C52.8106 13.9302 53.2846 13.4892 52.9373 12.7562C52.7444 12.3759 52.1933 12.3153 51.8846 12.8554C51.5925 10.9263 50.628 11.3948 50.4792 12.7507C50.3358 15.3081 50.3965 14.9223 50.3524 15.3797C48.8918 14.8286 47.8005 16.1238 49.9445 16.8679C50.2807 16.9836 49.9445 18.2072 50.0492 18.9072C50.0492 19.0229 50.1099 18.9844 49.8233 18.9568C48.6438 18.8355 45.1163 28.9274 44.0305 30.3769C45.5352 32.5816 45.0336 32.9068 44.8959 32.543C43.4022 29.4565 37.1796 22.9913 30.2624 20.6544C29.7113 20.478 29.8436 20.6544 29.7113 19.9379C29.3089 19.3481 35.1899 22.374 34.6718 13.5003C37.1575 13.5829 36.7937 9.69172 34.7159 9.58149C36.0882 7.90044 35.6583 6.51701 34.2749 5.0454C33.6631 0.636087 28.9231 0.536878 24.7067 2.14628C23.7091 2.52658 23.5327 3.12184 23.0201 4.0037C22.5241 4.08087 22.2981 3.72261 21.3391 4.27377C18.4234 5.95482 19.1344 10.7059 21.5485 12.6239C21.1131 13.8861 21.4934 15.286 23.1359 15.1703C23.1359 20.4505 23.6154 19.2269 21.1021 19.6623C3.18924 22.7653 -1.81533 44.4812 5.95058 51.6905C6.38048 52.0928 4.4955 54.788 7.85761 56.7005C7.96532 59.1489 8.54943 61.5527 9.57724 63.7775C10.3434 65.431 10.3709 65.0727 10.2938 65.3152C7.01984 75.7322 0.780654 94.3285 0.681444 94.7695C0.323187 96.3623 1.88849 96.8253 2.61052 95.6017C2.9302 95.0506 11.7543 71.1852 12.8897 68.0766C13.4036 68.4852 13.939 68.866 14.4936 69.2175C14.2566 73.4559 12.9008 91.8152 13.1433 92.8735C13.1886 93.131 13.3185 93.366 13.5125 93.5412C13.7065 93.7165 13.9535 93.822 14.2142 93.841C14.475 93.8599 14.7346 93.7913 14.952 93.646C15.1693 93.5007 15.332 93.287 15.4141 93.0388C15.4967 92.7632 17.2605 80.6321 18.3297 71.1411C24.6681 73.726 31.8498 74.0402 33.145 74.0567C34.2474 96.0537 34.082 94.7309 36.4079 94.0585C36.8158 93.9372 36.8268 94.0585 36.893 91.4515C37.9953 92.3995 42.8455 96.208 44.3171 96.4946C44.7581 96.5773 45.1659 95.6954 44.5872 94.6758C41.2251 88.7618 40.8558 91.49 43.9479 87.5823C44.2951 88.4256 45.6399 91.8538 46.1525 91.9365C47.4477 92.0798 46.9517 94.8962 47.7454 94.9238C49.1564 94.9789 56.4703 94.4718 57.0435 93.6616C57.286 93.3254 56.7624 92.6034 56.09 92.3003C48.7926 89.6381 51.7634 94.5986 51.2067 78.9731C51.2067 78.5763 54.3538 74.9331 55.853 70.3033C56.6853 67.7293 55.853 66.616 56.2664 65.3428C57.1758 62.339 55.5664 62.9673 58.8789 62.7964C59.5844 64.1633 60.108 63.3476 60.4938 65.0011C60.8848 66.7713 61.7022 68.4192 62.8748 69.8017C63.0897 67.2782 63.6459 64.7956 64.5283 62.4216C65.0795 62.372 64.4567 61.8374 63.2 70.1379C63.2496 70.193 63.0402 85.2619 63.6961 85.5705C64.2117 85.7358 64.7478 85.8285 65.2889 85.8461C65.1567 85.9508 65.2449 89.583 65.1842 89.583C65.1842 89.7208 60.7198 91.1704 60.2237 93.4136C60.1576 93.9041 60.1466 94.1081 60.6592 94.1081C62.3623 94.0144 68.0889 92.5869 68.4637 92.5869C68.4637 93.1986 68.3699 93.2483 68.9487 93.2427C69.4392 93.2427 70.051 93.2428 70.2108 93.0168C70.3597 92.6475 70.0179 86.7335 70.1061 86.0445C70.1061 85.9894 70.0124 86.0445 71.3573 86.0445C71.4124 93.9097 71.473 93.1656 72.0242 93.3254C74.3776 93.7278 73.9477 94.2459 74.78 80.4557C76.9075 82.3848 75.9595 82.4069 78.6381 80.6872C79.0019 81.1447 80.8428 83.3218 80.8428 83.3383C79.9609 85.058 78.4287 88.3649 79.7735 89.8035C80.1539 90.1287 80.6003 89.5334 84.3868 84.5343C85.8749 82.5612 85.0978 84.4351 85.9852 83.6745C87.5891 82.3021 87.0875 83.1234 82.6782 77.9975C85.2631 76.1291 84.982 76.6582 82.9372 74.7291C71.7927 64.1853 75.8162 71.4828 89.9315 66.8144C90.2732 70.3639 92.8637 92.3719 93.3873 92.7522C93.7456 93.0113 94.9306 92.8624 95.2999 92.6971C95.9337 92.4105 95.1455 84.5178 93.9881 70.2206C98.6454 82.9415 103.297 95.1112 103.297 95.1663C103.915 96.4726 105.452 96.2135 105.37 94.9183C105.353 94.9403 97.014 69.3167 95.4321 64.2129ZM85.6765 83.3824C85.4175 83.1123 85.3568 82.9084 85.1254 82.9856C84.6899 83.206 80.5617 89.0484 79.9665 89.4232C78.7429 87.6154 81.2727 83.5147 81.146 83.2612C81.0688 83.1564 82.7002 82.71 84.5411 80.599C86.6466 83.0352 86.6135 82.6108 85.671 83.3824H85.6765ZM84.3151 80.3069C83.4075 81.4499 82.2838 82.4031 81.0082 83.1123C79.3547 81.2825 79.1287 81.0124 78.8035 80.6156C83.3396 77.744 81.9176 77.496 84.3096 80.3069H84.3151ZM99.1304 55.4108C99.0368 59.6493 97.4439 62.3555 95.3384 63.9153C93.3597 57.5383 93.8889 59.4729 94.17 57.384C99.6816 55.9014 99.136 54.799 99.1249 55.4108H99.1304ZM99.9737 46.9008C98.8218 45.6166 97.0471 45.2473 95.3991 44.867C96.7715 44.1671 98.3864 43.2962 98.7942 42.2049C99.3454 40.3971 98.5021 36.0484 98.1604 34.9902C96.7439 30.5533 95.8179 31.9643 97.6092 31.3966C101.236 33.8437 100.349 41.3561 99.9682 46.9008H99.9737ZM78.4177 46.989C75.2099 47.3583 76.9461 48.1244 76.213 48.5543C75.6949 48.852 75.5186 49.4748 76.3563 49.6567C76.9736 49.7944 76.9075 49.6567 76.6209 49.8385C76.0036 50.2078 75.8437 51.1007 78.1531 50.8692C77.8886 51.3763 76.5603 53.9282 76.1965 54.3801C76.0642 54.5455 67.0306 53.9833 61.067 53.2778C61.1166 53.2227 66.9149 45.9198 68.3203 44.6686C68.4526 44.608 78.2413 45.771 78.2964 45.771C78.1874 46.1777 78.2285 46.6101 78.4122 46.989H78.4177ZM76.7256 50.4558C76.3122 49.9047 79.0901 50.0314 78.4618 49.4307C78.4067 49.3976 73.1045 49.1386 78.6822 48.5213C78.733 48.5097 78.7779 48.4802 78.8086 48.438C78.8392 48.3959 78.8535 48.3441 78.8488 48.2922C78.844 48.2403 78.8207 48.1919 78.7829 48.156C78.7452 48.12 78.6957 48.099 78.6437 48.0969C77.6516 48.1244 77.0343 48.3063 76.8358 48.0969C76.5107 47.463 78.3791 47.4685 78.6933 47.3528C79.2444 47.204 78.2468 46.2505 78.7759 45.6993C79.0515 45.4513 79.8507 47.0331 79.9665 47.1378C81.5703 48.2016 87.9142 38.4349 91.7889 38.0712C92.748 37.9775 90.1354 37.8617 89.0662 38.8924C86.8615 32.6532 86.9166 32.8737 86.9332 32.6312C87.0048 31.6722 88.0851 31.2643 89.0166 31.4186C89.948 31.5729 90.1465 32.1792 91.1496 32.1847C91.6627 32.1874 92.1711 32.0868 92.6446 31.8889C93.118 31.691 93.5468 31.3999 93.9054 31.0328C94.6147 31.3284 95.3701 31.4981 96.1376 31.5344C97.3833 34.202 97.8187 34.4611 98.2927 37.498C98.5407 39.0798 99.0478 41.7585 97.9344 42.7891C95.592 44.9607 79.8948 51.5416 76.7201 50.4558H76.7256ZM79.6633 45.9198C80.7656 46.0631 80.6003 45.9198 80.3853 46.3993C80.0932 47.0111 80.2972 46.8182 79.6578 45.9198H79.6633ZM67.8739 16.9561C64.9913 16.0632 68.0062 12.679 67.8739 13.7538C67.8739 13.8089 67.7141 13.8585 67.67 13.8861C67.1188 14.2002 66.4243 16.6419 68.8715 16.7411C70.1943 16.8017 68.7282 17.2261 67.8739 16.9561ZM68.0062 13.6491C67.1794 11.4444 67.1464 11.7917 66.9645 10.783C68.0668 10.6563 69.2573 10.7444 68.5408 10.3311C68.1495 10.1051 67.7637 10.3697 67.94 10.2208C69.5935 8.65002 69.0038 7.07369 69.3345 7.92799C69.4936 8.30574 69.7456 8.63712 70.0671 8.89133C70.3886 9.14554 70.7692 9.31432 71.1734 9.38197C71.5777 9.44962 71.9925 9.41394 72.3792 9.27826C72.766 9.14258 73.1122 8.9113 73.3856 8.60593C73.8485 9.83502 74.3666 10.4744 75.8272 10.6177C76.8028 10.7114 76.6484 10.5901 77.0177 10.2208C78.4342 8.80435 79.7735 11.5987 78.0539 12.4255C77.4256 12.646 78.324 15.4789 80.005 14.7569C81.2617 14.2058 80.92 11.5987 79.52 11.494C79.0019 11.4554 79.2665 11.3232 79.3492 11.3121C81.168 11.0531 81.9396 14.1947 80.3302 15.0876C78.8531 15.9089 77.0839 14.1947 77.7453 12.4806C76.5603 12.6405 76.5658 14.1892 77.1941 15.2089C77.2713 15.3301 74.7194 15.4293 74.9564 17.2923C75.1162 18.097 76.0587 18.2789 76.8689 18.2623C75.1438 22.2858 77.3429 22.848 79.2499 20.9355C79.4072 21.4435 79.6335 21.9275 79.9224 22.374C80.8208 23.5149 71.1754 26.3644 71.4565 21.9221C72.0001 21.616 72.5164 21.2638 72.9997 20.8693C73.0718 20.3195 73.0588 19.7618 72.9612 19.2158C72.7131 17.7773 70.3156 19.8111 67.9841 13.6381L68.0062 13.6491ZM74.8351 32.5926C73.7328 31.7438 72.0793 25.3834 71.7596 23.8566C75.965 26.3369 79.757 23.0795 79.5421 23.548C78.8972 24.9039 75.4855 31.6281 74.8131 32.5816L74.8351 32.5926ZM75.2595 36.346C73.2478 36.572 72.7297 33.8658 74.2729 33.2044C77.2823 32.091 78.1641 36.0098 75.2595 36.346ZM70.4313 22.4181C70.4313 22.4181 70.9274 22.1646 71.2636 21.9772C71.2085 23.2283 71.7982 23.4543 70.4313 22.4071V22.4181ZM60.819 33.3753C60.0694 32.2399 61.0505 32.9178 63.5032 30.1675C65.4157 28.029 67.4164 23.4378 69.8471 22.4512C69.9849 22.5724 70.7234 23.1512 71.4289 23.6417C71.8423 26.3148 73.2478 31.358 74.284 32.6587C74.3336 32.7194 71.8313 33.5241 73.5399 36.1421C76.5382 38.5452 78.9964 33.3863 75.6343 32.6973C74.8461 32.543 75.2816 33.6123 79.0625 25.1905C80.1649 22.7102 79.5862 23.537 80.5121 22.8425C81.3113 23.2779 83.5325 23.4267 83.5325 21.0457C85.4065 22.5945 87.7599 22.0047 87.1426 20.3512C92.7645 21.878 93.4424 25.2235 96.0164 27.5825C97.6699 29.1148 99.0037 28.9494 98.8714 29.9305C98.8714 30.41 97.273 31.6446 94.7928 30.9501C93.944 30.7131 93.8503 30.5368 93.6905 30.7352C93.3214 31.1346 92.8623 31.4401 92.3513 31.6261C91.8403 31.8121 91.2922 31.8732 90.7527 31.8044C90.2842 31.6832 90.0197 31.4021 89.3583 31.1651C88.4599 30.906 87.1536 31.1651 86.7513 32.1021C85.4505 26.866 85.8088 26.1715 85.5112 25.8739C84.3537 27.0534 88.2064 37.5696 88.73 39.168C87.793 39.7192 85.3679 42.1278 84.6018 42.8939C84.4088 43.0868 80.4019 42.1718 67.0913 42.1057C68.2377 39.8184 70.1502 38.3633 70.2494 38.0877C70.2825 37.9058 68.0062 35.6185 68.4251 33.0942C69.0589 29.236 70.7124 27.1085 70.0124 27.7424C68.6896 29.8037 67.659 32.1131 68.1715 34.5492C67.9355 34.719 67.6623 34.83 67.3748 34.8731C67.0872 34.9163 66.7935 34.8903 66.518 34.7973C65.4157 34.3839 65.1511 32.7083 62.219 33.9154C61.9585 33.987 61.682 33.9732 61.43 33.876C61.178 33.7787 60.9638 33.6032 60.819 33.3753ZM62.4119 34.2241C63.415 34.0532 64.1866 33.6729 64.8535 34.0863C65.4047 34.428 66.4519 36.0043 68.2156 35.0122C68.7007 35.7232 68.5298 36.798 69.7534 38.0326C64.6 43.1254 67.7306 44.5804 58.9836 44.4537C59.1159 43.1033 59.419 39.8735 59.5679 38.1373C62.2686 37.8176 60.5214 39.62 62.4119 34.2241ZM59.7112 29.8643C59.7112 32.3887 58.5592 44.6521 58.2781 47.1599C55.6711 48.0307 38.552 52.8424 32.6159 53.7739C32.7372 50.2078 33.7844 39.6916 34.7434 36.2523C37.6977 34.7973 56.8506 30.2832 59.7112 29.8643ZM20.5785 48.2236C22.232 47.1213 30.5325 45.308 33.0734 44.7237C33.0734 44.856 32.9797 45.5284 32.9631 45.6607C19.6635 48.378 22.3257 48.9787 20.595 48.2236H20.5785ZM35.4599 23.4708C32.3183 30.7738 32.1529 28.6187 34.9694 29.4951C35.2615 29.5888 30.9238 38.7546 30.9073 39.0578C30.2404 52.2306 30.4994 36.2358 31.8002 23.074C31.9821 21.2607 31.2545 20.9134 35.4654 23.4708H35.4599ZM31.8884 42.5522C31.8884 42.6106 31.8652 42.6667 31.8238 42.708C31.7825 42.7494 31.7264 42.7726 31.6679 42.7726C31.6094 42.7726 31.5534 42.7494 31.512 42.708C31.4707 42.6667 31.4474 42.6106 31.4474 42.5522C31.4419 41.3065 31.8884 40.6561 31.8884 42.5522ZM29.8436 20.715C32.3624 21.5803 31.7671 20.8308 31.3758 24.8653C31.3758 24.7495 30.8632 24.4464 29.6837 23.2449C30.2128 22.7653 29.9813 21.415 29.8436 20.715ZM29.9097 26.3148C30.2845 26.2211 30.3396 25.2125 30.3727 24.518C31.6183 25.6755 31.3537 24.8157 31.0782 28.062C30.3396 26.1274 30.3451 26.2432 30.2459 26.1991C30.1081 26.4747 29.3751 26.8164 28.9948 26.5133C28.9562 26.9046 29.1656 31.4186 29.1987 32.6918C20.1872 16.8789 26.1067 28.6959 27.8428 25.4991C29.4467 26.5022 28.879 26.5739 29.9207 26.3148H29.9097ZM34.7324 9.89014C36.3859 9.85707 36.6394 12.9987 34.804 13.0704C32.9687 13.142 32.9246 9.92321 34.7324 9.89014ZM33.1505 7.74611C33.2828 8.18153 33.5253 9.0689 33.7017 9.87912C32.8254 10.6122 33.371 11.2019 32.7206 11.3011C32.5994 10.9925 32.5994 10.8161 32.434 10.9925C32.434 11.4499 32.5828 11.3232 31.9655 11.4389C30.9238 11.6263 31.701 11.5161 31.0671 10.7885C30.8427 10.5064 30.5451 10.2914 30.2067 10.1669C29.8684 10.0425 29.5024 10.0133 29.1486 10.0827C28.7949 10.1521 28.467 10.3173 28.2007 10.5604C27.9345 10.8034 27.7401 11.115 27.6389 11.461C27.1594 11.461 25.6768 11.4058 25.4342 11.3673C25.1035 10.3917 24.5083 6.91385 24.5028 6.86976C28.631 9.42716 32.0978 8.639 33.1505 7.74611ZM31.1664 12.7066C30.8246 13.7318 28.6365 14.101 28.0853 12.4586C27.209 9.89014 32.2191 9.49881 31.1553 12.7066H31.1664ZM22.232 14.7514C21.5155 14.3821 21.3336 12.1609 22.5902 11.9956C23.406 11.8964 23.8414 12.8003 24.1666 12.9491C25.0043 13.3239 25.5224 12.8003 25.5224 11.8743H27.5728C27.457 14.7404 31.9821 14.6302 31.5026 11.9239C32.8805 11.8633 32.2577 10.9814 32.9301 13.9632C32.4891 14.1782 31.7396 14.2774 31.7065 14.3987C31.8608 14.6412 33.36 14.5034 33.36 13.9192C33.1891 12.9215 33.0624 12.3208 32.9742 11.9901C33.0732 12.2985 33.235 12.583 33.4494 12.8258C33.6638 13.0687 33.9261 13.2645 34.2198 13.4011C34.2529 13.8255 34.2584 14.1451 34.2694 14.7073C34.4403 21.4425 29.3089 18.8851 29.2428 19.6678C29.2428 19.9434 29.8987 22.4236 29.4357 22.859C28.0688 22.5283 23.6595 19.7229 23.5217 19.3591C23.5162 13.0263 23.5052 15.4018 22.232 14.7514ZM28.5263 23.0189C28.1217 24.0171 27.6408 24.9827 27.0877 25.907C23.4225 23.4543 23.0036 22.0158 21.747 19.8111C24.7067 19.304 21.7414 19.8607 28.5263 23.0244V23.0189ZM21.3611 19.9764C31.6569 37.6137 30.6042 34.5327 30.4057 37.3932C29.0499 36.5555 21.747 31.9588 20.8486 31.2312C21.0635 30.5919 23.2241 28.6187 23.3453 28.2549C23.4666 27.8912 16.792 21.2552 16.814 21.2496C18.2844 20.7075 19.7957 20.2836 21.3336 19.982L21.3611 19.9764ZM13.4078 44.7789C14.3062 44.9938 14.0968 45.1426 14.2897 44.8285C16.6762 40.9703 17.762 33.739 17.8668 33.6508C18.1864 34.0422 17.3707 40.5735 14.6369 44.6741C14.1188 45.4513 14.1133 44.6741 15.618 46.4434C19.9226 45.3906 27.3688 44.6135 33.1836 44.0017C33.1836 44.145 33.1395 44.3765 33.123 44.5529C29.3475 45.308 17.6408 47.1985 20.0659 49.5574C20.8265 50.2023 32.0262 54.5179 32.5718 53.9668C38.2543 53.2392 57.1538 48.1189 58.5427 47.5402C58.6915 47.441 58.675 47.6725 58.9506 44.845C62.2134 44.9552 63.3599 45.3962 65.4047 43.9025C65.9981 43.4735 66.5319 42.9675 66.992 42.3978C72.421 42.464 78.8586 42.6789 84.271 43.2907C78.8366 48.852 81.9562 45.8591 80.5231 45.6662C78.1145 45.3355 68.2266 44.4261 68.2873 44.5198C68.1329 44.3049 60.9899 52.5282 60.571 53.2888C60.1521 54.0494 76.1028 55.1077 76.4445 54.7494C76.7862 54.3912 78.3571 51.3763 78.6492 50.8417C81.4491 50.4779 85.2631 49.9488 94.881 45.1592C103.204 47.2426 100.574 51.1172 96.5345 52.6329C95.1235 53.1841 81.5814 57.0974 63.3323 58.4588C29.9648 60.9445 9.92998 54.0494 11.0103 54.0494C11.2803 54.0494 11.4016 53.6967 11.8701 52.8259C14.2291 54.9037 20.2147 56.7336 18.7321 54.8156C19.0391 54.8609 19.3511 54.8609 19.658 54.8156C20.2423 54.6833 20.2809 54.1266 19.8124 53.7132C19.5754 53.5093 19.5423 53.5754 19.7517 53.5589C20.6667 53.4928 20.7218 52.7818 20.0108 52.3794C19.0518 51.8282 17.3652 51.8889 16.8802 51.007C16.5274 50.3677 17.7841 49.7228 17.3487 49.0228C17.0455 48.5378 16.5605 48.7362 16.0865 49.0559C15.1275 49.7228 15.4747 49.7779 14.7857 49.1441C16.0424 48.2677 16.4392 48.6976 16.2353 48.0748C15.9995 47.3864 15.6038 46.7636 15.0807 46.2578C14.5575 45.7519 13.9219 45.3773 13.2259 45.1647C8.64577 44.2277 7.02535 47.3693 6.88204 47.3693C6.57339 46.5371 9.36228 43.8308 13.3803 44.7678L13.4078 44.7789ZM16.781 51.481C17.4368 52.3022 20.1376 52.4566 20.0879 53.0518C19.8565 53.6802 16.8085 52.1479 16.9463 52.9581C17.0345 53.2006 17.2109 53.0739 18.2911 53.4487C20.4131 54.1927 20.2974 54.9644 17.1006 53.8841C16.5109 53.6857 16.4282 53.8841 16.5219 54.099C16.6156 54.314 18.5943 54.7384 18.4841 55.2014C18.3683 55.5596 13.7385 54.2093 11.9803 52.6495C12.6231 51.3474 13.5341 50.1959 14.6535 49.2708C15.0999 49.7063 15.2873 49.9047 15.3975 49.8661C15.5078 49.8275 17.0951 48.4386 17.1558 49.3149C17.1668 49.9102 15.8936 50.4007 16.7534 51.47L16.781 51.481ZM8.09461 56.8273C12.9504 59.5115 13.1212 56.3919 10.4591 64.8798C9.0427 62.4158 8.22344 59.6541 8.06705 56.8163L8.09461 56.8273ZM2.19163 95.4474C1.99322 95.8332 1.08931 96.1253 1.32079 94.8962C2.32943 89.6822 9.2741 71.1962 12.4874 58.5965C13.6999 58.9768 14.5157 59.2028 15.7337 59.517C14.8243 62.0468 2.41761 95.1002 2.19163 95.4474ZM15.1881 91.8373C14.9401 93.4908 13.6669 93.5845 13.5346 91.8042C13.3803 89.4397 14.1629 83.2501 14.692 69.3553C15.7756 70.0105 16.9068 70.5835 18.0762 71.0694C17.8612 72.7505 15.9156 87.0036 15.1881 91.8373ZM36.3418 93.623C34.4458 94.3506 34.8316 95.0561 33.4482 74.0567C33.7072 74.0567 35.2836 74.0843 36.6835 73.963C36.5237 84.0438 36.5567 92.2341 36.3418 93.623ZM13 67.79C15.4196 61.176 12.8291 65.0948 19.6635 68.4073C25.7264 71.345 31.1939 71.7143 37.9457 71.6206C38.2653 72.5245 38.4968 73.2024 38.5464 73.2741C32.0758 74.4646 19.151 72.7229 13 67.79ZM36.9205 90.305C37.2457 71.2402 36.1048 74.1504 38.6953 73.704C39.7259 76.5535 40.233 77.9038 40.5913 78.8684C37.0307 88.5082 37.152 88.0287 37.5047 88.2382C38.0063 88.5689 37.8906 88.1059 36.9205 90.305ZM43.7439 87.1634C43.0533 88.0707 42.3175 88.9426 41.5393 89.7759C40.2584 89.2584 39.0184 88.6449 37.8299 87.9405C37.7803 87.9075 40.1889 80.7368 40.696 79.1219C43.4353 86.502 43.8046 87.0862 43.7439 87.1634ZM50.5894 90.5255C50.3138 90.6082 47.3485 91.3192 46.2407 91.5011C32.5167 63.2208 45.0116 73.5055 28.3444 70.7993C24.4862 70.1655 19.2006 68.5506 16.1912 65.701C13.8763 63.4964 14.3062 64.3231 15.9487 59.5831C16.8306 59.7595 28.9121 63.0499 48.4013 63.0499C51.2177 70.2757 50.9917 88.1555 50.5894 90.5255ZM51.1406 78.1353C50.8705 74.0843 50.628 67.9553 48.8312 63.0444C55.142 63.0775 54.3924 62.824 54.6515 63.1492C58.0081 67.3546 54.1885 73.8252 51.1461 78.1353H51.1406ZM55.853 65.0893C55.0759 62.4382 53.7365 63.0775 56.2058 62.9452C56.1441 63.6676 56.0281 64.3843 55.8585 65.0893H55.853ZM60.2017 63.6121C58.8238 62.6145 59.5568 62.8019 60.1466 62.7689C60.1907 63.6507 60.2678 63.6562 60.2072 63.6121H60.2017ZM69.7699 92.8239C68.629 92.8239 68.8495 93.0884 68.8219 92.4436C68.7833 91.6444 62.5552 93.7278 60.5544 93.7278C60.7418 92.0743 63.8614 90.5972 65.3826 89.9302C65.3826 89.9302 65.7299 89.9302 66.9039 90.057C70.7069 90.4594 69.7754 88.7728 69.7754 92.8239H69.7699ZM65.3606 85.9067C67.9511 86.1272 69.8746 86.0225 69.8691 86.0776C69.7754 86.7666 69.8691 89.6326 69.7589 89.6547C68.339 89.9234 66.8801 89.9102 65.4653 89.6161C65.3826 85.7028 65.4267 86.1382 65.3606 85.9067ZM7.59305 56.0226C6.71118 55.4714 5.98916 54.9809 6.40804 52.2196C13.6944 58.3926 56.564 64.1964 95.4046 53.3825C99.8139 52.1534 100.464 49.8937 100.459 50.0755C100.315 55.0967 98.8493 55.8683 94.429 57.0533C57.5782 66.9136 16.3841 61.7657 7.59305 56.0226ZM71.9195 92.8845C71.7762 91.964 71.7321 87.1413 71.721 86.0611C72.8785 86.028 72.5312 86.987 73.143 79.1164C73.1816 79.1495 73.6942 69.934 74.0304 67.4317C74.0745 67.0845 74.2178 67.0018 74.2068 67.4317C74.2068 67.7073 74.2068 68.0711 74.1792 68.534C73.7218 81.3376 73.0769 79.0062 74.3446 80.1085C73.3856 93.5679 73.8265 93.612 71.9195 92.8845ZM76.0201 68.275C75.8878 68.275 76.1138 68.4459 74.2895 66.7813C75.4745 66.6215 85.8639 66.5609 91.1386 62.4547C91.585 63.7058 91.4803 63.4137 92.2795 65.6129C87.578 67.5916 80.9751 68.5065 76.0201 68.275ZM93.6188 92.416C93.5361 92.3168 90.637 71.5213 90.0969 66.7868C93.0401 65.8499 92.07 65.0452 93.5912 69.212C95.0298 91.2916 95.9833 93.601 93.6188 92.416ZM103.799 95.2159C103.661 94.9734 90.8354 61.0437 89.9646 58.4532C91.0669 58.1887 92.4724 57.8359 93.3102 57.6155C96.3857 70.2923 103.997 90.283 104.692 94.9073C104.863 96.0316 104.207 95.971 103.799 95.2159Z" fill="#1E40AF"/>
</svg>
