<svg width="92" height="91" viewBox="0 0 92 91" fill="none" xmlns="http://www.w3.org/2000/svg">
<path d="M21.0829 11.7899C21.0692 12.0188 20.9978 12.2406 20.8752 12.4344C20.7527 12.6283 20.583 12.788 20.3821 12.8987C20.5527 13.1878 20.6333 13.5212 20.6137 13.8563C20.594 14.1914 20.475 14.5131 20.2717 14.7803C20.0728 15.0408 19.8074 15.243 19.5033 15.3655C19.1992 15.488 18.8677 15.5262 18.5437 15.4763C18.4573 15.7115 18.2509 16.1195 18.0157 16.1963C17.9794 16.2152 17.9391 16.2251 17.8981 16.2251C17.8572 16.2251 17.8168 16.2152 17.7805 16.1963C17.8375 16.5332 17.9965 16.8445 18.2359 17.0883C18.4754 17.332 18.7839 17.4965 19.1197 17.5595C20.2189 17.7563 21.2461 17.3962 21.2461 16.2779C21.5092 16.3309 21.7806 16.3262 22.0417 16.2641C22.3028 16.2019 22.5472 16.0838 22.7581 15.9179C22.9083 15.7948 23.0327 15.6432 23.1242 15.4718C23.2156 15.3005 23.2723 15.1128 23.2909 14.9195C23.3389 13.6811 22.4797 12.8603 21.9469 12.8603C22.3357 12.1739 22.0861 11.5787 21.4669 11.1275C21.3091 11.0295 21.1325 10.9658 20.9485 10.9403C21.0477 11.2121 21.0934 11.5006 21.0829 11.7899ZM11.4877 12.1451C11.5094 12.1451 11.5301 12.1365 11.5454 12.1212C11.5607 12.1058 11.5693 12.0851 11.5693 12.0635C11.5693 12.0418 11.5607 12.0211 11.5454 12.0058C11.5301 11.9904 11.5094 11.9819 11.4877 11.9819L11.1949 11.9483C11.1037 11.9483 10.9549 11.9483 10.8685 11.9195C10.8126 11.215 10.8126 10.5071 10.8685 9.80265C10.8676 9.78258 10.8596 9.76348 10.8461 9.74862C10.8326 9.73376 10.8143 9.72408 10.7944 9.72123C10.7745 9.71839 10.7543 9.72257 10.7372 9.73305C10.72 9.74353 10.7071 9.75965 10.7005 9.77865C10.4918 10.3131 10.3986 10.8856 10.4269 11.4587C10.4194 11.6569 10.4371 11.8553 10.4797 12.0491C10.5949 12.3515 11.1757 12.2171 11.4877 12.1451ZM9.26052 9.34665C9.03012 9.40905 8.71812 9.63465 8.83332 9.72105C9.00256 9.79873 9.19543 9.80734 9.37092 9.74505C9.53892 9.70185 9.81732 9.53385 9.81252 9.44745C9.80772 9.36105 9.48612 9.28425 9.26052 9.34665ZM12.3709 9.68265C14.0605 10.0331 13.2781 9.38985 12.4477 9.28425C12.2317 9.25545 11.7277 9.28425 11.7373 9.40425C11.7469 9.52425 12.2413 9.65385 12.3709 9.68265ZM12.7501 10.4891C12.7367 10.4653 12.7187 10.4445 12.6971 10.4277C12.6755 10.411 12.6509 10.3987 12.6245 10.3916C12.5982 10.3844 12.5707 10.3826 12.5437 10.3861C12.5166 10.3897 12.4905 10.3986 12.4669 10.4123C12.3469 10.4795 12.3517 10.5515 12.3805 10.9403C12.3843 10.995 12.4097 11.046 12.4512 11.082C12.4926 11.118 12.5466 11.1361 12.6013 11.1323C12.6561 11.1284 12.707 11.103 12.743 11.0616C12.7791 11.0202 12.7971 10.9662 12.7933 10.9115C12.8005 10.7693 12.786 10.6268 12.7501 10.4891ZM9.35172 10.7531C9.35618 10.6983 9.3387 10.644 9.30315 10.6022C9.26759 10.5603 9.21686 10.5343 9.16212 10.5299C9.10738 10.5254 9.05311 10.5429 9.01125 10.5784C8.96939 10.614 8.94338 10.6647 8.93892 10.7195C8.92982 10.8361 8.92982 10.9532 8.93892 11.0699C8.94274 11.1246 8.96815 11.1756 9.00956 11.2116C9.05096 11.2476 9.10498 11.2657 9.15972 11.2619C9.21446 11.258 9.26544 11.2326 9.30145 11.1912C9.33746 11.1498 9.35554 11.0958 9.35172 11.0411C9.36132 10.9403 9.34692 10.8107 9.35172 10.7531ZM11.0173 13.8779C11.0173 14.0315 11.6269 14.0699 11.9437 13.7531C12.1789 13.5179 12.1645 13.1579 12.0685 13.1339C11.9725 13.1099 12.0349 13.1339 11.6893 13.4315C11.4733 13.6139 11.0077 13.7579 11.0173 13.8779Z" fill="#2563EB"/>
<path d="M91.3971 9.88899C91.2716 9.84846 91.1388 9.83562 91.0079 9.85137C90.877 9.86711 90.751 9.91106 90.6387 9.98019C90.7305 9.76043 90.7619 9.52018 90.7299 9.28419C90.6435 8.89539 90.0771 8.71779 89.6115 9.28419C89.5827 8.97699 89.4435 8.76579 89.1987 8.72259C88.5891 8.60739 88.3251 9.76899 88.1907 10.3786C87.8739 10.1434 87.3555 9.74499 87.0963 10.057C87.023 10.1353 86.9736 10.233 86.9541 10.3384C86.9345 10.4439 86.9455 10.5528 86.9859 10.6522C87.1726 10.9784 87.4384 11.2524 87.7587 11.449C87.6675 11.6602 87.2787 12.217 87.0771 12.5434C86.9139 12.4954 86.5683 12.4042 86.4963 12.5434C84.8115 14.8378 80.2563 20.1562 77.4195 20.0458C73.0371 19.8778 67.5219 17.7562 66.9699 17.833L66.1971 16.1386C67.0472 15.5565 67.6855 14.7143 68.0163 13.7386C68.5546 12.2493 68.7991 10.6698 68.7363 9.08739C68.7399 8.57447 68.7159 8.06173 68.6643 7.55139C70.6899 7.41699 72.0243 5.03139 70.4451 3.05859C70.2928 2.82206 70.0945 2.61857 69.862 2.46025C69.6294 2.30192 69.3674 2.19199 69.0915 2.13699C68.7662 2.12005 68.4407 2.164 68.1315 2.26659C66.2115 2.74659 66.1827 1.53219 64.8675 1.20579C64.2663 1.10507 63.6491 1.16978 63.0819 1.39299C61.1619 2.06499 61.5363 3.13539 60.6483 4.02819C60.1683 4.50819 58.1187 3.83139 57.2883 5.19459C56.4051 6.68739 56.4867 9.84579 57.7683 11.0842C58.053 11.3399 58.3672 11.5607 58.7043 11.7418C59.0153 12.0597 59.3791 12.3212 59.7795 12.5146C60.1539 13.2778 60.5811 15.4714 60.7395 16.3018L60.5907 17.5498C59.5671 17.7107 58.5576 17.9514 57.5715 18.2698C55.9558 18.7928 54.3884 19.4544 52.8867 20.2474C50.1507 21.6874 50.4867 21.6586 50.3907 21.505C50.059 21.1439 49.7063 20.8025 49.3347 20.4826C46.7139 18.2746 43.8723 16.393 40.5171 15.841L40.1235 13.609C41.1795 12.745 41.7555 11.0026 41.7747 9.76899C42.1683 9.93219 42.4803 9.64419 42.6867 9.28899C42.7443 9.18339 43.1043 9.28899 43.3827 8.66499C43.4309 8.53491 43.4309 8.39188 43.3827 8.26179C43.479 8.20429 43.5615 8.12641 43.6245 8.03361C43.6874 7.94081 43.7293 7.83535 43.7471 7.72464C43.765 7.61393 43.7584 7.50065 43.7277 7.39277C43.6971 7.28489 43.6433 7.18503 43.5699 7.10019C43.7178 7.01611 43.8444 6.89928 43.9401 6.75867C44.0358 6.61805 44.098 6.45738 44.1219 6.28899C44.2275 5.66019 44.0835 5.09379 43.4787 4.89699C43.4787 4.75779 43.5795 4.52739 43.5795 4.47939C43.5848 4.25588 43.545 4.03359 43.4625 3.82577C43.3801 3.61796 43.2566 3.42888 43.0995 3.26979C42.4323 2.69859 42.2211 2.74659 41.8035 2.78979C41.8035 2.50179 41.9859 2.30979 41.6835 1.91619C41.4516 1.6486 41.1428 1.45896 40.7993 1.37307C40.4558 1.28719 40.0941 1.30923 39.7635 1.43619L39.6435 1.47459C39.5685 1.28596 39.4545 1.11532 39.3089 0.973865C39.1633 0.832408 38.9894 0.723332 38.7987 0.653793C38.1987 0.428193 37.7859 0.720993 37.2819 0.984993C36.5283 0.312993 35.0883 0.672993 34.3155 1.13859C33.9651 1.34979 33.9315 1.72419 33.7923 1.89699C33.4941 1.87525 33.197 1.95289 32.9475 2.11779C32.7267 2.25699 32.5203 2.45859 32.3427 2.59779C32.2257 2.68859 32.1292 2.80309 32.0595 2.93379C31.9109 3.17782 31.8252 3.45489 31.8099 3.74019C31.6919 3.76845 31.5798 3.81719 31.4787 3.88419C31.0953 4.22751 30.8257 4.67963 30.7059 5.18019C30.6536 5.45715 30.6802 5.74325 30.7827 6.00579C30.7827 6.03459 30.8307 6.09219 30.8451 6.12099C30.7491 6.26019 30.4995 6.37059 30.4515 6.74499C30.4035 7.11939 30.4179 7.85379 30.7827 8.07459C30.9363 8.16579 31.2627 8.26179 31.3779 8.33379C31.3598 8.53017 31.3598 8.72781 31.3779 8.92419C31.5027 9.73539 32.3043 10.0282 33.1299 9.90819L33.3555 10.0234C33.4432 10.8785 33.6702 11.7136 34.0275 12.4954C34.294 13.0118 34.6954 13.4464 35.1891 13.753L34.9587 15.7978C33.8131 15.9652 32.6873 16.2482 31.5987 16.6426C28.3011 17.8474 26.3763 19.4122 24.6723 22.129C22.3251 20.185 18.3507 17.2714 15.2787 17.3242C15.2984 17.1167 15.2984 16.9077 15.2787 16.7002C15.2787 16.561 15.2019 16.1338 15.0723 16.0714C15.0723 15.8362 15.0339 15.5914 15.0147 15.3658C16.0995 16.969 18.3123 16.1194 18.0675 15.025C18.3413 15.0431 18.6154 14.9945 18.8662 14.8833C19.117 14.7721 19.3371 14.6016 19.5075 14.3866C19.6729 14.1502 19.7617 13.8687 19.7617 13.5802C19.7617 13.2917 19.6729 13.0102 19.5075 12.7738C19.4678 12.7098 19.4193 12.6516 19.3635 12.601C20.1123 12.409 20.3715 12.0778 20.4675 11.6026C20.5448 11.239 20.5165 10.861 20.3859 10.513C20.4713 10.4708 20.5518 10.4193 20.6259 10.3594C20.8459 10.1491 20.9952 9.87575 21.0531 9.57699C21.1677 8.53687 20.942 7.48761 20.4099 6.58659C20.2375 6.28615 19.9553 6.06421 19.6227 5.96739C19.5603 5.68163 19.5233 5.39089 19.5123 5.09859C19.4331 4.64473 19.2462 4.2165 18.9672 3.84983C18.6883 3.48317 18.3254 3.18879 17.9091 2.99139C17.5058 2.80228 17.068 2.69773 16.6227 2.68419C16.4357 2.66868 16.2475 2.69323 16.0707 2.75619C15.7647 2.38604 15.3629 2.10708 14.9091 1.94979C14.0285 1.78623 13.1184 1.93565 12.3363 2.37219C12.1779 2.47779 12.0531 2.68419 11.9139 2.78499C11.5722 2.63824 11.2017 2.57065 10.8301 2.58727C10.4586 2.60389 10.0956 2.70431 9.76831 2.88099C9.42089 3.03322 9.10784 3.25415 8.848 3.53049C8.58816 3.80683 8.38689 4.13287 8.25631 4.48899C8.05471 4.96899 7.87231 5.75619 8.17951 6.16899C8.19716 6.19185 8.2132 6.21591 8.22751 6.24099C8.04511 6.56259 7.62751 6.72099 7.48831 7.61379C7.43161 8.06164 7.44945 8.51578 7.54111 8.95779C7.56665 9.06667 7.62767 9.16396 7.71457 9.23435C7.80147 9.30474 7.90931 9.34422 8.02111 9.34659C7.87231 10.7866 7.89631 12.7066 8.68351 13.9498C8.87949 14.2406 9.10818 14.5079 9.36511 14.7466C9.63351 15.0096 9.96358 15.201 10.3251 15.3034V16.1578C10.0851 16.2922 10.2531 17.0554 10.1523 17.5162C8.20351 17.3818 5.47711 17.833 3.96511 19.081C1.63231 21.0202 0.681911 23.7562 0.432311 26.7802C0.0915106 30.9514 2.35231 33.5338 5.86111 33.9802C6.08154 34.7104 6.34112 35.4283 6.63871 36.1306C5.15611 38.9106 4.07189 41.8854 3.41791 44.9674C2.93791 47.5786 2.71231 51.7162 2.66911 55.6858C2.66911 57.577 2.66911 64.6714 3.30271 66.4378C3.40351 66.7162 3.83551 66.865 4.11871 66.9466C4.90626 67.1528 5.70869 67.2972 6.51871 67.3786C6.72031 71.593 7.32031 87.6394 7.32031 87.6634C6.49556 88.1049 5.73627 88.659 5.06431 89.3098C4.95754 89.4049 4.87747 89.5262 4.832 89.6618C4.78654 89.7973 4.77727 89.9424 4.80511 90.0826C4.85456 90.2072 4.94733 90.3099 5.06637 90.3716C5.18542 90.4333 5.32274 90.45 5.45311 90.4186C6.24991 90.3466 8.39551 89.7034 9.36511 89.5258C9.38911 89.7322 9.42271 89.9338 9.62431 90.0058C9.96991 90.1258 10.6515 90.1882 10.9011 89.8762C11.1507 89.5642 11.0019 88.7482 11.0355 88.3978C11.0643 88.1386 13.2531 73.0378 14.0019 67.8586H14.6019C15.5235 72.8458 18.0435 87.1066 18.0483 87.1306C17.5493 87.5098 17.0763 87.9219 16.6323 88.3642C16.2627 88.7386 15.6435 89.4106 15.8883 89.8714C16.1331 90.3322 16.7091 90.097 17.1939 89.9194C18.1539 89.5834 19.5939 88.9354 20.3283 88.6954C20.3811 88.8922 20.4435 89.089 20.6499 89.1322C20.9363 89.1754 21.2285 89.1607 21.5091 89.089C21.9171 88.969 21.9891 88.7146 21.9891 88.2922C21.8115 86.1658 21.8067 92.8714 21.9507 67.7626C22.483 67.7411 23.0103 67.6524 23.5203 67.4986C24.8787 66.8314 24.7539 47.3386 22.9875 41.2042C22.8675 40.7818 22.1091 38.5786 21.5715 37.2106C21.5884 37.1641 21.5884 37.1131 21.5715 37.0666C21.4137 36.6691 21.2359 36.2798 21.0387 35.9002C21.1827 34.1338 21.3363 30.7258 21.4803 29.6938L22.6755 30.5146C22.7735 30.9008 22.9119 31.2757 23.0883 31.633C23.285 32.1489 23.6007 32.6111 24.0099 32.9818C24.5269 33.4581 25.1423 33.8151 25.8125 34.0274C26.4827 34.2398 27.1913 34.3023 27.8883 34.2106H28.6947C29.6259 39.7402 29.3571 39.1594 29.4963 39.2986C25.9587 51.4906 24.8163 74.617 25.2963 86.3386C25.2963 86.3943 25.3149 86.4483 25.3491 86.4922C25.5939 86.8042 27.1203 86.9722 27.6243 87.0586C26.6776 87.5634 25.7766 88.1496 24.9315 88.8106C24.5043 89.2282 25.0659 90.0106 25.5891 90.145C25.8771 90.2218 29.7939 89.665 30.0915 89.6218C30.1299 89.8042 30.2163 89.9818 30.3987 90.0154C30.9121 90.1038 31.4331 90.1408 31.9539 90.1258C32.1651 90.1258 32.4339 90.0778 32.4819 89.8762C32.6423 89.0774 32.7354 88.2666 32.7603 87.4522C33.1011 87.4522 33.4419 87.4522 33.5523 87.3562C34.5123 86.3962 38.7987 61.969 39.1491 59.9962C39.2682 59.3344 39.2989 58.6597 39.2403 57.9898C38.5443 49.7578 38.8035 53.1466 38.6931 49.9738C38.6977 49.9549 38.7084 49.9382 38.7236 49.9262C38.7389 49.9142 38.7577 49.9076 38.7771 49.9076C38.7965 49.9076 38.8153 49.9142 38.8306 49.9262C38.8458 49.9382 38.8566 49.9549 38.8611 49.9738C39.1827 53.7466 39.3747 53.8762 39.6339 58.849C39.6339 59.1898 43.5459 85.9546 44.2515 86.6554C44.6273 86.8109 45.0305 86.8892 45.4371 86.8858C45.3912 87.9192 45.4735 88.9542 45.6819 89.9674C45.6952 90.0054 45.7162 90.0404 45.7434 90.0701C45.7706 90.0998 45.8036 90.1236 45.8403 90.1402C46.1907 90.313 47.5011 90.1402 47.7603 90.1066C47.8427 90.0755 47.9149 90.0223 47.9691 89.9529C48.0233 89.8835 48.0573 89.8005 48.0675 89.713C48.4755 89.7706 52.2867 90.3082 52.5651 90.2362C53.0883 90.1018 53.6547 89.3194 53.2227 88.897C52.223 88.1327 51.16 87.455 50.0451 86.8714C50.6211 86.8282 51.8307 86.7226 52.3299 86.4298C53.0835 85.9834 52.3635 52.4986 46.3155 38.7658C46.4259 38.5882 46.8483 33.6586 46.8675 33.4378C48.3847 33.3865 49.8548 32.8981 51.1011 32.0314L53.0211 31.3402C51.852 35.795 50.9749 40.3215 50.3955 44.8906C50.2851 45.793 49.7283 50.2762 50.3283 50.9482C50.3903 51.0179 50.4757 51.0623 50.5683 51.073C50.8419 51.097 51.9363 51.193 53.1027 51.265C53.1027 65.0362 54.4563 72.4282 56.6403 86.929C56.6471 86.974 56.6697 87.0151 56.704 87.0449C56.7383 87.0748 56.782 87.0916 56.8275 87.0922H56.9523C57.0428 87.7608 57.1889 88.4207 57.3891 89.065C57.6915 89.6746 62.3811 89.6602 63.0435 89.449C63.1591 89.3897 63.2508 89.2925 63.3032 89.1737C63.3557 89.0548 63.3656 88.9215 63.3315 88.7962C63.1395 87.9418 61.4115 87.7546 60.5955 87.1402H60.8787C60.923 87.1413 60.9663 87.1271 61.0012 87.1C61.0362 87.0729 61.0608 87.0345 61.0707 86.9914L64.7427 68.6122C64.7859 68.881 67.3683 87.3322 67.3683 87.3322C67.3764 87.3805 67.4019 87.4242 67.4398 87.4551C67.4778 87.486 67.5258 87.502 67.5747 87.5002H67.9539C68.0214 88.1767 68.1304 88.8483 68.2803 89.5114C68.2877 89.5418 68.3019 89.5702 68.3219 89.5943C68.3418 89.6184 68.367 89.6376 68.3955 89.6506C68.8755 89.8762 73.0947 90.1306 73.7907 89.7514C73.9172 89.6828 74.0134 89.5695 74.0604 89.4336C74.1075 89.2977 74.1021 89.1491 74.0451 89.017C73.9247 88.6828 73.7095 88.3909 73.4259 88.177C72.8451 87.8554 71.8323 87.7834 71.2899 87.5002H71.5587C71.6046 87.4975 71.6485 87.4802 71.6839 87.4508C71.7193 87.4215 71.7444 87.3816 71.7555 87.337C71.7555 87.337 73.1523 82.2058 73.9731 70.4026C74.4531 63.5194 74.5875 56.4826 74.5347 49.6762C75.1491 49.7242 76.1955 49.7722 76.7139 49.7482C76.8579 49.7482 76.9971 49.7482 77.0595 49.609C77.6163 48.5002 77.1939 37.4794 76.8819 34.7002C76.8531 34.4314 76.1667 29.8666 76.0755 29.2714C77.6739 29.209 79.9827 28.8682 81.2931 27.9322C88.0131 23.1322 89.2947 14.9338 89.8419 13.8346C89.8947 13.7194 89.7651 13.6618 89.4435 13.5034C89.6281 12.9555 89.8478 12.42 90.1011 11.9002C90.7683 11.5306 91.5411 11.1082 91.5939 10.345C91.6195 10.258 91.6138 10.1647 91.5778 10.0815C91.5419 9.9982 91.478 9.93011 91.3971 9.88899ZM43.5267 4.98819C43.4883 4.98819 43.4787 4.95939 43.4787 4.91139C43.4787 4.86339 43.5699 4.98819 43.5267 4.98819ZM61.1955 23.2282C63.5667 23.377 64.9779 23.3962 67.3875 23.3818C67.5411 24.313 67.7139 25.3306 67.9011 26.4106C66.6099 26.4106 62.2323 26.4586 61.0947 26.4394C61.1475 25.3834 61.1859 24.3034 61.1955 23.2378V23.2282ZM60.5667 33.2746C63.3603 33.4378 65.4339 33.481 69.1443 33.4042C69.3939 34.7722 69.6531 36.1546 69.8835 37.369C67.6371 37.4362 62.4531 37.5274 60.1203 37.4602C60.2115 36.697 60.3987 34.8442 60.5667 33.2842V33.2746ZM59.9187 39.0058C63.5763 39.217 66.5043 39.2266 70.2243 39.1162C70.4067 40.0378 70.5843 40.9306 70.7571 41.7706C66.5139 41.9338 62.3619 41.9434 59.4099 41.8858C59.6051 40.9354 59.7747 39.9754 59.9187 39.0058ZM68.8323 31.6762C67.3923 31.705 62.1123 31.7626 60.7107 31.7434C60.8355 30.3706 60.9315 29.1274 61.0035 27.9994C63.3075 28.1434 64.8723 28.1962 68.2035 28.1578C68.3187 28.7914 68.7411 31.1482 68.8323 31.6762ZM66.7683 18.8602C66.8259 19.6474 66.9987 20.8666 67.1187 21.649C65.8947 21.649 62.1507 21.6922 61.1907 21.6778C61.1811 20.6925 61.1154 19.7085 60.9939 18.7306C62.2899 20.473 65.7891 20.233 66.7683 18.8602ZM59.0883 43.417C63.0983 43.659 67.1183 43.6894 71.1315 43.5082C71.3139 44.353 71.4819 45.121 71.6403 45.793C70.8819 45.7498 61.9155 45.313 58.6515 45.1546C58.7859 44.6074 58.9299 44.0266 59.0739 43.417H59.0883ZM60.1395 12.337C59.9715 12.001 58.9059 11.857 58.8051 11.0074C58.6899 10.0138 59.8467 9.98019 60.2451 10.4266C60.2787 10.4602 60.5139 10.777 60.5427 10.8154C60.7923 11.1514 61.0227 11.161 61.0995 10.681C61.2099 9.78819 60.9363 8.00259 61.9779 8.18979C62.7222 8.42324 63.4874 8.58399 64.2627 8.66979C65.7363 8.80419 66.9075 8.66979 67.8579 7.61379C67.9635 7.58979 68.3139 7.57539 68.4387 7.56579C68.4824 8.07335 68.4952 8.58309 68.4771 9.09219C68.5099 10.633 68.2425 12.1655 67.6899 13.6042C66.9267 15.433 65.8707 15.8746 65.8707 15.8746C65.8462 15.8839 65.8238 15.8981 65.8049 15.9162C65.7859 15.9344 65.7707 15.9561 65.7603 15.9802C65.7171 16.0906 65.7027 15.9802 66.6051 18.001C66.7971 19.7434 61.6371 20.4538 60.9699 17.7178L61.1331 16.321C61.1523 16.2202 60.5811 13.2346 60.1251 12.337H60.1395ZM49.5795 20.977C51.0973 22.4839 52.1431 24.4004 52.5891 26.4922C52.8723 27.9322 52.7523 29.1418 52.2819 29.9722C51.9738 30.5056 51.5888 30.9908 51.1395 31.4122C50.6685 31.8936 50.094 32.2614 49.4595 32.4874C48.1269 32.9762 46.6971 33.1407 45.2883 32.9674C43.4147 32.7306 41.5647 32.3339 39.7587 31.7818C39.7587 31.6378 39.7299 31.4842 39.7155 31.3018L41.3715 30.697C41.6887 30.6088 41.9959 30.4881 42.2883 30.337C42.4563 30.2506 42.4707 29.9962 42.4899 29.7802C42.5715 28.993 42.4083 29.0986 42.6483 28.9066C43.1859 28.4842 44.6643 28.0714 45.3075 27.889C45.5235 27.8314 45.8355 27.7834 45.7395 27.577C45.7091 27.2822 45.5884 27.0039 45.3939 26.7802C44.3811 22.489 44.5539 22.5034 44.3907 22.5322C44.3796 22.5332 44.3689 22.5367 44.3592 22.5423C44.3496 22.5479 44.3413 22.5555 44.3349 22.5646C44.3285 22.5738 44.3242 22.5842 44.3222 22.5952C44.3202 22.6061 44.3207 22.6174 44.3235 22.6282C44.5395 23.905 44.8611 25.5562 45.0915 26.6698L44.4963 26.5834C44.3955 26.5834 44.2947 26.5834 44.2707 26.5354C44.0787 26.137 44.1603 25.6666 43.6995 25.4362C43.6515 25.4039 43.5973 25.382 43.5403 25.372C43.4834 25.362 43.4249 25.3641 43.3688 25.3781C43.3127 25.3921 43.2601 25.4178 43.2146 25.4534C43.169 25.4891 43.1314 25.5339 43.1043 25.585C42.8547 26.065 43.1571 27.1402 43.1043 27.1258C42.8487 27.2306 42.581 27.3031 42.3075 27.3418C42.2965 27.2978 42.2768 27.2565 42.2496 27.2202C42.2224 27.184 42.1882 27.1535 42.1491 27.1306C41.1753 26.6546 40.1618 26.2644 39.1203 25.9642C38.8947 24.073 38.5971 21.6922 38.4915 20.8954C38.5283 20.8783 38.5623 20.8556 38.5923 20.8282C38.7617 20.4941 38.886 20.139 38.9619 19.7722C39.0435 19.8634 39.1107 19.9498 39.2595 19.8922C40.5617 18.9458 41.7923 17.9046 42.9411 16.777C45.376 17.782 47.6212 19.196 49.5795 20.9578V20.977ZM43.5027 25.8202C43.8483 26.017 43.6611 26.6026 44.0499 26.8954C44.4395 27.0096 44.844 27.0646 45.2499 27.0586C45.3451 27.2169 45.4057 27.3936 45.4275 27.577C45.0531 27.6922 43.2339 28.0954 42.4755 28.6186C42.46 28.2563 42.4199 27.8955 42.3555 27.5386C42.7491 27.505 43.2435 27.5386 43.3875 27.2842C43.5315 27.0298 43.2867 25.6906 43.5027 25.8202ZM42.5763 16.7002C41.7171 17.4442 39.7923 19.0378 39.2163 19.4602C38.9283 19.1386 38.1747 18.2458 37.9635 17.9194C38.4435 17.5066 40.2195 16.3066 40.4787 16.1626C41.1957 16.2478 41.9 16.4186 42.5763 16.6714V16.7002ZM35.0163 16.129L37.3587 17.9338C37.0035 18.313 36.1347 19.0666 35.7459 19.4602C35.1987 19.0666 33.7059 17.4874 32.8659 16.6138C33.5712 16.4049 34.2896 16.2429 35.0163 16.129ZM33.7107 9.77379C33.6435 9.67779 33.6339 9.70659 33.1443 9.44739C32.8227 9.18339 32.4339 8.96739 32.2899 8.57379C32.2899 8.24739 32.3907 7.84419 32.7315 7.86339C32.9892 7.92277 33.2282 8.04477 33.4275 8.21859C33.6454 8.29005 33.8796 8.29488 34.1002 8.23246C34.3208 8.17004 34.5178 8.0432 34.6659 7.86819C34.8322 7.56864 34.8818 7.21813 34.8051 6.88419C35.1209 6.85594 35.4135 6.70623 35.6211 6.46659C35.7235 6.25943 35.7855 6.03459 35.8035 5.80419C36.2524 5.93176 36.732 5.89604 37.1571 5.70339C37.4477 5.5782 37.7128 5.40088 37.9395 5.18019C37.9897 5.30648 38.0559 5.42584 38.1363 5.53539C38.211 5.64953 38.315 5.74143 38.4375 5.8014C38.56 5.86138 38.6964 5.88722 38.8323 5.87619C39.0018 5.84931 39.1646 5.79069 39.3123 5.70339V5.89539C39.3098 6.04262 39.3395 6.18861 39.3995 6.3231C39.4594 6.45759 39.5481 6.57732 39.6593 6.67385C39.7705 6.77039 39.9014 6.8414 40.043 6.88189C40.1846 6.92238 40.3333 6.93135 40.4787 6.90819C40.4758 6.94013 40.4758 6.97226 40.4787 7.00419C40.5267 7.26339 40.4259 8.04579 40.7859 8.13699C41.1459 8.22819 40.9491 7.33059 41.6403 7.22019C41.7645 7.18989 41.8954 7.20402 42.0102 7.26013C42.1251 7.31625 42.2167 7.4108 42.2691 7.52739C42.4035 7.95939 42.2691 8.15139 42.0435 8.57859L41.8947 8.74659C41.6643 8.99619 41.4147 9.26019 41.4147 9.50019C41.4291 10.2344 41.2901 10.9635 41.0067 11.641C40.7628 12.3277 40.3343 12.9339 39.7683 13.393C39.7402 13.4147 39.7182 13.4434 39.7047 13.4763C39.6912 13.5091 39.6867 13.545 39.6915 13.5802L40.0851 15.889L37.5987 17.5786C37.1619 17.2426 37.7427 17.7418 35.3523 15.8938L35.6115 13.6618C35.616 13.6208 35.6083 13.5795 35.5896 13.5428C35.5708 13.5061 35.5417 13.4758 35.5059 13.4554C33.7827 12.4906 33.9171 10.105 33.7107 9.77379ZM28.1427 18.8458C29.4559 17.9053 30.9156 17.1885 32.4627 16.7242C33.3414 17.7353 34.2757 18.6968 35.2611 19.6042C35.4723 19.7866 35.7411 20.0122 35.9283 19.8202C35.9955 19.7434 36.0963 19.6426 36.2115 19.5274C36.3313 19.9439 36.4723 20.3541 36.6339 20.7562C36.653 20.7918 36.679 20.8232 36.7103 20.8488C36.7416 20.8743 36.7776 20.8934 36.8163 20.905C36.7635 21.5242 36.6339 23.305 36.4851 25.2778C34.9622 24.9509 33.405 24.8123 31.8483 24.865C31.8483 24.7402 32.0019 23.2618 32.0067 23.2138C32.0067 22.9546 32.0067 22.6138 32.0355 22.4794C32.0412 22.4584 32.0384 22.436 32.0276 22.4171C32.0168 22.3982 31.9989 22.3843 31.9779 22.3786C31.9569 22.3729 31.9345 22.3757 31.9156 22.3865C31.8967 22.3973 31.8828 22.4152 31.8771 22.4362C31.4499 23.305 31.5267 23.9194 31.5843 24.8794C30.5107 24.9325 29.4583 25.1984 28.4883 25.6618C28.4686 25.672 28.4537 25.6896 28.447 25.7107C28.4402 25.7319 28.4421 25.7549 28.4523 25.7746C28.4625 25.7943 28.4801 25.8092 28.5013 25.816C28.5224 25.8227 28.5454 25.8208 28.5651 25.8106C31.9251 24.169 38.0211 25.7242 41.2611 27.121C41.4871 27.2136 41.7068 27.3211 41.9187 27.4426C42.0666 28.1995 42.1118 28.9728 42.0531 29.7418C42.0531 29.9578 42.0531 30.0106 41.6691 30.1594C41.3955 30.2698 41.0691 30.3466 40.8675 30.4234C40.2099 30.6682 39.5763 30.9034 38.9475 31.1434C35.3979 32.2827 31.771 33.1649 28.0947 33.7834C26.8995 33.7834 25.3251 33.5626 24.4467 32.737C20.6451 29.1802 24.6195 21.265 28.1427 18.8458ZM10.1523 14.7802C9.70619 14.5229 9.32518 14.1665 9.03871 13.7386C8.28991 12.577 8.28031 10.6762 8.40511 9.30339C9.07571 9.09469 9.68531 8.72563 10.1811 8.22819C10.7177 7.67979 11.1867 7.06903 11.5779 6.40899L11.8467 5.89059C12.3333 7.13528 13.1661 8.21461 14.2467 9.00099C14.6224 9.17299 15.0289 9.26766 15.4419 9.27939C15.4325 9.65585 15.4728 10.0319 15.5619 10.3978C15.5715 10.4172 15.5849 10.4344 15.6014 10.4484C15.6179 10.4624 15.6371 10.4728 15.6578 10.4791C15.6785 10.4854 15.7002 10.4874 15.7217 10.485C15.7432 10.4826 15.764 10.4758 15.7827 10.465C15.9939 10.3498 16.0755 9.73059 16.4019 9.30339C16.4883 9.18339 16.5891 9.09219 16.7139 9.12099C16.8455 9.14115 16.9705 9.19214 17.0787 9.26979C17.5587 9.62499 17.1747 11.0458 16.2771 11.4874C16.0083 11.6218 14.6067 13.2538 14.5155 13.7674C14.4555 14.0495 14.4704 14.3424 14.5587 14.617C14.5875 15.0346 14.6355 15.577 14.6691 16.057C13.7811 16.057 11.6163 16.057 10.7283 16.1002C10.7715 14.9146 10.7955 15.0394 10.1523 14.7802ZM19.1187 67.4794H15.4947C16.0467 60.6442 16.7187 43.8826 16.5747 37.945C17.2147 37.9162 17.7907 37.8778 18.3027 37.8298C19.3971 43.489 20.0067 61.945 19.1187 67.4794ZM7.11871 67.0426C6.60031 61.3162 7.11871 42.7306 8.49151 37.7626C8.73151 37.7962 10.4499 37.9498 10.4499 37.9498C9.72031 43.8154 8.97151 60.649 9.23071 67.2298C8.45311 67.1722 7.74271 67.1002 7.08991 67.0426H7.11871ZM12.4275 37.5994L10.6227 37.5274C10.6185 37.0101 10.6554 36.4933 10.7331 35.9818L11.3811 35.9338L12.7827 35.9002C12.7137 36.4758 12.5948 37.0443 12.4275 37.5994ZM6.86911 36.0202L10.3443 35.953C10.247 36.4817 10.202 37.0187 10.2099 37.5562C8.90587 37.5457 7.60572 37.4123 6.32671 37.1578C6.68191 36.3802 6.83071 36.1162 6.86911 36.0202ZM10.7811 67.3162C10.6227 61.3258 11.5971 42.9994 12.2211 37.9738C12.8787 37.9738 13.3683 38.0074 14.7315 37.9738C14.7315 40.249 14.0499 64.6138 13.8915 67.4218C13.0707 67.4218 10.9923 67.3306 10.7811 67.3162ZM12.7971 37.6042C12.9149 37.0439 12.9728 36.4727 12.9699 35.9002C16.1235 35.8426 19.2099 35.7658 20.6019 35.953C20.7915 36.2874 20.9521 36.6375 21.0819 36.9994C18.3699 37.5802 15.3267 37.6042 12.7971 37.6042ZM3.75871 66.3802C2.92831 65.8522 2.65951 50.953 3.67711 45.0106C4.19468 42.3509 5.05463 39.7694 6.23551 37.3306L6.73951 37.4362C5.39551 42.289 4.85791 59.9242 5.52511 66.817C4.91898 66.7536 4.32454 66.6066 3.75871 66.3802ZM10.7043 87.9802C9.36991 88.1626 8.64991 88.2682 8.12671 88.3834C7.82649 88.4116 7.52625 88.3297 7.28191 88.153C7.67551 87.9178 7.76191 87.9514 7.76191 87.7258C7.80511 86.7946 6.85471 69.2458 6.73951 67.3882C8.92831 67.6378 11.6643 67.7722 13.8531 67.8346C13.1091 72.4138 11.0451 85.633 10.6899 87.9946L10.7043 87.9802ZM21.4467 86.9914C20.2275 87.3322 19.4643 87.553 18.9507 87.745C18.6568 87.8147 18.3475 87.7737 18.0819 87.6298C18.4275 87.3562 18.4995 87.3754 18.4803 87.1498C18.3939 86.1898 15.0099 68.8282 14.8179 67.8634C17.5347 67.921 20.0979 67.8922 21.7635 67.777C21.6531 73.1674 21.4611 84.793 21.4323 87.0058L21.4467 86.9914ZM22.6659 41.2906C24.2691 46.969 24.4323 64.3306 23.3523 67.1194C22.9491 67.321 21.1395 67.3978 20.6979 67.417C21.6579 61.441 21.1779 43.417 20.0787 37.5946C20.5299 37.5226 20.9331 37.4458 21.3075 37.3642C21.8403 38.8186 22.5411 40.9114 22.6515 41.305L22.6659 41.2906ZM19.2771 27.2602C19.0707 27.073 18.8691 26.905 18.6963 26.7226C18.6829 26.7054 18.6633 26.6942 18.6417 26.6915C18.6201 26.6888 18.5983 26.6948 18.5811 26.7082C18.5639 26.7216 18.5528 26.7412 18.5501 26.7628C18.5474 26.7844 18.5533 26.8062 18.5667 26.8234C19.3875 28.1674 20.5251 28.8154 21.1347 29.3674C20.9811 29.953 20.8227 33.4618 20.6547 35.5402C19.3875 35.2474 12.7683 35.593 10.5459 35.593C10.4953 35.5937 10.447 35.6144 10.4115 35.6506C8.66431 35.7322 7.28671 35.8138 6.90271 35.8378C6.67231 35.3002 6.38431 34.4314 6.20671 33.8794C6.9851 34.0192 7.78271 34.0127 8.55871 33.8602C8.57205 34.152 8.63537 34.4394 8.74591 34.7098C8.98591 34.921 16.9731 34.3498 17.2275 34.297C17.4003 34.2586 17.4051 34.0186 17.4195 33.817C17.4627 33.337 17.4915 32.281 17.5107 31.0426C17.585 31.013 17.652 30.9675 17.707 30.9095C17.762 30.8514 17.8037 30.7821 17.8293 30.7063C17.8548 30.6305 17.8636 30.5501 17.855 30.4706C17.8464 30.3911 17.8207 30.3144 17.7795 30.2458C17.8357 30.1743 17.8766 30.0921 17.8998 30.0042C17.9231 29.9163 17.9281 29.8246 17.9146 29.7347C17.9011 29.6448 17.8694 29.5586 17.8214 29.4814C17.7734 29.4042 17.7102 29.3377 17.6355 29.2858C17.6976 29.2253 17.7448 29.1513 17.7734 29.0695C17.8021 28.9877 17.8115 28.9004 17.8008 28.8144C17.7901 28.7284 17.7596 28.646 17.7118 28.5737C17.664 28.5015 17.6001 28.4413 17.5251 28.3978C17.5251 26.665 17.5251 24.9754 17.4627 24.0298C17.4339 23.2522 17.4099 23.1658 17.2899 23.0698C17.0547 22.9258 16.0419 22.9834 15.5859 23.0026C15.5922 22.799 15.537 22.5983 15.4275 22.4266C15.2067 22.2106 14.2323 22.4266 13.6659 22.4266C13.5411 22.0282 13.4787 21.7306 13.0371 21.5242C12.8197 21.4474 12.5816 21.454 12.3688 21.5427C12.156 21.6313 11.9837 21.7958 11.8851 22.0042C11.8851 22.0522 11.7459 22.4458 11.7171 22.5754C11.2021 22.6144 10.6894 22.6801 10.1811 22.7722C9.99871 22.8298 9.98431 23.2138 9.97951 23.4826C8.15071 23.6746 8.03071 23.6746 7.99711 23.8618C7.96351 24.049 8.09791 27.1018 8.10751 27.3562C7.65871 27.4132 7.21443 27.5014 6.77791 27.6202C6.86873 27.0241 6.92323 26.4229 6.94111 25.8202C6.94111 25.5562 6.96511 24.4282 6.80671 24.4234C6.64831 24.4186 6.55231 25.5274 6.53791 25.7482C6.50911 26.0842 6.46591 27.337 6.48991 27.7114C6.28831 27.7738 6.09631 27.841 5.89951 27.9178C5.87914 27.9254 5.86264 27.9408 5.85364 27.9607C5.84464 27.9805 5.84387 28.003 5.85151 28.0234C5.85915 28.0438 5.87457 28.0603 5.89437 28.0693C5.91417 28.0783 5.93674 28.079 5.95711 28.0714C8.66911 27.1354 12.3411 27.6586 14.3523 28.6666L14.4435 30.6874C12.7059 31.9018 9.94111 33.4042 7.82911 33.673C7.20625 33.745 6.5765 33.7321 5.95711 33.6346C2.31871 33.1642 0.44191 30.5578 0.70591 26.8138C0.91231 23.9002 1.83871 21.0826 4.07551 19.2154C5.51551 18.0202 8.26591 17.6122 10.1379 17.7754C10.6179 17.8138 10.3587 16.777 10.4835 16.4026C10.6659 16.3738 11.2467 16.3642 11.4435 16.3594C11.4197 16.6902 11.4197 17.0222 11.4435 17.353C11.4435 17.4922 11.5443 18.0154 11.6691 17.977C11.7939 17.9386 11.8419 17.5306 11.8467 17.4154C11.8515 17.3002 11.8467 17.2858 11.8035 16.3594H13.4019C13.3826 16.6791 13.3826 16.9997 13.4019 17.3194C13.4019 17.4586 13.5027 17.9818 13.6275 17.9434C13.7523 17.905 13.8003 17.497 13.8051 17.3818C13.8099 17.2666 13.8051 17.0266 13.7619 16.369H14.9331C14.9811 16.5246 15.007 16.6862 15.0099 16.849C15.0099 17.4058 14.9139 17.4874 15.0099 17.5978C15.2691 17.8906 17.6211 16.729 24.4995 22.4554C23.2179 24.6154 22.2051 27.4426 22.5795 29.9338C21.4611 29.1802 21.6771 29.4154 19.2771 27.2602ZM8.45311 27.3034C8.40511 25.6954 8.36671 24.2266 8.36671 24.049C8.74591 23.9914 9.60511 23.905 9.98431 23.8666C9.98431 24.5722 10.0131 24.6202 10.4643 24.6682C11.3235 24.769 15.1107 24.6682 15.5091 24.3274C15.5453 24.2981 15.5733 24.2601 15.5907 24.217C15.6211 23.9525 15.6276 23.6858 15.6099 23.4202C16.0783 23.3938 16.5479 23.3938 17.0163 23.4202C17.1075 24.2746 17.1171 27.4282 17.1171 28.2874C16.9369 28.289 16.7577 28.3148 16.5843 28.3642C16.6515 27.9706 16.7523 27.3322 16.3539 27.2458C16.2473 27.2153 16.134 27.2168 16.0282 27.25C15.9224 27.2833 15.8287 27.3469 15.7587 27.433C15.5508 27.7536 15.4285 28.1221 15.4035 28.5034C15.1837 28.5041 14.9641 28.4913 14.7459 28.465C14.7385 28.439 14.7257 28.4149 14.7083 28.3942C14.6909 28.3736 14.6694 28.3568 14.6451 28.345C12.7119 27.4491 10.572 27.0941 8.45311 27.3178V27.3034ZM17.4771 29.9578C17.2899 30.0682 17.1699 29.9914 16.8339 30.0346C16.7817 30.0346 16.7317 30.0553 16.6948 30.0922C16.6578 30.1291 16.6371 30.1792 16.6371 30.2314C16.6371 30.2836 16.6578 30.3336 16.6948 30.3706C16.7317 30.4075 16.7817 30.4282 16.8339 30.4282C16.9935 30.4445 17.1543 30.4445 17.3139 30.4282C17.3523 30.4282 17.4915 30.457 17.4915 30.4954C17.4915 30.9322 16.6323 30.7642 16.2531 30.5434C15.7833 30.5146 15.312 30.56 14.8563 30.6778L14.7603 28.7002C15.0215 28.7701 15.2938 28.7881 15.5619 28.753C15.599 28.7322 15.6266 28.6978 15.6387 28.657C15.7491 28.2538 15.8403 27.5098 16.2627 27.6154C16.2875 27.9177 16.2566 28.2219 16.1715 28.513C16.1235 28.8106 16.2387 28.8778 16.4643 28.8586C16.6659 28.768 16.8822 28.7144 17.1027 28.7002C17.2275 28.7002 17.3523 28.7002 17.3907 28.8442C17.4291 28.9882 17.3043 29.041 17.1843 29.0842C17.0643 29.1274 16.5939 29.1946 16.5459 29.2042C16.4985 29.2191 16.458 29.2507 16.432 29.2931C16.406 29.3355 16.3961 29.3859 16.4043 29.435C16.4125 29.4841 16.4381 29.5285 16.4765 29.5602C16.5149 29.5919 16.5634 29.6086 16.6131 29.6074C17.1939 29.545 17.0931 29.5162 17.2659 29.5546C17.3412 29.5722 17.4081 29.6153 17.4553 29.6765C17.5025 29.7377 17.5272 29.8133 17.5251 29.8906C17.5259 29.9074 17.5218 29.9241 17.5133 29.9386C17.5048 29.9531 17.4922 29.9647 17.4771 29.9722V29.9578ZM14.8323 30.8746C15.2556 30.8186 15.6821 30.7897 16.1091 30.7882C16.4088 30.9774 16.7533 31.0834 17.1075 31.0954C17.1075 31.9546 17.1075 33.4954 17.0499 33.9466C16.0035 34.057 9.90271 34.6522 8.85631 34.5562C8.8009 34.3097 8.764 34.0594 8.74591 33.8074C11.3955 33.2602 14.6979 31.1434 14.8323 30.889V30.8746ZM32.1123 89.6794C31.5652 89.715 31.0158 89.686 30.4755 89.593V89.353C30.47 89.2954 30.4425 89.2421 30.3987 89.2042C30.2691 89.1034 30.3699 89.1754 27.0099 89.6026L25.9107 89.7274C25.8051 89.7274 25.6851 89.7802 25.6851 89.7274C25.4259 89.6602 25.0467 89.2042 25.2051 89.0362C26.1021 88.3165 27.0484 87.6604 28.0371 87.073C29.5299 87.2506 31.3155 87.3754 32.4195 87.409C32.3707 88.1766 32.2696 88.9399 32.1171 89.6938L32.1123 89.6794ZM48.3315 86.9146C48.7779 86.9146 49.2243 86.8906 49.6515 86.8666C50.2995 87.265 52.4403 88.585 52.9683 89.1274C53.0547 89.2186 52.9683 89.3962 52.8915 89.497C52.5843 89.9194 52.3491 89.8138 52.2627 89.8042C51.4467 89.737 48.7443 89.3578 47.9427 89.2426C47.9148 89.2386 47.8864 89.2403 47.8593 89.2476C47.8321 89.255 47.8067 89.2679 47.7847 89.2854C47.7626 89.3029 47.7444 89.3248 47.7312 89.3496C47.7179 89.3745 47.7098 89.4017 47.7075 89.4298V89.6698C47.1693 89.7672 46.6212 89.7978 46.0755 89.761C45.8814 88.8262 45.7817 87.8742 45.7779 86.9194C45.7683 86.7802 45.6243 86.977 48.3363 86.929L48.3315 86.9146ZM45.9987 38.4922C43.5363 38.4922 31.8243 38.785 29.8275 39.0106C29.7795 38.1946 29.2227 34.8394 29.0883 34.033C31.405 33.6343 33.6993 33.1152 35.9619 32.4778C35.9055 32.8042 35.891 33.1365 35.9187 33.4666C36.4973 34.1652 37.1401 34.808 37.8387 35.3866C37.8748 35.4151 37.918 35.4333 37.9637 35.4392C38.0093 35.4451 38.0557 35.4386 38.0979 35.4202C38.7843 34.8472 39.3728 34.1663 39.8403 33.4042C39.8603 33.0072 39.8329 32.6092 39.7587 32.2186C41.0931 32.6986 44.7123 33.457 46.5267 33.4282C46.4403 34.4218 46.0755 37.9834 45.9987 38.4922ZM51.0867 42.9226C52.3155 34.4602 53.4627 31.657 53.4867 31.033C54.2472 30.7023 54.9555 30.2624 55.5891 29.7274C55.8382 29.5064 56.0723 29.269 56.2899 29.017C56.3715 28.9402 56.2611 28.8202 56.1843 28.8922C56.1075 28.9642 55.9203 29.065 55.7859 29.1514C54.1539 30.2458 53.7795 30.6442 51.8643 31.3258C52.2827 30.9126 52.5997 30.4083 52.7907 29.8522C53.6307 27.0154 52.4739 24.0922 50.6355 21.793C52.8277 20.4388 55.1596 19.3252 57.5907 18.4714C58.5495 18.15 59.5316 17.9029 60.5283 17.7322C60.5643 17.9423 60.6306 18.146 60.7251 18.337C61.4931 23.0554 59.9763 36.7882 59.0739 41.3482C58.5507 43.9978 57.5523 47.8618 56.4051 50.3338C56.3286 50.517 56.2371 50.6936 56.1315 50.8618C55.5267 51.0634 51.2835 50.7082 50.6259 50.6458C50.1363 49.7578 50.9475 43.9498 51.0963 42.9226H51.0867ZM71.3907 87.0826H67.7475C67.7475 86.9386 65.0403 67.7914 64.9635 67.5274C65.2707 65.5546 67.3635 54.9706 67.2915 52.3258C67.2915 52.3042 67.2829 52.2834 67.2676 52.2681C67.2523 52.2528 67.2316 52.2442 67.2099 52.2442C67.1883 52.2442 67.1675 52.2528 67.1522 52.2681C67.1369 52.2834 67.1283 52.3042 67.1283 52.3258C67.1283 52.6042 67.0419 53.1418 66.9267 53.857C65.1459 64.9738 63.7779 71.377 60.7155 86.7562L57.0099 86.7178C54.5811 71.3578 53.3907 63.9082 53.3283 51.2842C53.8371 51.313 55.9491 51.4474 56.3571 51.241C56.5011 51.169 56.6499 50.8474 56.7411 50.6602C57.4618 49.0152 58.0555 47.3174 58.5171 45.5818C61.8051 45.7642 70.2531 46.1578 71.7075 46.2346C72.3267 49.153 72.3699 49.321 72.5427 49.3834C73.0917 49.5235 73.6525 49.6118 74.2179 49.6474C74.2563 59.377 73.7475 77.6122 71.4003 87.0586L71.3907 87.0826ZM89.6307 13.8154C88.9683 15.3658 87.5571 23.1226 81.0963 27.6538C79.8339 28.537 77.5347 28.8538 75.9987 28.897C75.9293 28.1421 75.7845 27.396 75.5667 26.6698C75.4707 26.3722 75.3267 26.0218 75.2403 25.8106C75.2313 25.7931 75.2166 25.7791 75.1986 25.7711C75.1806 25.7631 75.1604 25.7614 75.1413 25.7665C75.1223 25.7715 75.1055 25.7829 75.0938 25.7988C75.0821 25.8147 75.0762 25.8341 75.0771 25.8538C75.3411 27.9562 75.3843 27.2122 75.6723 29.113C75.6723 29.113 76.4643 34.4746 76.4931 34.7386C76.8627 38.0986 77.0979 47.9578 76.7235 49.3258C75.3981 49.3569 74.073 49.254 72.7683 49.0186C72.2547 47.305 67.2291 22.4122 67.1187 18.2074C68.3907 18.4378 73.2963 20.2042 77.4051 20.3338C81.0723 20.4442 86.5875 12.6538 86.6355 12.6538C87.0147 12.5866 89.1075 13.4746 89.6355 13.7914L89.6307 13.8154ZM91.2387 10.3162C91.2003 10.9354 90.4803 11.353 89.9475 11.6794C89.7603 11.7994 89.3379 13.225 89.2851 13.4266C88.6215 13.1167 87.9403 12.8458 87.2451 12.6154C87.7251 11.8858 88.1427 11.5018 87.9603 11.329C87.6291 11.0266 87.0003 10.6186 87.3267 10.2778C87.367 10.2866 87.4058 10.3011 87.4419 10.321C87.8979 10.537 88.2627 11.1226 88.4595 10.7626C88.5475 10.3396 88.6678 9.92395 88.8195 9.51939C89.0739 8.92899 89.2323 9.03939 89.1699 9.61539C89.1155 10.0091 89.0173 10.3955 88.8771 10.7674C88.8606 10.8196 88.8654 10.8762 88.8906 10.9248C88.9158 10.9734 88.9593 11.01 89.0115 11.0266C89.0637 11.0431 89.1203 11.0383 89.169 11.0131C89.2176 10.9879 89.2542 10.9444 89.2707 10.8922C89.3906 10.4675 89.5699 10.0618 89.8035 9.68739C90.0387 9.34179 90.3219 9.25539 90.3123 9.49059C90.2377 9.91224 90.074 10.3131 89.8323 10.6666C89.7705 10.7528 89.7324 10.8538 89.7219 10.9594C89.7141 11.0042 89.7221 11.0504 89.7446 11.09C89.767 11.1296 89.8024 11.1602 89.8448 11.1766C89.8873 11.193 89.9341 11.1942 89.9773 11.18C90.0205 11.1658 90.0575 11.137 90.0819 11.0986C90.2262 10.897 90.3868 10.7076 90.5619 10.5322C90.8451 10.2538 91.2579 10.0618 91.2435 10.2922L91.2387 10.3162Z" fill="#1E40AF"/>
<path d="M37.1796 10.6908C37.3764 11.1372 38.4516 10.8588 38.2404 10.6332C38.2251 10.618 38.2044 10.6094 38.1828 10.6094C38.1612 10.6094 38.1405 10.618 38.1252 10.6332C38.0612 10.6538 37.9924 10.6538 37.9284 10.6332C37.7974 10.6145 37.6698 10.5773 37.5492 10.5228V8.71803C37.5447 8.69917 37.5339 8.68239 37.5187 8.67039C37.5034 8.65838 37.4846 8.65186 37.4652 8.65186C37.4458 8.65186 37.427 8.65838 37.4117 8.67039C37.3965 8.68239 37.3857 8.69917 37.3812 8.71803C37.2089 9.24234 37.1357 9.79413 37.1652 10.3452C37.1531 10.4605 37.158 10.5769 37.1796 10.6908ZM35.7876 9.50043C35.7876 9.37083 35.7876 9.23163 35.7588 9.11163C35.7494 9.0581 35.7197 9.01026 35.6758 8.97807C35.632 8.94589 35.5775 8.93183 35.5236 8.93883C35.4963 8.9429 35.4702 8.95239 35.4466 8.96674C35.4231 8.98109 35.4027 9 35.3866 9.02237C35.3704 9.04474 35.359 9.07011 35.3528 9.09698C35.3467 9.12386 35.346 9.15169 35.3508 9.17883C35.3508 9.26523 35.3508 9.36603 35.3748 9.52923C35.3767 9.55634 35.3839 9.58281 35.396 9.60712C35.4081 9.63144 35.4249 9.65313 35.4454 9.67096C35.4659 9.68879 35.4897 9.70241 35.5155 9.71103C35.5413 9.71966 35.5685 9.72312 35.5956 9.72123C35.6227 9.71934 35.6492 9.71213 35.6735 9.70001C35.6978 9.68789 35.7195 9.6711 35.7373 9.6506C35.7552 9.63009 35.7688 9.60628 35.7774 9.58052C35.786 9.55475 35.7895 9.52754 35.7876 9.50043ZM39.0276 9.46683C39.0276 9.52157 39.0493 9.57407 39.088 9.61278C39.1268 9.65149 39.1793 9.67323 39.234 9.67323C39.2887 9.67323 39.3412 9.65149 39.3799 9.61278C39.4186 9.57407 39.4404 9.52157 39.4404 9.46683V9.25083C39.4679 9.21187 39.4814 9.16475 39.4787 9.11715C39.476 9.06954 39.4572 9.02426 39.4255 8.98865C39.3938 8.95304 39.351 8.92922 39.304 8.92104C39.257 8.91287 39.2087 8.92083 39.1668 8.94363C38.9796 9.06363 39.0276 9.30363 39.0276 9.46683ZM38.058 12.4332C37.8854 12.5293 37.7037 12.6081 37.5156 12.6684C37.41 12.6684 37.386 12.8172 37.5156 12.8316C37.6375 12.8929 37.7728 12.9226 37.9092 12.918C38.0485 12.9016 38.1822 12.8537 38.3002 12.778C38.4183 12.7024 38.5177 12.6009 38.5908 12.4812C38.6501 12.3539 38.675 12.2132 38.6628 12.0732C38.6673 12.0516 38.6629 12.0291 38.6508 12.0106C38.6386 11.9922 38.6196 11.9793 38.598 11.9748C38.5764 11.9704 38.5538 11.9747 38.5354 11.9869C38.5169 11.999 38.504 12.018 38.4996 12.0396C38.3685 12.1879 38.2203 12.32 38.058 12.4332ZM64.8516 12.7596C65.2164 12.8748 65.8116 12.9516 66.066 12.6636C66.3204 12.3756 66.1812 11.6268 66.1524 11.31C66.0925 10.6879 65.9571 10.0754 65.7492 9.48603C65.7447 9.46439 65.7319 9.44541 65.7134 9.43325C65.695 9.4211 65.6724 9.41678 65.6508 9.42123C65.6291 9.42569 65.6102 9.43856 65.598 9.45701C65.5859 9.47547 65.5815 9.49799 65.586 9.51963C65.586 9.66843 65.6532 10.4028 65.6676 10.59C65.7594 11.2015 65.7916 11.8204 65.7636 12.438C65.656 12.5109 65.5326 12.5569 65.4036 12.5724C64.9236 12.654 64.8132 12.5388 64.7892 12.6636C64.7864 12.6741 64.7858 12.685 64.7874 12.6956C64.7891 12.7063 64.793 12.7165 64.7989 12.7256C64.8048 12.7346 64.8125 12.7424 64.8216 12.7482C64.8307 12.7541 64.8409 12.758 64.8516 12.7596ZM64.0404 9.59643C64.0404 9.44283 63.5988 9.36603 63.3108 9.42843C63.0228 9.49083 62.6292 9.79323 62.7396 9.90843C62.85 10.0236 64.0212 9.73563 64.0404 9.59643ZM63.7236 10.7436V11.1564C63.7236 11.2112 63.7453 11.2637 63.784 11.3024C63.8227 11.3411 63.8752 11.3628 63.93 11.3628C63.9847 11.3628 64.0372 11.3411 64.0759 11.3024C64.1146 11.2637 64.1364 11.2112 64.1364 11.1564V10.758C64.1377 10.7028 64.1173 10.6493 64.0796 10.6089C64.042 10.5685 63.99 10.5445 63.9348 10.542C63.8804 10.542 63.8281 10.5629 63.7887 10.6005C63.7494 10.638 63.7261 10.6893 63.7236 10.7436ZM67.818 9.79323C67.8564 9.73563 67.7028 9.42843 67.338 9.31323C66.9732 9.19803 66.6948 9.38043 66.6948 9.46683C66.6948 9.55323 67.746 9.89883 67.818 9.79323ZM63.5172 13.7868C63.4068 13.8204 63.4068 14.5116 64.0644 14.7084C64.4004 14.8044 64.8564 14.7516 64.866 14.6316C64.8756 14.5116 64.2132 14.3676 63.9972 14.2188C63.7812 14.07 63.6084 13.758 63.5172 13.7868ZM67.1604 10.4604C67.1333 10.4598 67.1063 10.4645 67.081 10.4743C67.0557 10.4841 67.0326 10.4988 67.013 10.5175C66.9934 10.5362 66.9777 10.5586 66.9667 10.5834C66.9558 10.6082 66.9498 10.6349 66.9492 10.662V11.07C66.9568 11.12 66.982 11.1655 67.0203 11.1985C67.0586 11.2314 67.1075 11.2495 67.158 11.2495C67.2085 11.2495 67.2573 11.2314 67.2956 11.1985C67.334 11.1655 67.3592 11.12 67.3668 11.07V10.6716C67.3674 10.6441 67.3626 10.6168 67.3525 10.5912C67.3424 10.5656 67.3273 10.5423 67.3081 10.5226C67.2888 10.5029 67.2659 10.4873 67.2405 10.4766C67.2151 10.4659 67.1879 10.4604 67.1604 10.4604Z" fill="#2563EB"/>
</svg>
