<svg width="23" height="25" viewBox="0 0 23 25" fill="none" xmlns="http://www.w3.org/2000/svg">
<path d="M14.2986 5.68229V3.92318C14.2986 2.95127 13.536 2.16406 12.5945 2.16406H3.22172C2.28018 2.16406 1.51758 2.95127 1.51758 3.92318V24.0367" stroke="#3C3C3C" stroke-width="1.5"/>
<path d="M19.4104 5.68359H9.18555V9.20182H19.4104V5.68359Z" stroke="#3C3C3C" stroke-width="1.5" stroke-linejoin="round"/>
<path d="M6.63086 9.19922H21.9681" stroke="#3C3C3C" stroke-width="1.5" stroke-linejoin="round"/>
<path d="M14.298 11.8398C13.8276 11.8398 13.4459 12.2339 13.4459 12.7194C13.4459 13.2049 13.8276 13.599 14.298 13.599C14.7683 13.599 15.15 13.2049 15.15 12.7194C15.15 12.2339 14.7683 11.8398 14.298 11.8398ZM10.0376 11.8398C9.56727 11.8398 9.18555 12.2339 9.18555 12.7194C9.18555 13.2049 9.56727 13.599 10.0376 13.599C10.508 13.599 10.8897 13.2049 10.8897 12.7194C10.8897 12.2339 10.508 11.8398 10.0376 11.8398ZM18.5583 11.8398C18.088 11.8398 17.7063 12.2339 17.7063 12.7194C17.7063 13.2049 18.088 13.599 18.5583 13.599C19.0287 13.599 19.4104 13.2049 19.4104 12.7194C19.4104 12.2339 19.0287 11.8398 18.5583 11.8398ZM14.298 15.3581C13.8276 15.3581 13.4459 15.7521 13.4459 16.2376C13.4459 16.7231 13.8276 17.1172 14.298 17.1172C14.7683 17.1172 15.15 16.7231 15.15 16.2376C15.15 15.7521 14.7683 15.3581 14.298 15.3581ZM18.5583 15.3581C18.088 15.3581 17.7063 15.7521 17.7063 16.2376C17.7063 16.7231 18.088 17.1172 18.5583 17.1172C19.0287 17.1172 19.4104 16.7231 19.4104 16.2376C19.4104 15.7521 19.0287 15.3581 18.5583 15.3581ZM10.0376 15.3581C9.56727 15.3581 9.18555 15.7521 9.18555 16.2376C9.18555 16.7231 9.56727 17.1172 10.0376 17.1172C10.508 17.1172 10.8897 16.7231 10.8897 16.2376C10.8897 15.7521 10.508 15.3581 10.0376 15.3581ZM14.298 18.8763C13.8276 18.8763 13.4459 19.2703 13.4459 19.7559C13.4459 20.2414 13.8276 20.6354 14.298 20.6354C14.7683 20.6354 15.15 20.2414 15.15 19.7559C15.15 19.2703 14.7683 18.8763 14.298 18.8763ZM18.5583 18.8763C18.088 18.8763 17.7063 19.2703 17.7063 19.7559C17.7063 20.2414 18.088 20.6354 18.5583 20.6354C19.0287 20.6354 19.4104 20.2414 19.4104 19.7559C19.4104 19.2703 19.0287 18.8763 18.5583 18.8763ZM10.0376 18.8763C9.56727 18.8763 9.18555 19.2703 9.18555 19.7559C9.18555 20.2414 9.56727 20.6354 10.0376 20.6354C10.508 20.6354 10.8897 20.2414 10.8897 19.7559C10.8897 19.2703 10.508 18.8763 10.0376 18.8763ZM14.298 22.3945C13.8276 22.3945 13.4459 22.7886 13.4459 23.2741C13.4459 23.7596 13.8276 24.1536 14.298 24.1536C14.7683 24.1536 15.15 23.7596 15.15 23.2741C15.15 22.7886 14.7683 22.3945 14.298 22.3945ZM18.5583 22.3945C18.088 22.3945 17.7063 22.7886 17.7063 23.2741C17.7063 23.7596 18.088 24.1536 18.5583 24.1536C19.0287 24.1536 19.4104 23.7596 19.4104 23.2741C19.4104 22.7886 19.0287 22.3945 18.5583 22.3945ZM10.0376 22.3945C9.56727 22.3945 9.18555 22.7886 9.18555 23.2741C9.18555 23.7596 9.56727 24.1536 10.0376 24.1536C10.508 24.1536 10.8897 23.7596 10.8897 23.2741C10.8897 22.7886 10.508 22.3945 10.0376 22.3945Z" fill="#3C3C3C"/>
<path d="M18.5597 11.8398C18.0893 11.8398 17.7076 12.2339 17.7076 12.7194C17.7076 13.2049 18.0893 13.599 18.5597 13.599C19.03 13.599 19.4118 13.2049 19.4118 12.7194C19.4118 12.2339 19.03 11.8398 18.5597 11.8398ZM14.2993 11.8398C13.829 11.8398 13.4473 12.2339 13.4473 12.7194C13.4473 13.2049 13.829 13.599 14.2993 13.599C14.7697 13.599 15.1514 13.2049 15.1514 12.7194C15.1514 12.2339 14.7697 11.8398 14.2993 11.8398ZM18.5597 15.3581C18.0893 15.3581 17.7076 15.7521 17.7076 16.2376C17.7076 16.7231 18.0893 17.1172 18.5597 17.1172C19.03 17.1172 19.4118 16.7231 19.4118 16.2376C19.4118 15.7521 19.03 15.3581 18.5597 15.3581ZM14.2993 15.3581C13.829 15.3581 13.4473 15.7521 13.4473 16.2376C13.4473 16.7231 13.829 17.1172 14.2993 17.1172C14.7697 17.1172 15.1514 16.7231 15.1514 16.2376C15.1514 15.7521 14.7697 15.3581 14.2993 15.3581ZM18.5597 18.8763C18.0893 18.8763 17.7076 19.2703 17.7076 19.7559C17.7076 20.2414 18.0893 20.6354 18.5597 20.6354C19.03 20.6354 19.4118 20.2414 19.4118 19.7559C19.4118 19.2703 19.03 18.8763 18.5597 18.8763ZM14.2993 18.8763C13.829 18.8763 13.4473 19.2703 13.4473 19.7559C13.4473 20.2414 13.829 20.6354 14.2993 20.6354C14.7697 20.6354 15.1514 20.2414 15.1514 19.7559C15.1514 19.2703 14.7697 18.8763 14.2993 18.8763ZM18.5597 22.3945C18.0893 22.3945 17.7076 22.7886 17.7076 23.2741C17.7076 23.7596 18.0893 24.1536 18.5597 24.1536C19.03 24.1536 19.4118 23.7596 19.4118 23.2741C19.4118 22.7886 19.03 22.3945 18.5597 22.3945ZM14.2993 22.3945C13.829 22.3945 13.4473 22.7886 13.4473 23.2741C13.4473 23.7596 13.829 24.1536 14.2993 24.1536C14.7697 24.1536 15.1514 23.7596 15.1514 23.2741C15.1514 22.7886 14.7697 22.3945 14.2993 22.3945Z" fill="#3C3C3C"/>
</svg>
