<svg width="460" height="576" viewBox="0 0 460 576" fill="none" xmlns="http://www.w3.org/2000/svg">
<g opacity="0.5" clip-path="url(#clip0_1209_22998)">
<path d="M426.684 553.424C425.482 555.077 424.362 556.597 423.33 557.982C422.299 556.597 421.179 555.077 419.977 553.424C413.024 543.865 403.366 529.912 392.625 512.438C371.115 477.446 345.401 428.555 328.292 372.705C311.179 316.841 302.81 254.455 315.455 192.193C327.659 132.106 359.557 71.4863 423.33 16.4565C487.104 71.4863 519.002 132.106 531.205 192.193C543.851 254.455 535.481 316.841 518.369 372.705C501.26 428.555 475.546 477.446 454.036 512.438C443.295 529.912 433.637 543.865 426.684 553.424Z" stroke="#F9FAFB" stroke-width="20"/>
<path opacity="0.85" d="M244.345 523.146C242.713 524.282 241.194 525.326 239.798 526.275C239.303 524.669 238.77 522.915 238.208 521.018C234.859 509.727 230.429 493.408 226.151 473.414C217.584 433.376 209.678 378.852 212.139 320.581C214.6 262.296 227.413 200.717 259.879 146.132C291.2 93.4716 341.133 46.7666 419.041 15.7576C460.524 88.4798 470.336 156.052 461.881 216.695C453.115 279.559 424.616 335.658 390.085 382.739C355.562 429.809 315.28 467.495 283.542 493.451C267.693 506.412 254.024 516.408 244.345 523.146Z" stroke="#F9FAFB" stroke-width="20"/>
<path opacity="0.85" d="M606.857 526.275C605.461 525.326 603.943 524.282 602.311 523.146C592.631 516.408 578.962 506.412 563.113 493.451C531.375 467.495 491.093 429.809 456.571 382.739C422.04 335.658 393.54 279.559 384.775 216.695C376.319 156.052 386.131 88.4798 427.615 15.7576C505.522 46.7666 555.456 93.4716 586.777 146.132C619.243 200.716 632.055 262.296 634.517 320.581C636.978 378.852 629.071 433.376 620.504 473.414C616.226 493.408 611.797 509.727 608.448 521.018C607.885 522.915 607.353 524.669 606.857 526.275Z" stroke="#F9FAFB" stroke-width="20"/>
<path d="M17.6697 376.461C15.6873 376.691 13.8497 376.893 12.1653 377.069C12.4889 375.437 12.8503 373.66 13.2516 371.746C15.6645 360.236 19.5154 343.793 25.247 324.188C36.7244 284.93 55.6724 233.241 85.5515 183.144C115.437 133.036 156.027 84.9044 210.643 52.1939C263.335 20.635 329.624 3.09684 413.132 12.563C415.162 96.0645 391.701 160.114 355.41 209.465C317.782 260.634 265.95 296.545 213.08 321.678C160.224 346.805 106.747 360.96 66.39 368.825C46.2366 372.752 29.4183 375.099 17.6697 376.461Z" stroke="#F9FAFB" stroke-width="20"/>
<path opacity="0.8" d="M831.849 377.062C830.195 376.888 828.392 376.688 826.45 376.462C814.774 375.1 798.058 372.754 778.027 368.827C737.915 360.964 684.763 346.811 632.229 321.688C579.682 296.56 528.162 260.654 490.759 209.488C454.682 160.135 431.354 96.0754 433.374 12.557C516.339 3.10559 582.197 20.6367 634.553 52.1804C688.833 84.884 729.182 133.011 758.892 183.122C788.596 233.221 807.432 284.912 818.843 324.173C824.541 343.779 828.369 360.223 830.768 371.734C831.167 373.65 831.527 375.429 831.849 377.062Z" stroke="#F9FAFB" stroke-width="20"/>
<ellipse cx="423.653" cy="7.42711" rx="5.78082" ry="5.7765" transform="rotate(180 423.653 7.42711)" fill="white"/>
</g>
<defs>
<clipPath id="clip0_1209_22998">
<rect width="844" height="576" fill="white" transform="translate(844 576) rotate(180)"/>
</clipPath>
</defs>
</svg>
