<svg width="94" height="64" viewBox="0 0 94 64" fill="none" xmlns="http://www.w3.org/2000/svg">
<g clip-path="url(#clip0_966_20018)">
<path d="M46.9969 62.7527C65.1258 45.3543 65.0703 17.3412 46.9368 0C29.8578 17.7674 29.904 45.038 46.9969 62.7527Z" fill="#1E40AF"/>
<path opacity="0.8" d="M47.003 62.7552C37.2634 40.0891 48.5985 14.2288 72.3371 4.80469C80.9576 27.4313 69.9277 52.6062 47.003 62.7552Z" fill="#F59E0B"/>
<path opacity="0.8" d="M47.0315 62.7552C56.7712 40.0891 45.436 14.2288 21.6974 4.80469C13.077 27.4313 24.1069 52.6062 47.0315 62.7552Z" fill="#F59E0B"/>
<path opacity="0.8" d="M47 62.7423C72.7688 62.7247 93.6725 42.9626 93.8621 18.5215C68.5557 19.51 48.2024 38.7405 47 62.7423Z" fill="#1E40AF"/>
<path opacity="0.8" d="M46.9988 62.7467C21.23 62.7247 0.326332 42.967 0.136719 18.5215C25.4431 19.51 45.7964 38.7405 46.9988 62.7423V62.7467Z" fill="#1E40AF"/>
</g>
<defs>
<clipPath id="clip0_966_20018">
<rect width="93.7289" height="64" fill="white" transform="translate(0.136719)"/>
</clipPath>
</defs>
</svg>
