<svg width="90" height="60" viewBox="0 0 90 60" fill="none" xmlns="http://www.w3.org/2000/svg">
<path d="M44.9985 59.1309C62.071 42.7367 62.0188 16.3404 44.9419 0C28.858 16.742 28.9015 42.4386 44.9985 59.1309Z" fill="#1E40AF"/>
<path opacity="0.8" d="M45.0027 59.1328C35.8306 37.7748 46.5053 13.407 68.8607 4.52686C76.9789 25.8476 66.5916 49.5695 45.0027 59.1328Z" fill="#F9FAFB"/>
<path opacity="0.8" d="M45.0296 59.1328C54.2017 37.7748 43.527 13.407 21.1716 4.52686C13.0534 25.8476 23.4406 49.5695 45.0296 59.1328Z" fill="#F9FAFB"/>
<path opacity="0.8" d="M45 59.1212C69.2674 59.1047 88.9531 40.4832 89.1316 17.4526C65.2998 18.3841 46.1324 36.5047 45 59.1212Z" fill="#1E40AF"/>
<path opacity="0.8" d="M44.9988 59.1254C20.7314 59.1047 1.04575 40.4873 0.867188 17.4526C24.6991 18.3841 43.8665 36.5047 44.9988 59.1212V59.1254Z" fill="#1E40AF"/>
</svg>
