<svg width="18" height="18" viewBox="0 0 18 18" fill="none" xmlns="http://www.w3.org/2000/svg">
<path d="M16.976 13.9859C16.976 14.2739 16.912 14.5699 16.776 14.8579C16.64 15.1459 16.464 15.4179 16.232 15.6739C15.84 16.1059 15.408 16.4179 14.92 16.6179C14.44 16.8179 13.92 16.9219 13.36 16.9219C12.544 16.9219 11.672 16.7299 10.752 16.3379C9.832 15.9459 8.912 15.4179 8 14.7539C7.08 14.0819 6.208 13.3379 5.376 12.5139C4.552 11.6819 3.808 10.8099 3.144 9.89788C2.488 8.98588 1.96 8.07388 1.576 7.16988C1.192 6.25788 1 5.38588 1 4.55388C1 4.00988 1.096 3.48988 1.288 3.00988C1.48 2.52188 1.784 2.07388 2.208 1.67388C2.72 1.16988 3.28 0.921875 3.872 0.921875C4.096 0.921875 4.32 0.969875 4.52 1.06588C4.728 1.16188 4.912 1.30588 5.056 1.51388L6.912 4.12988C7.056 4.32988 7.16 4.51388 7.232 4.68988C7.304 4.85788 7.344 5.02588 7.344 5.17788C7.344 5.36988 7.288 5.56187 7.176 5.74587C7.072 5.92987 6.92 6.12187 6.728 6.31387L6.12 6.94587C6.032 7.03387 5.992 7.13788 5.992 7.26588C5.992 7.32988 6 7.38587 6.016 7.44987C6.04 7.51387 6.064 7.56187 6.08 7.60987C6.224 7.87387 6.472 8.21788 6.824 8.63388C7.184 9.04988 7.568 9.47388 7.984 9.89788C8.416 10.3219 8.832 10.7139 9.256 11.0739C9.672 11.4259 10.016 11.6659 10.288 11.8099C10.328 11.8259 10.376 11.8499 10.432 11.8739C10.496 11.8979 10.56 11.9059 10.632 11.9059C10.768 11.9059 10.872 11.8579 10.96 11.7699L11.568 11.1699C11.768 10.9699 11.96 10.8179 12.144 10.7219C12.328 10.6099 12.512 10.5539 12.712 10.5539C12.864 10.5539 13.024 10.5859 13.2 10.6579C13.376 10.7299 13.56 10.8339 13.76 10.9699L16.408 12.8499C16.616 12.9939 16.76 13.1619 16.848 13.3619C16.928 13.5619 16.976 13.7619 16.976 13.9859Z" stroke="#F9FAFB" stroke-width="1.5" stroke-miterlimit="10"/>
<path opacity="0.4" d="M14.1984 6.52192C14.1984 6.04192 13.8224 5.30592 13.2624 4.70592C12.7504 4.15392 12.0704 3.72192 11.3984 3.72192" stroke="#F9FAFB" stroke-width="1.5" stroke-linecap="round" stroke-linejoin="round"/>
<path opacity="0.4" d="M16.9984 6.52188C16.9984 3.42588 14.4944 0.921875 11.3984 0.921875" stroke="#F9FAFB" stroke-width="1.5" stroke-linecap="round" stroke-linejoin="round"/>
</svg>
