<svg width="18" height="14" viewBox="0 0 18 14" fill="none" xmlns="http://www.w3.org/2000/svg">
<path d="M8.99839 3.30273C3.75578 3.30273 1.55469 8.0174 1.55469 8.11522C1.55469 8.21305 3.75578 12.9277 8.99839 12.9277C14.241 12.9277 16.4421 8.21305 16.4421 8.11522C16.4421 8.0174 14.241 3.30273 8.99839 3.30273Z" stroke="#F59E0B" stroke-linecap="round" stroke-linejoin="round"/>
<path d="M2.95141 6.04173L1 4.09033" stroke="#F59E0B" stroke-linecap="round" stroke-linejoin="round"/>
<path d="M6.66653 3.6451L5.87109 1.07178" stroke="#F59E0B" stroke-linecap="round" stroke-linejoin="round"/>
<path d="M15.0469 6.04173L16.9982 4.09033" stroke="#F59E0B" stroke-linecap="round" stroke-linejoin="round"/>
<path d="M11.3359 3.6451L12.1314 1.07178" stroke="#F59E0B" stroke-linecap="round" stroke-linejoin="round"/>
<path d="M8.51296 10.2368C9.68442 10.505 10.8515 9.77283 11.1198 8.60136C11.3881 7.4299 10.6559 6.26277 9.48441 5.99451C8.31294 5.72626 7.14582 6.45845 6.87756 7.62991C6.6093 8.80138 7.34149 9.9685 8.51296 10.2368Z" stroke="#F59E0B" stroke-linecap="round" stroke-linejoin="round"/>
</svg>
