<svg width="32" height="23" viewBox="0 0 32 23" fill="none" xmlns="http://www.w3.org/2000/svg">
<g clip-path="url(#clip0_852_8235)">
<path d="M15.9985 22.5517C22.1879 16.2992 22.169 6.232 15.978 0C10.1471 6.38516 10.1629 16.1855 15.9985 22.5517Z" fill="#1D4ED8"/>
<path opacity="0.8" d="M16.0006 22.5525C12.6753 14.4069 16.5453 5.11335 24.6499 1.72656C27.593 9.85801 23.8273 18.9052 16.0006 22.5525Z" fill="#F59E0B"/>
<path opacity="0.8" d="M16.0109 22.5525C19.3361 14.4069 15.4662 5.11335 7.36155 1.72656C4.41844 9.85801 8.18417 18.9052 16.0109 22.5525Z" fill="#F59E0B"/>
<path opacity="0.8" d="M16 22.5481C24.7978 22.5418 31.9345 15.4398 31.9992 6.65625C23.3594 7.01151 16.4105 13.9224 16 22.5481Z" fill="#1D4ED8"/>
<path opacity="0.8" d="M15.9992 22.5497C7.20146 22.5418 0.0647358 15.4414 0 6.65625C8.63986 7.01151 15.5887 13.9224 15.9992 22.5481V22.5497Z" fill="#1D4ED8"/>
</g>
<defs>
<clipPath id="clip0_852_8235">
<rect width="32" height="23" fill="white"/>
</clipPath>
</defs>
</svg>
