<svg width="32" height="32" viewBox="0 0 32 32" fill="none" xmlns="http://www.w3.org/2000/svg">
<path fill-rule="evenodd" clip-rule="evenodd" d="M16 0C11.6544 0 11.1104 0.0181333 9.40373 0.096C7.70027 0.173867 6.53653 0.4448 5.51893 0.840533C4.45227 1.2416 3.4848 1.87093 2.6848 2.68587C1.87117 3.48494 1.24145 4.45173 0.839467 5.51893C0.445867 6.53653 0.173867 7.70133 0.096 9.4048C0.0192 11.1104 0 11.6533 0 16C0 20.3467 0.0181333 20.8896 0.096 22.5963C0.173867 24.2997 0.4448 25.4635 0.840533 26.4811C1.2416 27.5477 1.87093 28.5152 2.68587 29.3152C3.48496 30.1288 4.45174 30.7585 5.51893 31.1605C6.53653 31.5552 7.70027 31.8261 9.40373 31.904C11.1104 31.9819 11.6544 32 16 32C20.3456 32 20.8896 31.9819 22.5963 31.904C24.2997 31.8261 25.4635 31.5552 26.4811 31.1595C27.5477 30.7584 28.5152 30.1291 29.3152 29.3141C30.1288 28.5151 30.7586 27.5483 31.1605 26.4811C31.5552 25.4635 31.8261 24.2997 31.904 22.5963C31.9819 20.8896 32 20.3456 32 16C32 11.6544 31.9819 11.1104 31.904 9.40373C31.8261 7.70027 31.5552 6.53653 31.1595 5.51893C30.7578 4.45127 30.128 3.48408 29.3141 2.6848C28.5151 1.87117 27.5483 1.24145 26.4811 0.839467C25.4635 0.445867 24.2987 0.173867 22.5952 0.096C20.8896 0.0192 20.3467 0 16 0ZM16 2.8832C20.272 2.8832 20.7787 2.8992 22.4661 2.976C24.0256 3.04747 24.8725 3.30667 25.4368 3.52747C26.1835 3.81653 26.7168 4.16427 27.2768 4.7232C27.8368 5.2832 28.1835 5.81653 28.4725 6.5632C28.6923 7.12747 28.9525 7.9744 29.024 9.53387C29.1008 11.2213 29.1168 11.728 29.1168 16C29.1168 20.272 29.1008 20.7787 29.024 22.4661C28.9525 24.0256 28.6933 24.8725 28.4725 25.4368C28.2165 26.1318 27.8079 26.7605 27.2768 27.2768C26.7606 27.808 26.1318 28.2166 25.4368 28.4725C24.8725 28.6923 24.0256 28.9525 22.4661 29.024C20.7787 29.1008 20.2731 29.1168 16 29.1168C11.7269 29.1168 11.2213 29.1008 9.53387 29.024C7.9744 28.9525 7.12747 28.6933 6.5632 28.4725C5.86822 28.2165 5.23947 27.8079 4.7232 27.2768C4.19219 26.7605 3.7836 26.1318 3.52747 25.4368C3.30773 24.8725 3.04747 24.0256 2.976 22.4661C2.8992 20.7787 2.8832 20.272 2.8832 16C2.8832 11.728 2.8992 11.2213 2.976 9.53387C3.04747 7.9744 3.30667 7.12747 3.52747 6.5632C3.81653 5.81653 4.16427 5.2832 4.7232 4.7232C5.2394 4.19205 5.86817 3.78344 6.5632 3.52747C7.12747 3.30773 7.9744 3.04747 9.53387 2.976C11.2213 2.8992 11.728 2.8832 16 2.8832Z" fill="#F9FAFB"/>
<path fill-rule="evenodd" clip-rule="evenodd" d="M16 21.3387C15.2989 21.3387 14.6047 21.2006 13.957 20.9323C13.3093 20.664 12.7207 20.2707 12.225 19.775C11.7293 19.2793 11.336 18.6907 11.0677 18.043C10.7994 17.3953 10.6613 16.7011 10.6613 16C10.6613 15.2989 10.7994 14.6047 11.0677 13.957C11.336 13.3093 11.7293 12.7207 12.225 12.225C12.7207 11.7293 13.3093 11.336 13.957 11.0677C14.6047 10.7994 15.2989 10.6613 16 10.6613C17.4159 10.6613 18.7738 11.2238 19.775 12.225C20.7762 13.2262 21.3387 14.5841 21.3387 16C21.3387 17.4159 20.7762 18.7738 19.775 19.775C18.7738 20.7762 17.4159 21.3387 16 21.3387ZM16 7.776C13.8189 7.776 11.7271 8.64245 10.1848 10.1848C8.64245 11.7271 7.776 13.8189 7.776 16C7.776 18.1811 8.64245 20.2729 10.1848 21.8152C11.7271 23.3575 13.8189 24.224 16 24.224C18.1811 24.224 20.2729 23.3575 21.8152 21.8152C23.3575 20.2729 24.224 18.1811 24.224 16C24.224 13.8189 23.3575 11.7271 21.8152 10.1848C20.2729 8.64245 18.1811 7.776 16 7.776ZM26.6165 7.62667C26.6165 8.14225 26.4117 8.63671 26.0471 9.00128C25.6826 9.36585 25.1881 9.57067 24.6725 9.57067C24.1569 9.57067 23.6625 9.36585 23.2979 9.00128C22.9333 8.63671 22.7285 8.14225 22.7285 7.62667C22.7285 7.11109 22.9333 6.61662 23.2979 6.25205C23.6625 5.88748 24.1569 5.68267 24.6725 5.68267C25.1881 5.68267 25.6826 5.88748 26.0471 6.25205C26.4117 6.61662 26.6165 7.11109 26.6165 7.62667Z" fill="#F9FAFB"/>
</svg>
