<svg width="318" height="315" viewBox="0 0 318 315" fill="none" xmlns="http://www.w3.org/2000/svg">
<g clip-path="url(#clip0_871_21174)">
<path d="M135.11 136.483C135.022 135.807 134.958 135.281 134.915 134.914C135.282 134.956 135.809 135.02 136.485 135.109C137.915 135.295 140.011 135.59 142.676 136.024C148.005 136.89 155.605 138.308 164.681 140.514C182.836 144.928 206.886 152.496 230.483 165.107C254.081 177.718 277.206 195.363 293.54 219.924C309.812 244.392 319.364 275.751 315.901 315.9C275.752 319.363 244.393 309.811 219.926 293.539C195.365 277.204 177.72 254.079 165.108 230.481C152.497 206.884 144.93 182.835 140.516 164.68C138.309 155.603 136.891 148.003 136.025 142.674C135.592 140.01 135.297 137.913 135.11 136.483Z" stroke="#F9FAFB"/>
<path opacity="0.85" d="M205.461 86.5748C205.534 86.2275 205.6 85.9209 205.658 85.656C205.901 85.7764 206.182 85.9165 206.499 86.0764C207.783 86.7229 209.66 87.6921 212.027 88.9789C216.762 91.5527 223.457 95.3966 231.283 100.471C246.94 110.623 267.106 125.688 285.176 145.347C303.248 165.006 319.193 189.228 326.469 217.696C333.689 245.947 332.389 278.445 316.059 314.921C277.342 304.914 251.115 285.652 233.527 262.386C215.804 238.941 206.813 211.376 202.716 184.997C198.618 158.619 199.422 133.472 201.253 114.911C202.168 105.633 203.34 98.0064 204.282 92.7028C204.753 90.0512 205.166 87.9805 205.461 86.5748Z" stroke="#F9FAFB" stroke-width="2"/>
<path opacity="0.85" d="M84.9029 205.329C85.2634 205.248 85.7816 205.135 86.4484 204.995C87.8589 204.698 89.9346 204.284 92.5917 203.812C97.9061 202.868 105.545 201.695 114.838 200.778C133.426 198.944 158.618 198.138 185.05 202.244C211.483 206.35 239.134 215.364 262.664 233.151C286.105 250.871 305.483 277.318 315.487 316.365C278.754 332.904 246.012 334.251 217.548 326.976C188.977 319.674 164.684 303.675 144.985 285.567C125.285 267.459 110.195 247.257 100.028 231.578C94.9455 223.739 91.0951 217.033 88.516 212.289C87.2265 209.916 86.2549 208.035 85.6062 206.747C85.2994 206.138 85.0648 205.662 84.9029 205.329Z" stroke="#2563EB"/>
<path opacity="0.8" d="M327.245 61.613C327.684 61.0921 328.03 60.6896 328.272 60.4104C328.488 60.7103 328.796 61.1424 329.188 61.7011C330.016 62.8821 331.214 64.6284 332.694 66.8869C335.654 71.404 339.74 77.969 344.241 86.1554C353.244 102.53 363.902 125.381 370.533 151.299C377.164 177.217 379.763 206.18 372.673 234.792C365.61 263.296 348.925 291.486 316.965 315.997C287.291 288.704 273.158 259.122 268.639 230.095C264.103 200.958 269.249 172.345 278.144 147.128C287.039 121.911 299.674 100.112 310.09 84.6132C315.297 76.8651 319.947 70.6945 323.295 66.4622C324.968 64.3461 326.316 62.7146 327.245 61.613Z" stroke="#F9FAFB"/>
<path opacity="0.8" d="M60.4135 328.271C60.6927 328.029 61.0952 327.684 61.6161 327.244C62.7178 326.316 64.3492 324.968 66.4653 323.294C70.6977 319.946 76.8683 315.296 84.6164 310.089C100.115 299.673 121.914 287.038 147.131 278.143C172.348 269.248 200.961 264.102 230.098 268.638C259.126 273.157 288.707 287.29 316 316.964C291.49 348.924 263.3 365.609 234.795 372.672C206.183 379.762 177.22 377.164 151.302 370.533C125.385 363.902 102.534 353.244 86.1585 344.24C77.9722 339.739 71.4072 335.653 66.8901 332.693C64.6316 331.213 62.8852 330.015 61.7043 329.187C61.1456 328.796 60.7134 328.487 60.4135 328.271Z" stroke="#F9FAFB"/>
</g>
<defs>
<clipPath id="clip0_871_21174">
<rect width="379.994" height="259.673" fill="white" transform="translate(0 268.695) rotate(-45)"/>
</clipPath>
</defs>
</svg>
