<svg width="48" height="32" viewBox="0 0 48 32" fill="none" xmlns="http://www.w3.org/2000/svg">
<path fill-rule="evenodd" clip-rule="evenodd" d="M0 0H48V32H0V0Z" fill="#159B15"/>
<path fill-rule="evenodd" clip-rule="evenodd" d="M0 6.85547H48V25.141H0V6.85547Z" fill="#111827"/>
<path fill-rule="evenodd" clip-rule="evenodd" d="M0 8H48V24H0V8Z" fill="#0001FD"/>
<path fill-rule="evenodd" clip-rule="evenodd" d="M17 22.4005L19.2855 19.886C19.2855 19.886 17.6857 17.6004 17.6857 14.6285C17.6857 11.6566 19.9713 9.37109 22.7141 9.37109L23.8572 11.1999L25.0003 9.37109C27.2859 9.37109 30.0287 11.1999 30.0287 14.3995C30.0287 17.5991 28.4289 19.8853 28.4289 19.8853L30.9435 22.6282L26.1434 21.4851V14.1705C26.1434 13.7131 25.2293 12.7991 23.8579 12.7991C22.7148 12.7991 21.8007 13.7131 21.8007 14.1705V21.2561L17.0006 22.3992L17 22.4005Z" fill="white"/>
<path fill-rule="evenodd" clip-rule="evenodd" d="M22.9286 17.0864L23.2569 16.0368L22.3867 15.364L23.4866 15.3518L23.8575 14.3164L24.2091 15.3589L25.3083 15.3911L24.4258 16.0478L24.7348 17.1038L23.8375 16.4671L22.9292 17.087L22.9286 17.0864Z" fill="white"/>
</svg>
