<svg width="32" height="23" viewBox="0 0 32 23" fill="none" xmlns="http://www.w3.org/2000/svg">
<g clip-path="url(#clip0_1273_8239)">
<path d="M15.9946 22.5517C22.184 16.2992 22.1651 6.232 15.9741 0C10.1432 6.38516 10.1589 16.1855 15.9946 22.5517Z" fill="#F9FAFB"/>
<path opacity="0.8" d="M16.0045 22.5525C12.6793 14.4069 16.5492 5.11335 24.6538 1.72656C27.5969 9.85801 23.8312 18.9052 16.0045 22.5525Z" fill="#F59E0B"/>
<path opacity="0.8" d="M16.007 22.5525C19.3322 14.4069 15.4622 5.11335 7.35765 1.72656C4.41454 9.85801 8.18026 18.9052 16.007 22.5525Z" fill="#F59E0B"/>
<path opacity="0.8" d="M16 22.5481C24.7978 22.5418 31.9345 15.4398 31.9992 6.65625C23.3594 7.01151 16.4105 13.9224 16 22.5481Z" fill="#F9FAFB"/>
<path opacity="0.8" d="M15.9992 22.5497C7.20146 22.5418 0.0647358 15.4414 0 6.65625C8.63986 7.01151 15.5887 13.9224 15.9992 22.5481V22.5497Z" fill="#F9FAFB"/>
</g>
<defs>
<clipPath id="clip0_1273_8239">
<rect width="32" height="23" fill="white"/>
</clipPath>
</defs>
</svg>
