<svg width="47" height="33" viewBox="0 0 47 33" fill="none" xmlns="http://www.w3.org/2000/svg">
<g clip-path="url(#clip0_1184_26703)">
<path d="M23.4301 32.3295C32.4945 23.6303 32.4668 9.62374 23.4 0.953125C14.8605 9.83682 14.8836 23.4721 23.4301 32.3295Z" fill="#2563EB"/>
<path opacity="0.8" d="M23.4331 32.3307C18.5633 20.9977 24.2309 8.06752 36.1002 3.35547C40.4104 14.6688 34.8955 27.2562 23.4331 32.3307Z" fill="#F59E0B"/>
<path opacity="0.8" d="M23.4494 32.3307C28.3192 20.9977 22.6516 8.06752 10.7823 3.35547C6.47207 14.6688 11.987 27.2562 23.4494 32.3307Z" fill="#F59E0B"/>
<path opacity="0.8" d="M23.4336 32.3243C36.318 32.3155 46.7698 22.4344 46.8647 10.2139C34.2115 10.7081 24.0348 20.3234 23.4336 32.3243Z" fill="#2563EB"/>
<path opacity="0.8" d="M23.4311 32.3265C10.5466 32.3155 0.0948064 22.4366 0 10.2139C12.6532 10.7081 22.8298 20.3234 23.4311 32.3243V32.3265Z" fill="#2563EB"/>
</g>
<defs>
<clipPath id="clip0_1184_26703">
<rect width="46.8644" height="32" fill="white" transform="translate(0 0.953125)"/>
</clipPath>
</defs>
</svg>
