<svg width="19" height="19" viewBox="0 0 19 19" fill="none" xmlns="http://www.w3.org/2000/svg">
<path d="M17.5665 8.2394L16.7414 11.7587C16.0342 14.7981 14.6366 16.0273 12.0097 15.7747C11.5888 15.741 11.1341 15.6653 10.6458 15.5474L9.23134 15.2106C5.72047 14.3771 4.63437 12.6427 5.45947 9.12343L6.28457 5.59573C6.45295 4.88008 6.65502 4.25705 6.9076 3.74347C7.89266 1.70599 9.56811 1.15873 12.3802 1.82386L13.7862 2.15221C17.3139 2.97731 18.3916 4.72011 17.5665 8.2394Z" stroke="#A16207" stroke-width="1.5" stroke-linecap="round" stroke-linejoin="round"/>
<path d="M12.0075 15.7773C11.4855 16.131 10.8288 16.4256 10.0289 16.6866L8.69866 17.1244C5.35618 18.2021 3.59654 17.3012 2.51044 13.9588L1.43277 10.6331C0.355089 7.29064 1.24754 5.52258 4.59002 4.4449L5.92028 4.00709C6.26547 3.89764 6.59383 3.80503 6.90534 3.74609C6.65276 4.25967 6.4507 4.88271 6.28231 5.59835L5.45721 9.12606C4.63212 12.6453 5.71821 14.3797 9.22908 15.2132L10.6435 15.55C11.1319 15.6679 11.5865 15.7437 12.0075 15.7773Z" stroke="#A16207" stroke-width="1.5" stroke-linecap="round" stroke-linejoin="round"/>
<path d="M9.97266 6.63379L14.056 7.66937" stroke="#A16207" stroke-width="1.5" stroke-linecap="round" stroke-linejoin="round"/>
<path d="M9.14648 9.88965L11.5881 10.5127" stroke="#A16207" stroke-width="1.5" stroke-linecap="round" stroke-linejoin="round"/>
</svg>
