<svg width="19" height="18" viewBox="0 0 19 18" fill="none" xmlns="http://www.w3.org/2000/svg">
<path d="M6.70788 14.448H6.30908C3.11865 14.448 1.52344 13.6504 1.52344 9.66235V5.67431C1.52344 2.48389 3.11865 0.888672 6.30908 0.888672H12.6899C15.8804 0.888672 17.4756 2.48389 17.4756 5.67431V9.66235C17.4756 12.8528 15.8804 14.448 12.6899 14.448H12.2911C12.0439 14.448 11.8046 14.5676 11.653 14.767L10.4566 16.3623C9.93022 17.0641 9.0688 17.0641 8.54238 16.3623L7.34597 14.767C7.21835 14.5916 6.92324 14.448 6.70788 14.448Z" stroke="#2563EB" stroke-width="1.5" stroke-miterlimit="10" stroke-linecap="round" stroke-linejoin="round"/>
<path d="M5.51172 5.67432H13.4878" stroke="#2563EB" stroke-width="1.5" stroke-linecap="round" stroke-linejoin="round"/>
<path d="M5.51172 9.66211H10.2974" stroke="#2563EB" stroke-width="1.5" stroke-linecap="round" stroke-linejoin="round"/>
</svg>
