<svg width="316" height="339" viewBox="0 0 316 339" fill="none" xmlns="http://www.w3.org/2000/svg">
<path d="M92.6167 290.091C92.6167 290.091 101.429 305.841 116.367 301.766C116.929 301.612 117.525 301.728 118.004 302.053C122.196 304.895 130.104 307.191 140.837 302.795C141.417 302.557 142.079 302.616 142.6 302.962C151.179 308.649 163.229 310.612 173.875 302.074C174.196 301.816 174.629 301.749 175.013 301.903C180.671 304.178 184.042 304.041 191.021 301.366C192.233 300.899 193.079 300.72 193.621 300.766C195.325 300.907 198.904 303.432 206.038 301.457C203.571 308.732 184.679 314.416 184.679 314.416L122.804 319.37L90.0625 306.303L92.6167 290.091Z" fill="#93C5FD"/>
<path d="M38.373 218.207C19.198 218.761 17.223 231.211 17.2188 234.265C17.2105 237.682 18.4563 240.795 21.3771 241.599C24.9396 242.582 26.6021 239.124 24.7396 237.857C21.9188 235.944 22.4271 234.228 23.8271 233.407C25.8063 232.253 35.7855 233.065 31.8605 249.365C30.4605 255.186 28.0313 255.99 27.2688 258.549C27.5396 265.503 30.8938 264.982 38.1271 264.982C51.0438 264.982 60.348 253.94 60.348 241.024C60.3396 228.111 51.2855 217.836 38.373 218.207Z" fill="#93C5FD"/>
<path d="M282.978 293.724C290.34 278.578 284.728 261.366 271.903 250.453C263.595 243.386 267.065 235.724 271.082 235.041C273.428 234.641 276.245 237.974 273.324 240.57C272.52 241.282 273.536 243.195 276.536 241.786C278.707 240.766 281.853 234.52 276.611 229.62C271.695 225.02 265.295 224.207 258.536 226.649C246.678 230.936 243.007 242.345 245.036 256.457C246.532 266.874 249.22 309.382 249.22 309.382L271.215 309.007C276.457 304.67 280.249 299.34 282.978 293.724Z" fill="#93C5FD"/>
<path d="M270.083 266.82C272.025 270.17 276.9 268.982 275.554 265.816C273.404 260.741 277.979 259.416 279.625 260.532C284.296 263.695 286.383 275.02 273.367 280.195C266.804 282.803 252.421 283.007 236.654 279.953C230.058 288.303 235.617 327.649 274.513 327.02C315.442 326.361 320.663 281.836 310.879 263.291C304.796 251.761 288.413 244.478 276.246 248.357C269.825 250.399 265.158 258.32 270.083 266.82Z" fill="#93C5FD"/>
<path d="M197.718 292.14C198.314 291.978 198.772 291.74 198.943 291.399C199.451 290.37 197.543 289.428 196.718 287.52C195.751 285.295 196.61 282.965 198.222 282.145C200.397 281.036 203.943 281.828 205.922 284.357C208.026 287.04 214.376 299.353 193.78 309.986C210.16 315.203 222.21 296.136 222.447 291.178C223.23 274.907 211.693 267.974 201.985 268.34C192.935 268.682 189.326 275.57 189.618 282.536C189.851 288.157 194.759 292.957 197.718 292.14Z" fill="#93C5FD"/>
<path d="M74.5297 313.949C75.6089 313.949 76.9714 313.941 78.5255 313.911L83.6672 323.111C100.963 334.136 113.238 341.149 143.755 329.57C161.701 322.761 166.084 320.424 175.605 319.591C180.026 326.549 190.359 330.97 203.126 332.357L221.817 323.166C221.817 323.166 226.367 301.911 221.905 287.803C213.242 306.624 199.201 307.299 192.038 301.67C191.542 301.278 190.834 301.303 190.384 301.749C178.73 313.257 170.034 309.336 165.976 306.932C165.463 306.628 164.83 306.624 164.301 306.899C147.446 315.732 134.017 308.695 129.934 306.045C129.213 305.574 128.267 305.686 127.659 306.295C126.146 307.799 122.83 310.27 117.184 310.561C112.559 310.803 104.692 307.482 100.109 300.42C89.5672 284.174 82.2589 259.507 88.0339 245.341C90.1339 240.191 94.3172 238.311 97.6797 238.378C102.005 238.466 103.909 241.782 100.534 242.536C98.5422 242.982 98.7797 246.553 102.767 246.495C107.651 246.424 110.709 241.595 110.709 237.607C110.709 225.074 99.9839 217.836 83.638 217.836C64.5714 217.836 48.7422 235.482 48.7422 254.836C48.738 274.186 55.4672 313.949 74.5297 313.949Z" fill="#93C5FD"/>
<path d="M102.712 335.349C113.366 338.836 125.491 339.145 144.275 332.378C157.383 327.657 164.475 321.399 175.612 319.59C177.795 323.024 181.416 325.836 186.058 327.978L210.304 324.053C210.304 324.053 223.133 303.745 215.191 310.878C208.02 317.315 198.404 313.436 193.883 311.932C193.179 311.699 192.408 311.824 191.804 312.257C183.52 318.199 175.612 319.595 168.016 316.32C167.079 315.915 166.041 315.828 165.27 316.503C155.775 324.803 145.945 321.286 138.979 316.903C138.133 316.37 137.045 316.499 136.304 317.165C122.458 329.649 106.145 320.424 101.912 315.761C101.395 315.195 100.62 314.949 99.8663 315.09C86.8163 317.486 80.9371 307.986 80.9371 307.986C76.2954 318.478 92.4204 329.27 102.712 335.349Z" fill="#93C5FD"/>
<path d="M204.63 315.741C197.53 320.607 184.647 324.178 179.484 324.153C191.293 336.257 223.197 337.624 240.184 333.207C263.951 327.024 271.043 312.757 271.03 297.174C270.993 254.332 231.114 251.341 227.984 239.941C226.543 234.682 228.868 232.495 230.976 231.449C233.397 230.249 236.309 231.603 236.355 232.757C236.414 234.332 233.568 234.336 234.851 236.941C235.505 238.274 237.33 238.47 239.276 237.649C242.447 236.311 244.18 232.878 243.634 229.482C242.072 219.732 234.184 213.132 223.268 213.132C210.859 213.132 199.689 221.611 196.859 233.707C193.122 249.682 209.805 261.341 216.664 276.966C224.764 296.353 212.626 310.257 204.63 315.741Z" fill="#93C5FD"/>
<path d="M56.8672 312.749C87.2172 327.453 95.488 343.766 126.63 337.07C90.5547 334.549 81.1713 303.895 86.0714 290.741C87.863 285.924 92.2005 282.353 97.0005 281.487C99.013 281.124 102.171 281.157 103.734 283.324C104.434 284.299 104.005 285.462 102.759 286.074C101.701 286.595 100.638 287.195 100.717 288.887C100.834 291.407 105.209 292.557 108.288 289.207C111.159 286.087 109.501 277.862 104.876 273.978C98.9505 269.007 89.9172 267.766 81.4547 268.741C60.4797 271.153 44.9547 286.449 42.1172 308.662C46.1464 309.199 52.013 310.399 56.8672 312.749Z" fill="#93C5FD"/>
<path d="M25.0488 300.324C28.528 298.12 28.1946 294.528 27.9238 293.578C27.2113 291.074 23.7363 291.149 23.0154 293.649C22.8071 294.374 22.3071 294.974 21.3196 295.228C17.928 296.099 16.8696 287.666 21.378 285.17C28.628 281.157 38.3905 294.387 25.4946 309.024C38.778 306.095 53.8613 310.328 66.028 316.453C72.4238 309.428 76.9613 299.174 76.9613 288.666C76.9613 267.082 58.8113 249.791 39.9238 248.712C20.3196 247.591 0.157118 260.516 0.440452 279.92C0.732118 299.878 18.303 304.599 25.0488 300.324Z" fill="#93C5FD"/>
<path d="M165.621 149.778H126.555L127.33 152.836H166.171L165.621 149.778Z" fill="white"/>
<path d="M125.57 51.1906H71.4032C70.7116 51.1906 70.0574 50.8947 69.5616 50.3531C68.9782 49.7197 68.6866 48.8281 68.7616 47.9156C68.8866 46.3989 70.0908 45.2114 71.5033 45.2114H73.4741C74.2783 45.2114 75.0949 45.1406 75.6199 44.6114C76.1241 44.1072 76.3658 43.1947 76.3616 41.8281C76.3449 37.6947 77.4824 34.4489 79.7407 32.1864C82.8532 29.0614 87.3324 28.5947 89.7241 28.5947C92.4533 28.5947 93.7283 30.4239 94.9574 32.1947C96.3324 34.1739 97.7574 36.2156 101.328 36.2156H106.92C110.553 36.2156 112.832 37.9364 114.782 42.1489L114.837 42.2697C115.978 44.7406 116.62 45.9239 118.67 45.9239H125.449C126.287 45.9239 126.991 46.2114 127.487 46.7489C127.92 47.2239 128.162 47.8614 128.162 48.5489C128.157 49.8614 127.27 51.1906 125.57 51.1906ZM71.4991 46.0447C70.5199 46.0447 69.6783 46.8947 69.5908 47.9822C69.5324 48.6656 69.7449 49.3239 70.1741 49.7906C70.5116 50.1572 70.9491 50.3572 71.4032 50.3572H125.57C126.774 50.3572 127.324 49.4197 127.324 48.5531C127.324 47.6614 126.745 46.7614 125.449 46.7614H118.662C115.987 46.7614 115.145 44.9364 114.074 42.6239L114.02 42.5031C112.207 38.5822 110.216 37.0531 106.916 37.0531H101.324C97.3199 37.0531 95.6991 34.7281 94.2699 32.6739C93.0574 30.9364 92.0116 29.4322 89.7199 29.4322C87.4574 29.4322 83.2283 29.8656 80.3283 32.7781C78.2324 34.8822 77.1783 37.9281 77.1949 41.8322C77.1991 43.4322 76.8783 44.5322 76.2116 45.2072C75.4699 45.9531 74.4116 46.0531 73.4741 46.0531H71.4991V46.0447Z" fill="#F9FAFB"/>
<path d="M276.855 182.587H200.459C198.997 182.587 197.776 182.057 196.934 181.053C196.201 180.182 195.797 178.991 195.797 177.703C195.797 175.128 197.489 172.391 200.626 172.391H206.089C206.609 172.391 206.984 172.249 207.239 171.962C208.105 170.966 207.726 168.241 207.251 164.791C207.118 163.832 206.98 162.837 206.855 161.782L206.834 161.591C206.351 157.541 205.343 149.116 213.914 146.045C217.201 144.866 218.83 144.416 221.784 143.595C222.551 143.382 223.409 143.145 224.418 142.862C227.068 142.116 229.018 142.095 230.739 142.799C232.839 143.657 234.534 145.628 235.934 148.824C237.768 153.016 239.272 154.307 241.697 153.757C258.226 150.003 260.864 156.77 263.418 163.316C263.576 163.716 263.73 164.116 263.889 164.516C265.53 168.603 267.518 172.387 270.939 172.387H276.697C279.964 172.387 281.676 174.995 281.676 177.574C281.668 179.991 280.164 182.587 276.855 182.587ZM200.63 173.224C198.005 173.224 196.634 175.478 196.634 177.703C196.634 178.795 196.968 179.795 197.576 180.52C198.255 181.328 199.255 181.753 200.464 181.753H276.859C279.593 181.753 280.839 179.591 280.839 177.578C280.839 175.482 279.543 173.224 276.693 173.224H270.934C267.018 173.224 264.859 169.191 263.109 164.828C262.951 164.428 262.793 164.024 262.634 163.624C260.097 157.12 257.701 150.978 241.876 154.574C238.584 155.324 236.868 153.057 235.168 149.162C232.434 142.912 228.984 142.445 224.639 143.666C223.63 143.949 222.772 144.187 222.005 144.399C218.972 145.241 217.451 145.662 214.193 146.828C206.247 149.678 207.201 157.657 207.659 161.491L207.684 161.682C207.809 162.728 207.947 163.72 208.08 164.674C208.605 168.478 208.989 171.224 207.872 172.503C207.459 172.978 206.859 173.22 206.093 173.22H200.63V173.224Z" fill="#F9FAFB"/>
<path d="M108.121 190.345H39.3752C38.4252 190.345 37.5044 189.945 36.8544 189.253C36.1961 188.549 35.8669 187.628 35.9294 186.661C36.0461 184.853 37.6044 183.436 39.4794 183.436H42.8627C44.2377 183.436 45.3544 182.32 45.3544 180.945V175.432C45.3544 171.961 47.7211 168.999 51.1086 168.232L60.6544 166.078C64.1711 165.282 67.7794 166.678 69.8502 169.628C71.1377 171.466 73.2461 172.561 75.4919 172.561H85.1836C89.0294 172.561 92.4961 174.991 93.8127 178.599C94.8669 181.491 97.6419 183.436 100.721 183.436H108.021C109.896 183.436 111.454 184.853 111.571 186.661C111.634 187.628 111.304 188.549 110.646 189.253C109.992 189.945 109.071 190.345 108.121 190.345ZM39.4794 184.27C38.0419 184.27 36.8502 185.345 36.7627 186.716C36.7169 187.449 36.9627 188.149 37.4627 188.682C37.9627 189.216 38.6419 189.511 39.3752 189.511H108.121C108.854 189.511 109.534 189.216 110.034 188.682C110.534 188.149 110.784 187.449 110.734 186.716C110.646 185.345 109.45 184.27 108.017 184.27H100.717C97.2877 184.27 94.1961 182.107 93.0252 178.886C91.8294 175.603 88.6752 173.395 85.1794 173.395H75.4877C72.9711 173.395 70.6086 172.166 69.1627 170.107C67.2877 167.432 64.0169 166.17 60.8336 166.891L51.2877 169.045C48.2836 169.724 46.1836 172.349 46.1836 175.432V180.945C46.1836 182.778 44.6919 184.27 42.8586 184.27H39.4794Z" fill="#F9FAFB"/>
<path d="M74.1026 304.449L73.3318 304.128C75.4318 299.116 76.5401 293.77 76.5401 288.666C76.5401 278.582 72.5193 268.862 65.2234 261.291C58.2776 254.087 49.0484 249.653 39.8984 249.128L39.9484 248.295C49.3026 248.832 58.736 253.357 65.8235 260.712C73.2734 268.441 77.3734 278.366 77.3734 288.666C77.3776 293.874 76.2443 299.332 74.1026 304.449Z" fill="white"/>
<path d="M85.9757 308.099C84.0673 301.774 83.9548 295.232 85.6798 290.599C87.4965 285.724 91.909 281.986 96.9256 281.078L97.0757 281.899C92.3423 282.753 88.1798 286.282 86.4632 290.891C84.8007 295.361 84.9173 301.703 86.7757 307.861L85.9757 308.099Z" fill="white"/>
<path d="M100.975 271.903C95.8833 269.27 88.9667 268.295 81.4917 269.153C79.9917 269.324 78.4958 269.57 77.0458 269.874L76.875 269.057C78.35 268.745 79.8709 268.499 81.4 268.324C89.0334 267.445 96.1208 268.453 101.358 271.161L100.975 271.903Z" fill="white"/>
<path d="M128.158 322.578L127.883 321.791C130.779 320.774 133.516 319.111 136.024 316.849C136.912 316.049 138.216 315.924 139.199 316.545C141.416 317.941 143.595 319.032 145.67 319.778L145.387 320.561C143.254 319.791 141.024 318.678 138.754 317.249C138.083 316.828 137.191 316.92 136.583 317.47C133.991 319.807 131.158 321.528 128.158 322.578Z" fill="white"/>
<path d="M158.478 321.007L158.211 320.22C160.569 319.42 162.853 318.066 165.003 316.186C165.807 315.486 166.936 315.395 168.186 315.936C169.969 316.703 171.794 317.22 173.615 317.461L173.507 318.286C171.611 318.032 169.707 317.499 167.857 316.703C167.194 316.416 166.253 316.203 165.553 316.815C163.319 318.761 160.936 320.174 158.478 321.007Z" fill="white"/>
<path d="M184.308 316.87L184.008 316.091C186.47 315.145 189.008 313.741 191.558 311.912C192.27 311.399 193.191 311.257 194.008 311.532C194.291 311.628 194.591 311.728 194.912 311.841C196.716 312.457 199.187 313.303 201.858 313.745L201.72 314.566C198.983 314.112 196.47 313.253 194.641 312.628C194.324 312.52 194.024 312.416 193.741 312.324C193.174 312.132 192.537 312.232 192.037 312.591C189.437 314.462 186.837 315.903 184.308 316.87Z" fill="white"/>
<path d="M110.115 321.628C106.019 319.903 103.035 317.607 101.606 316.036C101.194 315.582 100.573 315.378 99.9438 315.495C97.3896 315.961 94.9146 316.011 92.5938 315.641L92.7271 314.82C94.9521 315.174 97.3312 315.128 99.7937 314.678C100.706 314.507 101.619 314.811 102.227 315.482C103.598 316.991 106.473 319.195 110.44 320.866L110.115 321.628Z" fill="white"/>
<path d="M114.626 335.42C105.505 332.782 97.851 327.707 92.4844 320.741L93.1427 320.232C98.3969 327.057 105.905 332.028 114.855 334.62L114.626 335.42Z" fill="white"/>
<path d="M191.453 322.178L191.203 321.382C196.52 319.707 201.203 317.582 204.395 315.395C206.803 313.745 212.778 309.082 216.307 301.395C219.82 293.741 219.811 285.574 216.278 277.124L217.049 276.803C220.674 285.478 220.678 293.87 217.066 301.745C213.453 309.624 207.332 314.399 204.87 316.087C201.607 318.316 196.845 320.478 191.453 322.178Z" fill="white"/>
<path d="M264.856 318.965L264.189 318.461C268.456 312.803 270.618 305.64 270.61 297.169C270.589 274.411 259.11 263.424 250.477 257.14L250.968 256.465C257.189 260.994 261.814 265.936 265.106 271.582C269.302 278.769 271.435 287.382 271.443 297.169C271.452 305.824 269.235 313.157 264.856 318.965Z" fill="white"/>
<path d="M269.721 267.028C266.846 262.07 266.887 256.816 269.833 252.616L270.517 253.095C267.767 257.02 267.737 261.945 270.442 266.612L269.721 267.028Z" fill="white"/>
<path d="M273.527 280.578L273.219 279.803C280.848 276.77 282.469 271.915 282.752 269.29C283.119 265.92 281.74 262.457 279.398 260.874C278.977 260.59 278.294 260.503 277.619 260.645C277.169 260.74 276.34 261.02 275.823 261.84L275.119 261.399C275.623 260.599 276.448 260.045 277.448 259.832C278.356 259.64 279.26 259.774 279.869 260.186C282.456 261.936 283.985 265.72 283.585 269.386C283.277 272.19 281.565 277.382 273.527 280.578Z" fill="white"/>
<path d="M50.2224 246.211L49.4141 246.011C50.7557 240.586 53.3349 235.378 56.8807 230.953L57.5307 231.474C54.0599 235.803 51.5307 240.899 50.2224 246.211Z" fill="white"/>
<path d="M116.71 310.987C114.147 310.987 110.927 310.016 107.977 308.341L108.389 307.616C111.402 309.328 114.681 310.274 117.164 310.141C119.718 310.007 122.052 309.407 124.089 308.353L124.472 309.095C122.327 310.203 119.885 310.837 117.21 310.974C117.043 310.982 116.877 310.987 116.71 310.987Z" fill="white"/>
<path d="M140.914 310.936C138.009 310.332 135.193 309.349 132.547 308.015L132.922 307.27C135.505 308.57 138.251 309.528 141.08 310.12L140.914 310.936Z" fill="white"/>
<path d="M174.769 309.974C172.327 309.974 169.915 309.399 167.531 308.24L167.894 307.49C173.515 310.22 179.36 309.545 185.269 305.486L185.74 306.174C182.056 308.707 178.385 309.974 174.769 309.974Z" fill="white"/>
<path d="M201.235 305.182C200.314 305.182 199.393 305.103 198.477 304.945L198.618 304.124C203.764 305.024 209.089 303.228 213.61 299.07L214.172 299.682C210.26 303.282 205.752 305.182 201.235 305.182Z" fill="white"/>
<path d="M185.886 81.7402L182.52 78.6902L167.474 83.061L163.532 80.6902L145.482 86.0777L141.353 83.7069L132.828 87.6444L136.428 87.6902L140.895 86.4194L144.182 90.1485L162.149 84.761L162.17 84.7819L165.632 88.4902L180.457 84.1402L182.82 87.4902L199.566 82.7944C199.941 82.7944 200.116 82.3277 199.832 82.0819L197.982 80.4694C197.803 80.311 197.795 80.0319 197.974 79.8694L199.895 78.0735C200.166 77.8235 199.986 77.3735 199.62 77.3735L185.886 81.7402Z" fill="#111827"/>
<path d="M181.798 90.1489L179.631 85.7697L164.894 90.628L161.94 85.8822L143.177 91.578L140.269 88.0864L132.665 88.0739L132.594 89.9489L139.806 91.303L143.252 96.6655L161.156 91.3197L164.552 96.828L178.356 92.478L180.86 96.828L197.465 92.0489C197.84 92.0489 198.015 91.5822 197.731 91.3364L195.827 89.3572C195.648 89.1989 195.64 88.9197 195.819 88.7572L197.798 85.803C198.069 85.553 197.89 85.103 197.523 85.103L181.798 90.1489Z" fill="#111827"/>
<path d="M140.196 188.586H157.892V256.257H122.246C118.554 256.257 115.562 253.266 115.562 249.574V244.12C115.562 240.261 116.421 236.449 118.075 232.961L140.196 188.586Z" fill="#111827"/>
<path d="M195.547 253.569C195.547 253.569 189.356 249.478 186.718 247.744C183.343 245.519 182.318 242.615 181.793 239.711L157.185 102.89H99.9473L100.614 96.4736H68.1348L63.9015 122.761C62.9348 128.757 67.564 134.19 73.639 134.19H113.272C118.756 134.19 123.539 137.911 124.889 143.224L153.422 256.39H194.806C196.385 256.394 196.639 254.165 195.547 253.569Z" fill="#1E40AF"/>
<path d="M138.755 105.27H124.43V84.7905H128.734L138.755 105.27Z" fill="#FDBA74"/>
<path d="M121.562 83.4946V95.9613C121.562 96.953 122.367 97.7613 123.363 97.7613C128.279 97.7613 132.054 93.7863 132.1 87.5321L132.212 87.4571L121.562 83.4946Z" fill="#F59E0B"/>
<path d="M95.369 100.914L91.9609 122.117L92.7837 122.249L96.1918 101.047L95.369 100.914Z" fill="#111827"/>
<path d="M134.858 82.6737L123.249 73.907C122.558 73.3904 121.57 73.882 121.57 74.7487V83.4987L132.22 87.457L134.72 85.8237C135.379 85.3945 135.762 84.6154 135.604 83.8445C135.508 83.3945 135.258 82.9737 134.858 82.6737Z" fill="#93C5FD"/>
<path d="M132.1 87.532L121.562 84.7528V81.7861L132.825 87.057L132.1 87.532Z" fill="#111827"/>
<path d="M144.485 102.89H99.9479L100.61 96.4736H95.3229L94.3438 102.89L142.06 132.794L144.485 102.89Z" fill="#93C5FD"/>
<path d="M143.154 119.282L144.483 102.891H117L143.154 119.282Z" fill="white"/>
<path d="M103.732 102.703L95.9156 106.807C92.6073 108.545 88.5198 107.174 86.9281 103.791L83.1406 95.7489L100.986 89.6323C103.111 88.9031 105.332 90.4406 105.407 92.6822L105.624 99.4531C105.666 100.811 104.932 102.074 103.732 102.703Z" fill="#FDBA74"/>
<path d="M99.2188 82.2905V93.0405L123.802 88.603C124.244 88.5072 124.556 88.1155 124.556 87.6614C124.556 87.2114 124.244 86.8197 123.802 86.7197L99.2188 82.2905Z" fill="#1E40AF"/>
<path d="M95.3661 102.724C94.1953 102.799 91.2786 102.995 91.0411 100.886C89.2703 103.249 83.4286 103.682 82.8453 100.915C81.5745 103.174 76.2161 104.165 74.1953 100.886C71.5953 102.84 69.112 102.836 67.3411 102.724C64.8828 102.565 62.8828 100.728 62.8828 98.2655V85.3197C62.8828 77.0905 69.5536 73.8613 77.7828 73.8613H90.5703C97.0536 73.8613 102.312 75.678 102.312 82.1613V95.778C102.308 99.6155 99.1953 102.482 95.3661 102.724Z" fill="#F59E0B"/>
<path d="M61.3959 98.7405C58.6667 99.153 52.9375 99.8488 52.9375 99.8488V75.3696C52.9375 75.3696 58.6709 75.9988 61.3959 76.478C65.3417 77.178 68.6542 79.728 68.6542 83.7363V91.478C68.6542 95.4905 65.3584 98.1405 61.3959 98.7405Z" fill="#1E40AF"/>
<path d="M20.5714 62.3779L20.3672 112.361L45.1464 106.824C51.5005 105.411 56.0255 99.7779 56.0255 93.2654V81.4488C56.0255 74.9363 51.5047 69.3029 45.1464 67.8904L20.5714 62.3779Z" fill="#93C5FD"/>
<path d="M20.1609 112.374C24.6551 112.374 28.2984 101.175 28.2984 87.3611C28.2984 73.5471 24.6551 62.3486 20.1609 62.3486C15.6667 62.3486 12.0234 73.5471 12.0234 87.3611C12.0234 101.175 15.6667 112.374 20.1609 112.374Z" fill="#1E40AF"/>
<path d="M188.117 55.5904H149.867V31.5737H183.192C185.913 31.5737 188.117 33.7779 188.117 36.4987V55.5904Z" fill="#FFEDD5"/>
<path d="M188.082 40.0615V37.6657C188.082 37.1282 187.649 36.6948 187.111 36.6948C186.574 36.6948 186.141 37.1282 186.141 37.6657V59.149C186.141 63.4282 189.607 66.8948 193.886 66.8948H233.686C235.857 66.8948 236.791 64.1448 235.074 62.8198L223.849 54.1657C223.086 53.5782 223.011 52.449 223.695 51.7698L230.224 45.2448C231.166 44.3032 230.499 42.699 229.17 42.699H190.72C189.266 42.699 188.082 41.5198 188.082 40.0615Z" fill="#FFEDD5"/>
<path d="M155.319 256.399L150.381 29.0112H148.406V256.399H155.319Z" fill="#FEF9C3"/>
<path d="M148.406 293.103V315.049C151.044 315.336 153.806 314.907 156.594 313.649L156.144 293.107H148.406V293.103Z" fill="#FEF9C3"/>
<path d="M149.328 30.5488C148.019 30.5488 146.961 29.4904 146.961 28.1821C146.961 26.8738 148.019 25.8154 149.328 25.8154C150.636 25.8154 151.694 26.8738 151.694 28.1821C151.694 29.4863 150.636 30.5488 149.328 30.5488Z" fill="#FEF9C3"/>
<path d="M136.112 120.928L134.491 120.465C132.504 119.899 131.354 117.828 131.916 115.84L133.591 109.961C134.349 107.303 137.116 105.765 139.774 106.524L140.183 106.64C142.17 107.207 143.324 109.278 142.758 111.265L140.737 118.353C140.17 120.34 138.099 121.494 136.112 120.928Z" fill="#FDBA74"/>
<path d="M143.072 133.649H191.48C194.997 133.649 197.851 130.795 197.851 127.278V116.824C197.851 107.053 189.93 99.1362 180.164 99.1362H149.926C141.705 99.1362 136.03 104.278 137.18 110.653C135.335 112.361 135.451 116.478 137.151 118.499C135.776 120.82 136.289 125.049 138.505 126.09C137.372 128.349 138.797 133.649 143.072 133.649Z" fill="#F59E0B"/>
<path d="M180.167 99.1362H158.938C163.604 99.1362 167.392 102.92 167.392 107.59V128.124C167.392 131.178 164.917 133.653 161.863 133.653H191.487C195.008 133.653 197.858 130.799 197.858 127.282V116.828C197.854 107.053 189.933 99.1362 180.167 99.1362Z" fill="#1E40AF"/>
<path d="M20.0271 108.749C23.4075 108.749 26.1479 99.1731 26.1479 87.3611C26.1479 75.5491 23.4075 65.9736 20.0271 65.9736C16.6466 65.9736 13.9062 75.5491 13.9062 87.3611C13.9062 99.1731 16.6466 108.749 20.0271 108.749Z" fill="#111827"/>
<path d="M128.874 89.4154C128.691 89.1945 128.483 89.0279 128.245 88.907C127.674 88.6112 126.983 88.607 126.258 88.6029H126.195L126.204 87.7695H126.262C127.054 87.7779 127.874 87.782 128.624 88.1695C128.962 88.3404 129.258 88.582 129.512 88.8862L128.874 89.4154Z" fill="#111827"/>
<path d="M124.013 93.6781C123.888 93.6781 123.763 93.6781 123.642 93.6781H123.43L123.434 92.8447H123.646C124.688 92.8531 125.867 92.8614 126.43 92.2197L127.059 92.7697C126.326 93.6031 125.134 93.6781 124.013 93.6781Z" fill="#111827"/>
<path d="M134.65 102.474H121.25V103.307H134.65V102.474Z" fill="#111827"/>
<path d="M133.447 106.02H127.102V106.853H133.447V106.02Z" fill="#111827"/>
<path d="M149.33 30.9655C147.797 30.9655 146.547 29.7155 146.547 28.1821H147.38C147.38 29.2571 148.255 30.1321 149.33 30.1321C150.405 30.1321 151.28 29.2571 151.28 28.1821H152.114C152.114 29.7155 150.868 30.9655 149.33 30.9655Z" fill="#111827"/>
<path d="M148.818 297.37H147.984V311.199H148.818V297.37Z" fill="#111827"/>
<path d="M187.821 257.999C187.717 257.99 187.617 257.986 187.513 257.986H117.567C117.463 257.986 117.359 257.99 117.259 257.999C114.863 258.174 113.401 260.495 114.267 262.528C115.888 266.328 121.292 278.936 124.751 286.232C125.192 287.165 127.021 290.615 127.58 291.295C129.984 294.232 132.888 294.624 134.601 294.624H149.572H155.517H170.488C172.201 294.624 175.105 294.232 177.509 291.295C178.063 290.615 179.892 287.165 180.338 286.232C183.796 278.936 189.201 266.328 190.822 262.528C191.68 260.495 190.217 258.178 187.821 257.999Z" fill="#93C5FD"/>
<path d="M170.481 294.211H134.594V295.044H170.481V294.211Z" fill="#111827"/>
<path d="M177.756 288.19H171.847V287.357H177.756V288.19ZM170.868 288.19H163.235V287.357H170.239L177.172 263.057L177.972 263.286L170.868 288.19ZM158.427 288.19H151.252V287.357H157.706L161.197 262.619L162.022 262.736L158.427 288.19ZM146.897 288.19H139.268V287.357H145.918L141.96 262.732L142.781 262.599L146.897 288.19ZM134.46 288.19H127.322V287.357H133.331L126.227 264.124L127.022 263.878L134.46 288.19Z" fill="#111827"/>
<path d="M19.9031 85.6988C19.9031 91.1571 20.5323 95.5821 18.9698 95.5821C17.4073 95.5821 16.1406 91.1571 16.1406 85.6988C16.1406 80.2404 17.4073 75.8154 18.9698 75.8154C20.5323 75.8113 19.9031 80.2404 19.9031 85.6988Z" fill="#FFEDD5"/>
<path d="M186.56 38.603H185.727V60.2614H186.56V38.603Z" fill="#111827"/>
<path d="M138.56 109.561L138.102 108.866C140.927 106.999 143.947 105.186 143.977 105.166L144.406 105.878C144.372 105.903 141.372 107.707 138.56 109.561Z" fill="#111827"/>
<path d="M138.977 117.353L138.539 116.645C141.456 114.853 144.685 112.957 144.718 112.94L145.139 113.657C145.11 113.674 141.885 115.565 138.977 117.353Z" fill="#111827"/>
<path d="M140.096 125.311L139.688 124.586C141.946 123.307 144.708 121.82 144.733 121.807L145.129 122.54C145.1 122.557 142.346 124.04 140.096 125.311Z" fill="#111827"/>
<path d="M91.6037 100.136L90.8828 99.724C91.3786 98.8573 91.6411 97.8698 91.6411 96.8698V90.3823H92.4745V96.8698C92.4703 98.0115 92.1703 99.1448 91.6037 100.136Z" fill="#111827"/>
<path d="M83.5562 99.7029L82.7812 99.3987C83.0396 98.732 83.1729 98.0279 83.1729 97.307V90.332H84.0063V97.307C84.0063 98.1362 83.8521 98.9404 83.5562 99.7029Z" fill="#111827"/>
<path d="M74.7687 99.8362L74.0312 99.4445C74.4688 98.6195 74.6979 97.6903 74.6979 96.7528V90.5903H75.5312V96.7528C75.5354 97.8278 75.2729 98.8945 74.7687 99.8362Z" fill="#111827"/>
<path d="M148.74 42.5278H147.906V95.1528H148.74V42.5278Z" fill="#111827"/>
<path d="M148.74 134.807H147.906V187.432H148.74V134.807Z" fill="#111827"/>
<g clip-path="url(#clip0_1350_7256)">
<path d="M149.684 31.0164C154.907 26.1231 154.891 18.2444 149.667 13.3672C144.747 18.3643 144.761 26.0341 149.684 31.0164Z" fill="#F9FAFB"/>
<path opacity="0.8" d="M149.685 31.0168C146.88 24.642 150.145 17.3688 156.983 14.7183C159.467 21.082 156.289 28.1624 149.685 31.0168Z" fill="#F59E0B"/>
<path opacity="0.8" d="M149.695 31.0168C152.5 24.642 149.235 17.3688 142.397 14.7183C139.914 21.082 143.091 28.1624 149.695 31.0168Z" fill="#F59E0B"/>
<path opacity="0.8" d="M149.688 31.0138C157.111 31.0088 163.132 25.4507 163.187 18.5767C155.897 18.8547 150.034 24.2632 149.688 31.0138Z" fill="#F9FAFB"/>
<path opacity="0.8" d="M149.687 31.015C142.264 31.0088 136.242 25.452 136.188 18.5767C143.477 18.8547 149.34 24.2633 149.687 31.0138V31.015Z" fill="#F9FAFB"/>
</g>
<defs>
<clipPath id="clip0_1350_7256">
<rect width="27" height="18" fill="white" transform="translate(136.188 13.3672)"/>
</clipPath>
</defs>
</svg>
