<svg width="26" height="26" viewBox="0 0 26 26" fill="none" xmlns="http://www.w3.org/2000/svg">
<g id="call-calling">
<path id="Vector" d="M24.964 20.4788C24.964 20.9108 24.868 21.3548 24.664 21.7868C24.46 22.2188 24.196 22.6268 23.848 23.0108C23.26 23.6588 22.612 24.1268 21.88 24.4268C21.16 24.7268 20.38 24.8828 19.54 24.8828C18.316 24.8828 17.008 24.5948 15.628 24.0068C14.248 23.4188 12.868 22.6268 11.5 21.6308C10.12 20.6228 8.812 19.5068 7.564 18.2708C6.328 17.0228 5.212 15.7148 4.216 14.3468C3.232 12.9788 2.44 11.6108 1.864 10.2548C1.288 8.88681 1 7.57881 1 6.33081C1 5.51481 1.144 4.73481 1.432 4.01481C1.72 3.28281 2.176 2.61081 2.812 2.01081C3.58 1.25481 4.42 0.882812 5.308 0.882812C5.644 0.882812 5.98 0.954813 6.28 1.09881C6.592 1.24281 6.868 1.45881 7.084 1.77081L9.868 5.69481C10.084 5.99481 10.24 6.27081 10.348 6.53481C10.456 6.78681 10.516 7.03881 10.516 7.26681C10.516 7.55481 10.432 7.84281 10.264 8.11881C10.108 8.39481 9.88 8.68281 9.592 8.97081L8.68 9.91881C8.548 10.0508 8.488 10.2068 8.488 10.3988C8.488 10.4948 8.5 10.5788 8.524 10.6748C8.56 10.7708 8.596 10.8428 8.62 10.9148C8.836 11.3108 9.208 11.8268 9.736 12.4508C10.276 13.0748 10.852 13.7108 11.476 14.3468C12.124 14.9828 12.748 15.5708 13.384 16.1108C14.008 16.6388 14.524 16.9988 14.932 17.2148C14.992 17.2388 15.064 17.2748 15.148 17.3108C15.244 17.3468 15.34 17.3588 15.448 17.3588C15.652 17.3588 15.808 17.2868 15.94 17.1548L16.852 16.2548C17.152 15.9548 17.44 15.7268 17.716 15.5828C17.992 15.4148 18.268 15.3308 18.568 15.3308C18.796 15.3308 19.036 15.3788 19.3 15.4868C19.564 15.5948 19.84 15.7508 20.14 15.9548L24.112 18.7748C24.424 18.9908 24.64 19.2428 24.772 19.5428C24.892 19.8428 24.964 20.1428 24.964 20.4788Z" stroke="#F9FAFB" stroke-width="1.5" stroke-miterlimit="10"/>
<path id="Vector_2" opacity="0.4" d="M20.8016 9.28594C20.8016 8.56594 20.2376 7.46194 19.3976 6.56194C18.6296 5.73394 17.6096 5.08594 16.6016 5.08594" stroke="#F9FAFB" stroke-width="1.5" stroke-linecap="round" stroke-linejoin="round"/>
<path id="Vector_3" opacity="0.4" d="M25.0016 9.28281C25.0016 4.63881 21.2456 0.882812 16.6016 0.882812" stroke="#F9FAFB" stroke-width="1.5" stroke-linecap="round" stroke-linejoin="round"/>
</g>
</svg>
