<svg width="48" height="32" viewBox="0 0 48 32" fill="none" xmlns="http://www.w3.org/2000/svg">
<g clip-path="url(#clip0_844_307)">
<path d="M23.9965 31.3763C33.0609 22.6772 33.0332 8.67061 23.9664 0C15.4269 8.8837 15.4501 22.519 23.9965 31.3763Z" fill="#F59E0B"/>
<path opacity="0.8" d="M23.9995 31.3775C19.1297 20.0444 24.7973 7.11427 36.6666 2.40222C40.9768 13.7155 35.4619 26.303 23.9995 31.3775Z" fill="#FEF3C7"/>
<path opacity="0.8" d="M24.0158 31.3775C28.8856 20.0444 23.218 7.11427 11.3487 2.40222C7.03848 13.7155 12.5534 26.303 24.0158 31.3775Z" fill="#FEF3C7"/>
<path opacity="0.8" d="M24 31.3713C36.8844 31.3625 47.3363 21.4814 47.4311 9.26086C34.7779 9.75514 24.6012 19.3704 24 31.3713Z" fill="#F59E0B"/>
<path opacity="0.8" d="M23.9975 31.3735C11.113 31.3625 0.661213 21.4836 0.566406 9.26086C13.2196 9.75514 23.3963 19.3704 23.9975 31.3713V31.3735Z" fill="#F59E0B"/>
</g>
<defs>
<clipPath id="clip0_844_307">
<rect width="46.8644" height="32" fill="white" transform="translate(0.566406)"/>
</clipPath>
</defs>
</svg>
