<svg width="48" height="32" viewBox="0 0 48 32" fill="none" xmlns="http://www.w3.org/2000/svg">
<g clip-path="url(#clip0_830_16851)">
<path d="M23.9987 0C23.9987 0 39.359 18.865 23.9987 31.7208C8.63836 18.865 23.9987 0 23.9987 0Z" fill="white"/>
<path opacity="0.85" d="M34.5286 1.78345C34.5286 1.78345 42.788 24.6656 24.0439 31.7207C13.7968 14.5101 34.5286 1.78345 34.5286 1.78345Z" fill="#F59E0B"/>
<path opacity="0.85" d="M13.4648 1.78345C13.4648 1.78345 5.2054 24.6656 23.9495 31.7207C34.1967 14.5101 13.4648 1.78345 13.4648 1.78345Z" fill="#F59E0B"/>
<path opacity="0.8" d="M47.4305 10.3889C47.4305 10.3889 43.8717 34.4545 24.0233 31.7959C23.144 11.7849 47.4305 10.3889 47.4305 10.3889Z" fill="white"/>
<path opacity="0.8" d="M0.566406 10.3889C0.566406 10.3889 4.1252 34.4545 23.9736 31.7959C24.8529 11.7849 0.566406 10.3889 0.566406 10.3889Z" fill="white"/>
</g>
<defs>
<clipPath id="clip0_830_16851">
<rect width="46.8644" height="32" fill="white" transform="translate(0.566406)"/>
</clipPath>
</defs>
</svg>
