<svg width="18" height="14" viewBox="0 0 18 14" fill="none" xmlns="http://www.w3.org/2000/svg">
<path d="M8.99839 3.3031C3.75578 3.3031 1.55469 8.01777 1.55469 8.11559C1.55469 8.21341 3.75578 12.9281 8.99839 12.9281C14.241 12.9281 16.4421 8.21341 16.4421 8.11559C16.4421 8.01777 14.241 3.3031 8.99839 3.3031Z" stroke="#FFFBEB" stroke-linecap="round" stroke-linejoin="round"/>
<path d="M2.95141 6.04198L1 4.09058" stroke="#FFFBEB" stroke-linecap="round" stroke-linejoin="round"/>
<path d="M6.66653 3.64534L5.87109 1.07202" stroke="#FFFBEB" stroke-linecap="round" stroke-linejoin="round"/>
<path d="M15.0469 6.04198L16.9982 4.09058" stroke="#FFFBEB" stroke-linecap="round" stroke-linejoin="round"/>
<path d="M11.3359 3.64534L12.1314 1.07202" stroke="#FFFBEB" stroke-linecap="round" stroke-linejoin="round"/>
<path d="M8.51296 10.237C9.68442 10.5053 10.8515 9.77307 11.1198 8.60161C11.3881 7.43014 10.6559 6.26302 9.48441 5.99476C8.31294 5.7265 7.14582 6.45869 6.87756 7.63016C6.6093 8.80162 7.34149 9.96875 8.51296 10.237Z" stroke="#FFFBEB" stroke-linecap="round" stroke-linejoin="round"/>
</svg>
