<svg width="18" height="14" viewBox="0 0 18 14" fill="none" xmlns="http://www.w3.org/2000/svg">
<path d="M8.99839 3.3031C3.75578 3.3031 1.55469 8.01777 1.55469 8.11559C1.55469 8.21341 3.75578 12.9281 8.99839 12.9281C14.241 12.9281 16.4421 8.21341 16.4421 8.11559C16.4421 8.01777 14.241 3.3031 8.99839 3.3031Z" stroke="url(#paint0_linear_1184_34737)" stroke-linecap="round" stroke-linejoin="round"/>
<path d="M2.95141 6.04198L1 4.09058" stroke="url(#paint1_linear_1184_34737)" stroke-linecap="round" stroke-linejoin="round"/>
<path d="M6.66653 3.64534L5.87109 1.07202" stroke="url(#paint2_linear_1184_34737)" stroke-linecap="round" stroke-linejoin="round"/>
<path d="M15.0469 6.04198L16.9982 4.09058" stroke="url(#paint3_linear_1184_34737)" stroke-linecap="round" stroke-linejoin="round"/>
<path d="M11.3359 3.64534L12.1314 1.07202" stroke="url(#paint4_linear_1184_34737)" stroke-linecap="round" stroke-linejoin="round"/>
<path d="M8.51296 10.237C9.68442 10.5053 10.8515 9.77307 11.1198 8.60161C11.3881 7.43014 10.6559 6.26302 9.48441 5.99476C8.31294 5.7265 7.14582 6.45869 6.87756 7.63016C6.6093 8.80162 7.34149 9.96875 8.51296 10.237Z" stroke="url(#paint5_linear_1184_34737)" stroke-linecap="round" stroke-linejoin="round"/>
<defs>
<linearGradient id="paint0_linear_1184_34737" x1="8.99839" y1="3.3031" x2="8.99839" y2="12.9281" gradientUnits="userSpaceOnUse">
<stop stop-color="#F59E0B"/>
<stop offset="1" stop-color="#F9B84B"/>
</linearGradient>
<linearGradient id="paint1_linear_1184_34737" x1="1.97571" y1="4.09058" x2="1.97571" y2="6.04198" gradientUnits="userSpaceOnUse">
<stop stop-color="#F59E0B"/>
<stop offset="1" stop-color="#F9B84B"/>
</linearGradient>
<linearGradient id="paint2_linear_1184_34737" x1="6.26881" y1="1.07202" x2="6.26881" y2="3.64534" gradientUnits="userSpaceOnUse">
<stop stop-color="#F59E0B"/>
<stop offset="1" stop-color="#F9B84B"/>
</linearGradient>
<linearGradient id="paint3_linear_1184_34737" x1="16.0225" y1="4.09058" x2="16.0225" y2="6.04198" gradientUnits="userSpaceOnUse">
<stop stop-color="#F59E0B"/>
<stop offset="1" stop-color="#F9B84B"/>
</linearGradient>
<linearGradient id="paint4_linear_1184_34737" x1="11.7337" y1="1.07202" x2="11.7337" y2="3.64534" gradientUnits="userSpaceOnUse">
<stop stop-color="#F59E0B"/>
<stop offset="1" stop-color="#F9B84B"/>
</linearGradient>
<linearGradient id="paint5_linear_1184_34737" x1="9.48441" y1="5.99476" x2="8.51296" y2="10.237" gradientUnits="userSpaceOnUse">
<stop stop-color="#F59E0B"/>
<stop offset="1" stop-color="#F9B84B"/>
</linearGradient>
</defs>
</svg>
